<svg width="359" height="400" viewBox="0 0 359 400" fill="none" xmlns="http://www.w3.org/2000/svg">
<g opacity="0.1">
<path d="M52.67 382.44L147.97 371.86L263.36 385.46L134.44 400L52.67 382.44Z" fill="#2B2B2B"/>
</g>
<path d="M126.16 335.5L119.25 361.2L110.18 370.13L105.72 364.44L103.06 327.15L106.15 303.98L126.16 335.5Z" fill="#C3977A"/>
<path d="M108.24 320.75L128.25 327.44L126.16 335.5L103.06 327.15L108.24 320.75Z" fill="#8A6651"/>
<path d="M169.35 288.28L170.57 327.87L169.13 354.8L160.35 367.32L154.38 357.53L148.26 335.5L169.35 288.28Z" fill="#C3977A"/>
<path d="M155.1 316.07L170.57 327.87L148.26 335.5L146.03 327.59L155.1 316.07Z" fill="#8A6651"/>
<path d="M158.77 386.11L154.52 386.04L151.72 369.049L154.38 357.53L164.46 364.299L162.3 371.059L158.77 386.11Z" fill="#734D5F"/>
<path d="M105.72 364.44L99.1001 378.98L103.99 391.65L105.72 364.44Z" fill="#734D5F"/>
<path d="M119.25 361.2L124.29 371.13L117.67 379.41L104.28 382L105.72 364.44L119.25 361.2Z" fill="#DFBCA4"/>
<path d="M104.28 382L124.29 371.13L126.74 375.53L122.49 382L103.99 386.54L104.28 382Z" fill="#95627B"/>
<path d="M103.99 386.54L126.74 375.53L133.79 386.54L122.63 388.63L103.99 386.54Z" fill="#95627B"/>
<path d="M169.13 354.58L180.65 367.03L174.68 373.51L165.61 376.75L154.38 357.53L169.13 354.58Z" fill="#DFBCA4"/>
<path d="M165.61 376.75L180.65 367.03L184.18 370.49L178.78 376.53L167.98 379.85L165.61 376.75Z" fill="#95627B"/>
<path d="M167.98 380.849L184.18 370.49L195.05 380.849L180.72 383.009L167.98 380.849Z" fill="#95627B"/>
<path d="M103.99 391.65H133.79V386.54H103.99V391.65Z" fill="#734D5F"/>
<path d="M162.3 371.06L160.06 373.151L161 375.31L171.58 386.32H195.05V380.85H175.54L162.3 371.06Z" fill="#734D5F"/>
<path d="M80.3101 312.9L133 300.95L190.44 314.339L176.19 264.75L146.1 230.12L98.1601 274.389L94.2001 278.139L80.3101 312.9Z" fill="#532F42"/>
<path d="M290.58 192.15L281.36 198.86L274.4 195V185.75L290.58 192.15Z" fill="#8A6651"/>
<path d="M262.75 174.84L289.77 171.84L290.58 192.15L262.02 187.78L262.75 174.84Z" fill="#C3977A"/>
<path d="M265.26 193.52L350.191 135.85L354.07 141.51L268.66 198.86L265.26 193.52Z" fill="#9DA0A1"/>
<path d="M262.59 194.65L265.26 193.52L268.66 198.86L266.96 201.04L262.59 194.65Z" fill="#4F5252"/>
<path d="M350.19 135.85L352.78 131.8L358.69 140.05L354.07 141.51L350.19 135.85Z" fill="#4F5252"/>
<path d="M260.16 177.59L284.83 182.68L282.24 188.59L259.11 189.48L260.16 177.59Z" fill="#DFBCA4"/>
<path d="M264.15 170.31L241.33 172.9L233.2 182.4L235.79 193.34L261.339 198.67L264.15 170.31Z" fill="#95627B"/>
<path d="M207.07 171.82L241.33 172.9L235.79 193.34L206.21 201.04L207.07 171.82Z" fill="#734D5F"/>
<path d="M162.66 178.94L172.81 176.43L177.27 170.81L207.07 171.82L223.41 187.15L206.21 201.04L167.55 210.69L162.66 178.94Z" fill="#734D5F"/>
<path d="M0.77002 126.47L31.58 168.22L40.22 168.51L48.06 142.52L43.53 132.3L0.77002 126.47Z" fill="#464646"/>
<path d="M164.46 96.45L66.2 178.73L31.58 168.22L70.23 52.04L164.46 96.45Z" fill="#4F5252"/>
<path d="M164.46 96.45L153.3 133.67L66.2 178.73L111.26 71.41L164.46 96.45Z" fill="#464646"/>
<path d="M176.621 22.96L202.099 56.94L181.161 109.2L160.501 20.95L176.621 22.96Z" fill="#464646"/>
<path d="M177.56 18.28L202.1 56.94L160.5 20.95L177.56 18.28Z" fill="#464646"/>
<path d="M118.53 173.04L73.54 67.88L99.24 49.59L125.94 81.41L154.67 148.43L144.88 194.06L118.53 173.04Z" fill="#C3977A"/>
<path d="M172.37 31.17L187.71 145.04L125.15 156.2L98.09 49.95L172.37 31.17Z" fill="#DFBCA4"/>
<path d="M154.31 150.8L144.88 194.28L118.32 156.92L154.31 150.8Z" fill="#8A6651"/>
<path d="M91.6801 62.12L109.03 93L104.14 97.32L107.59 138.92L110.97 155.55L61.4501 78.24L91.6801 62.12Z" fill="#464646"/>
<path d="M104.14 97.32L89.3101 101.71L97.2201 121.5L110.32 116.11L104.14 97.32Z" fill="#DFBCA4"/>
<path d="M101.47 102.72L94.27 104.8L102.91 110.13L101.47 102.72Z" fill="#8A6651"/>
<path d="M105.14 113.44L108.81 124.6L102.91 126.4L100.03 115.1L105.14 113.44Z" fill="#734D5F"/>
<path d="M93.34 192.33L77.86 199.89L71.89 237.4L94.2 251.07L103.34 246.97L105.58 236.1L107.09 214.58L90.75 179.52L93.34 192.33Z" fill="#734D5F"/>
<path d="M80.17 185.06L77.86 199.89L100.97 211.34L106.01 206.37L100.82 169.66L81.82 174.27L80.17 185.06Z" fill="#734D5F"/>
<path d="M71.89 237.4L94.2 251.071L103.34 246.969L105.58 236.099L71.89 237.4Z" fill="#734D5F"/>
<path d="M128.25 327.441L98.74 273.961L105.21 258.05L146.53 223.14L173.81 257.26L170.57 327.871L128.25 327.441Z" fill="#95627B"/>
<path d="M103.06 327.15L98.74 273.96L105.21 258.049L146.53 223.139L155.31 251.86L128.25 327.44L103.06 327.15Z" fill="#734D5F"/>
<path d="M93.05 179.879L100.82 169.66L104.64 168.22L124.29 179.45L145.31 189.53L152.36 202.269L146.17 235.59L131.7 252.73L99.0301 276.69L105.58 236.1L93.05 179.879Z" fill="#95627B"/>
<path d="M173.45 237.61L181.73 270.139L155.31 251.86L163.95 267.27L146.17 235.589L145.31 189.53L162.73 176.64L158.7 168.36L174.25 172.25L176.98 176.79L173.45 237.61Z" fill="#B3879D"/>
<path d="M140.63 208.75L145.67 203.78L149.84 208.89L145.74 214L140.63 208.75Z" fill="#D1A0B8"/>
<path d="M140.99 227.17L145.96 222.42L150.28 227.46L146.17 232.28L140.99 227.17Z" fill="#D1A0B8"/>
<path d="M131.7 252.73L80.31 312.901L78.8 271.37L105.58 236.1L131.7 252.73Z" fill="#B3879D"/>
<path d="M173.45 237.611L194.76 282.241L190.44 314.34L163.95 267.27L155.31 251.861L173.45 237.611Z" fill="#D1A0B8"/>
<path d="M155.31 251.86L131.7 252.73L146.17 235.589L155.31 251.86Z" fill="#D1A0B8"/>
<path d="M149.34 134.6L139.41 131L149.91 127.84L157.69 129.42L166.18 128.27L169.21 128.7L155.24 135.04L149.34 134.6Z" fill="white"/>
<path d="M169.21 128.7L155.17 124.09L139.41 131L155.012 129.796L169.21 128.7Z" fill="#734D5F"/>
<path d="M154.38 138.35L169.21 128.7L155.31 132.44L139.41 131L154.38 138.35Z" fill="#B3879D"/>
<path d="M154.81 80.19L162.01 110.85L151 112.51L146.46 81.27L154.81 80.19Z" fill="#E8C9B6"/>
<path d="M155.89 117.55L162.01 110.85L151 112.51L155.89 117.55Z" fill="#8A6651"/>
<path d="M125.51 84.07L146.46 81.27L151 112.51L125.51 84.07Z" fill="#C3977A"/>
<path d="M160.42 103.94L171.01 76.23L154.81 80.19L160.42 103.94Z" fill="#C3977A"/>
<path d="M122.78 77.31L140.99 82L116.95 84.87L122.78 77.31Z" fill="#464646"/>
<path d="M175.68 74.79L154.81 80.19L171.44 67.59L175.68 74.79Z" fill="#464646"/>
<path d="M104.64 168.22L81.82 174.19L80.17 184.99V185.06L109.61 175.27L104.64 168.22Z" fill="#B3879D"/>
<path d="M152.94 156.13L158.7 168.36L162.22 173.47L162.73 176.64L155.39 187.66L145.31 189.53L152.94 156.13Z" fill="#734D5F"/>
<path d="M104.64 168.22L110.76 155.05L145.31 189.53L119.47 189.46L104.64 168.22Z" fill="#734D5F"/>
<path d="M158.7 168.36L177.27 170.81L176.98 176.79L162.73 176.64L161.36 173.76L158.7 168.36Z" fill="#D1A0B8"/>
<path d="M167.9 81.14C165.354 81.14 163.29 83.204 163.29 85.75C163.29 88.296 165.354 90.36 167.9 90.36C170.446 90.36 172.51 88.296 172.51 85.75C172.51 83.204 170.446 81.14 167.9 81.14Z" fill="#2B2B2B"/>
<path d="M133.14 87.13C130.594 87.13 128.53 89.194 128.53 91.74C128.53 94.286 130.594 96.35 133.14 96.35C135.686 96.35 137.75 94.286 137.75 91.74C137.75 89.194 135.686 87.13 133.14 87.13Z" fill="#2B2B2B"/>
<path d="M168.05 0L70.23 52.04L50.22 74.79L109.03 93L186.84 29.799L168.05 0Z" fill="#4F5252"/>
<path d="M168.05 0L65.121 47.799L50.22 74.79L168.05 0Z" fill="#464646"/>
<path d="M168.05 0L109.03 93L202.97 30.09L168.05 0Z" fill="#6E7073"/>
</svg>
