<svg width="303" height="400" viewBox="0 0 303 400" fill="none" xmlns="http://www.w3.org/2000/svg">
<g opacity="0.1">
<path d="M17.4601 392.32L136.43 378.4L302.8 389.73L137.49 400L17.4601 392.32Z" fill="black"/>
</g>
<path d="M238.65 218.849L222.889 221.69L222.29 161.89L225.25 157.289L229.769 154.01L238.65 218.849Z" fill="#95627B"/>
<path d="M229.77 154.01L222.291 161.89L189.52 133.41L189.781 130.23L192.81 128.84L229.77 154.01Z" fill="#B3879D"/>
<path d="M270.299 389.31L235.739 383.361L195.23 389.31V257.27L198.199 246.871L195.23 228.13L270.299 209.13L266.86 262.451L270.299 310.321L265.949 354.701L270.299 389.31Z" fill="#90759F"/>
<path d="M270.299 209.13L195.23 227.01V257.27L270.299 310.32V209.13Z" fill="#584164"/>
<path d="M284.94 220.88L180.58 246.87V228.52L284.94 202.53V220.88Z" fill="#785D87"/>
<path d="M270.299 310.32L195.23 389.309H270.299V310.32Z" fill="#785D87"/>
<path d="M184.43 115.17L179.701 122.88L173.92 129.7L168.5 120.48L174.13 112.67L184.43 115.17Z" fill="#B3879D"/>
<path d="M184.43 115.17L173.92 129.7L191.991 135.56L195.55 130.71L184.43 115.17Z" fill="#95627B"/>
<path d="M104.24 324.8L118.7 344.35L138.85 339.3L153.54 327.39L137.49 265.96L109.59 308.53L104.24 324.8Z" fill="#785D87"/>
<path d="M118.7 344.35L136.43 369.58L158.37 364.361L161.92 358.8L153.54 327.39L118.7 344.35Z" fill="#584164"/>
<path d="M59.58 266.85L137.49 265.96L109.59 308.53L85.46 297.33L59.58 266.85Z" fill="#90759F"/>
<path d="M109.59 308.53L102.25 339.3L81.97 347.679L61.69 340.3L53.28 299.34L51.64 282.7L59.58 266.849L109.59 308.53Z" fill="#A687B9"/>
<path d="M102.25 339.3L95.7301 367.01L83.5601 373.3L67.6201 372.231L61.6901 340.3L102.25 339.3Z" fill="#785D87"/>
<path d="M95.73 367.01L104.63 387.79L86.2 389.79L67.13 387.79L67.62 372.231L95.73 367.01Z" fill="#95627B"/>
<path d="M161.92 358.799L187.32 382.73L157.84 384.73L136.91 382.73L136.43 369.579L161.92 358.799Z" fill="#95627B"/>
<path d="M67.13 387.79H104.63V394.33H67.13V387.79Z" fill="#532F42"/>
<path d="M136.91 382.73H187.32V389.27H136.91V382.73Z" fill="#532F42"/>
<path d="M142.38 165.68L152.57 196.16L149.59 224.43L130.78 237.54L130.634 231.061L129.75 191.75L142.38 165.68Z" fill="#B3879D"/>
<path d="M145.721 219.1L149.59 224.43L171.139 226.991L166.971 248.991L133.79 250.68L131.611 226.17L145.721 219.1Z" fill="#95627B"/>
<path d="M144.85 222.24L143.62 233.71L158.87 248.13L171.14 226.99L159.769 225.3L144.85 222.24Z" fill="#734D5F"/>
<path d="M156.54 212.519L150.94 206.491L171.43 179.931L176.51 184.69L168.19 198.959L164.82 209.3L156.54 212.519Z" fill="#C3977A"/>
<path d="M156.54 207.51L173.35 224.79L161.26 236.83L152.11 228.7L156.54 207.51Z" fill="#C3977A"/>
<path d="M152.57 196.16L147.07 196.35L144.85 222.24L152.11 228.7L156.54 212.519L152.57 196.16Z" fill="#DFBCA4"/>
<path d="M156.54 212.519L168.19 198.959L180.04 218.51L171.14 226.991L156.54 212.519Z" fill="#E8C9B6"/>
<path d="M110.21 41.49L120.97 29.85L133.22 27.55L151 125.18L118.84 133.36L80.5701 135.99L61.9701 69.63L58.2501 38.35L84.7601 35.15L110.21 41.49Z" fill="#DFBCA4"/>
<path d="M103.58 140.35L151 125.18C127.699 129.22 104.398 133.26 81.098 137.301C76.155 113.734 71.212 90.167 66.27 66.6L58.25 38.35L42.56 57.53L47.01 72.42L57.91 90.66L52.99 91.97L50.23 97.28L44.44 93.11L39.77 82.99L34.58 90.96L28.27 94.49L37.63 102.2L41.86 111.58L44.57 117.48L45.97 129.31L52.67 158.3L111.25 155.51L103.58 140.35Z" fill="#C3977A"/>
<path d="M138.39 55.93L142.99 21.97L125.59 24.79L138.39 55.93Z" fill="#464646"/>
<path d="M50.2301 97.28L52.6701 102.86L41.8601 111.58L28.2701 94.49L39.7701 82.99L50.2301 97.28Z" fill="#DFBCA4"/>
<path d="M110.21 41.49L142.99 21.97L108.12 0L105.41 22.75L110.21 41.49Z" fill="#6E7073"/>
<path d="M110.21 41.49L108.12 0L17.4601 34.17L37.0201 40.15L58.2501 38.35L110.21 41.49Z" fill="#8F8F8F"/>
<path d="M17.4601 34.17L13.9701 87.17L29.7901 73.82L42.5601 57.53L58.2501 38.35L17.4601 34.17Z" fill="#6E7073"/>
<path d="M42.5601 57.53L57.9101 90.66L50.2301 97.28L39.7701 82.99L28.2701 94.49L13.9701 87.17L42.5601 57.53Z" fill="#464646"/>
<path d="M34.54 95.19L38.73 91.01L43.96 99.72L34.54 95.19Z" fill="#8A6651"/>
<path d="M41.8601 111.58L49.5401 105.3L46.1001 129.86L41.8601 111.58Z" fill="#8A6651"/>
<path d="M68.4901 137.55L151 125.18L111.25 142.61V155.51L93.7581 148.163L68.4901 137.55Z" fill="#8A6651"/>
<path d="M130.78 111.07L109.64 112.48L93.1901 107.47L95.8901 100.93L86.8501 106.71L89.2001 118.04L92.3701 111.94L109.64 116.95L130.78 111.07Z" fill="#8A6651"/>
<path d="M116.83 55.09L113.69 62.76L113.22 70.72L117.24 80.47L134.97 51.6L126.6 42.19L116.83 55.09Z" fill="#C3977A"/>
<path d="M113.69 50.91L126.6 42.19L134.97 51.6L130.08 55.44L124.33 48.82L116.83 55.09L113.69 50.91Z" fill="#464646"/>
<path d="M74.6401 62.41L96.0501 73.53L108.47 95.19L106.98 75.04L103.58 64.16L74.6401 62.41Z" fill="#C3977A"/>
<path d="M103.58 64.16L76.3901 55.79L74.6401 62.41L98.7001 70.09L103.58 64.16Z" fill="#464646"/>
<path d="M113.69 62.76L119.62 92.4L114.89 95.6L108.47 95.19L103.58 64.16L113.69 62.76Z" fill="#E8C9B6"/>
<path d="M119.62 92.4L114.74 100.42L108.47 95.19L119.62 92.4Z" fill="#8A6651"/>
<path d="M112 156.375L52.812 157.125L50.25 162.875L112 156.375Z" fill="#C3987B"/>
<path d="M48.0649 160.87L49.4139 180.341L99.8599 204.86L111.517 155.698L52.6379 158.388L48.0649 160.87Z" fill="#FDFDFD"/>
<path d="M52.86 157.62L95.91 189.67L71.14 209.349L40.65 228.14L30.29 204.49L23.25 173.8L52.86 157.62Z" fill="#95627B"/>
<path d="M111.25 155.51L142.38 165.68L132.89 197.25L115.39 200.99L95.91 189.67L111.25 155.51Z" fill="#95627B"/>
<path d="M40.65 228.139L49.12 257.87L59.58 266.849L104.42 271.44L104.63 226.991L95.91 189.669L40.65 228.139Z" fill="#734D5F"/>
<path d="M95.91 189.669L132.89 197.249L137.49 265.959L104.42 271.44L95.91 189.669Z" fill="#532F42"/>
<path d="M33.9096 232.31L59.5793 266.85L43.6991 285.85L17.3193 263.071L33.9096 232.31Z" fill="#95627B"/>
<path d="M53.2789 299.34L43.6991 285.85L59.5792 266.85L53.2789 299.34Z" fill="#DFBCA4"/>
<path d="M23.25 173.8L0.289379 248.481L17.3193 263.07L40.6496 228.14L23.25 173.8Z" fill="#B3879D"/>
<path d="M129.82 65.86C129.82 68.196 127.926 70.09 125.59 70.09C123.254 70.09 121.36 68.196 121.36 65.86C121.36 63.524 123.254 61.63 125.59 61.63C127.924 61.636 129.815 63.526 129.82 65.86Z" fill="#2B2B2B"/>
<path d="M96.0501 73.53C96.0501 75.866 94.1561 77.76 91.8201 77.76C89.4841 77.76 87.5901 75.866 87.5901 73.53C87.5901 71.194 89.4841 69.3 91.8201 69.3C94.1561 69.3 96.0501 71.194 96.0501 73.53Z" fill="#2B2B2B"/>
</svg>
