<svg width="400" height="400" viewBox="0 0 400 400" fill="none" xmlns="http://www.w3.org/2000/svg">
<g clip-path="url(#clip0_248_2)">
<g opacity="0.1">
<path d="M363.18 380.28L322.64 363.91L147.741 359.679L36.201 383.94L136.07 400L363.18 380.28Z" fill="black"/>
</g>
<path d="M281.231 348.79L283.411 371.26L298.84 371.2L299.451 350.55L281.231 348.79Z" fill="#4F5252"/>
<path d="M175.49 348.79L177.68 371.26L193.1 371.2L197.13 350.55L175.49 348.79Z" fill="#4F5252"/>
<path d="M179.41 378.269L182.35 346.76L152.93 350.169L154.68 379.78L179.41 378.269Z" fill="#858585"/>
<path d="M321.79 379.78L322.64 350.74L295.4 346.759L295.92 379.78H321.79Z" fill="#858585"/>
<path d="M322.64 354.151L322.93 339.651L243.96 307.299L153.88 333.05L154.57 354.151H322.64Z" fill="#858585"/>
<path d="M314.97 339.65L159.75 334.809L245.84 315.61L314.97 339.65Z" fill="#C4C4C4"/>
<g opacity="0.1">
<path d="M247.72 331.92L155.47 359.99L160.98 349.231L204.781 333.76L247.72 331.92Z" fill="black"/>
</g>
<g opacity="0.1">
<path d="M247.72 323.93V331.92L322.58 352.691L322.93 339.651L247.72 323.93Z" fill="#2B2B2B"/>
</g>
<path d="M160.98 349.231L247.72 331.92L252.09 321.78L246.33 311.349L163.72 320.651L160.98 349.231Z" fill="#CECECD"/>
<path d="M245.84 315.61L163.72 320.651L168.84 281.049L192.81 287.06L242.28 299.519L246.33 308.27L245.84 315.61Z" fill="#9DA0A1"/>
<path d="M242.28 299.52L245.84 315.611L278.28 319.18L315.66 310.06L326.74 281.05L242.28 299.52Z" fill="#C4C4C4"/>
<path d="M245.84 315.61L247.72 331.92L345.27 342.559L315.66 310.059L245.84 315.61Z" fill="#EBEBEB"/>
<g opacity="0.1">
<path d="M315.66 310.064L302.5 319.835L282.94 312.746L315.66 310.064Z" fill="black"/>
</g>
<g opacity="0.1">
<path d="M273.69 319.183L258.73 326.793L246.33 319.731L273.69 319.183Z" fill="black"/>
</g>
<g opacity="0.1">
<path d="M235.35 309.594L220.289 314.764L203.249 301.989L235.35 309.594Z" fill="black"/>
</g>
<path d="M298.21 280.849L278.305 291.724L299.92 302.451L298.21 280.849Z" fill="#90759F"/>
<path d="M258.731 287.809L242.281 299.376L260.441 309.411L258.731 287.809Z" fill="#90759F"/>
<path d="M220.55 275.78L202.241 289.593L222.26 297.38L220.55 275.78Z" fill="#90759F"/>
<path d="M298.21 280.85H302.5V315.71H298.21V280.85Z" fill="#785D87"/>
<path d="M258.73 287.81H263.02V322.67H258.73V287.81Z" fill="#785D87"/>
<path d="M220.55 275.78H224.84V310.64H220.55V275.78Z" fill="#785D87"/>
<path d="M200.371 185.5L218.609 239.392L191.69 266.03L150.391 187.025L180.88 171.96L200.371 185.5Z" fill="#734D5F"/>
<path d="M201.02 209.49L191.77 266.28L230.311 250.95L218.86 211.32L211.379 206.08L201.02 209.49Z" fill="#95627B"/>
<path d="M148.875 335.125L136.637 341.414L119.125 336.375L121.75 361.75L132.122 365.21L142.75 361.375L148.875 335.125Z" fill="#543042"/>
<path d="M192.81 287.06L136.07 309.371V341.59L150.08 348.481L169.84 331.92L192.81 287.06Z" fill="#734D5F"/>
<path d="M169.84 331.92L136.07 341.59L132.05 365.05H144.51L155.47 359.99L169.84 331.92Z" fill="#532F42"/>
<path d="M136.07 341.59L140.65 314.87L121.75 297.941L83.64 281.05L94.55 336.25L116.35 350.17L136.07 341.59Z" fill="#95627B"/>
<path d="M192.81 287.06L140.65 314.871L83.64 281.05L144.51 281.019L192.81 287.06Z" fill="#532F42"/>
<path d="M94.55 336.25L136.07 341.59L132.05 365.05L116.35 369.13L100.81 367.93L94.55 336.25Z" fill="#734D5F"/>
<path d="M131.13 378.269L150.95 380.059L179.41 378.269L155.47 359.99L132.05 365.049L131.13 378.269Z" fill="#785D87"/>
<path d="M131.13 378.27H179.41V385.072H131.13V378.27Z" fill="#584164"/>
<path d="M132.05 365.05L141.24 385.08L119.53 387.16L97.83 385.08L100.81 367.93L132.05 365.05Z" fill="#90759F"/>
<path d="M97.83 385.08H141.24V391.88H97.83V385.08Z" fill="#584164"/>
<path d="M130.5 154L89 175.5L109.5 235L152 179L130.5 154Z" fill="#B3889D"/>
<path d="M84.65 258.35L85.99 249.083L94.97 186.96L71.96 173.55L52.8 225.02L84.65 258.35Z" fill="#734D5F"/>
<path d="M52.8 225.02L87.58 223.96L91.03 244.661L84.28 266.71L52.8 225.02Z" fill="#532F42"/>
<path d="M143.68 195.7L163.12 167.66L185.69 174.85L191.69 266.03L136.06 272.37L84.28 266.71L90.61 188.43L102.53 178.98L108.29 163.02L143.68 195.7Z" fill="#95627B"/>
<path d="M166.1 236.65L172.22 266.15L110.26 266.54L115.69 244.66L127.9 210.37L143.68 195.7L157.36 210.37L166.1 236.65Z" fill="#734D5F"/>
<path d="M143.68 195.7L166.1 236.65L164.9 171.56L143.68 195.7Z" fill="#B3879D"/>
<path d="M146.07 219.95L150.08 227.29L142.73 232.3L137.39 224.62L146.07 219.95Z" fill="#B3879D"/>
<path d="M145.74 242.65L138.4 247.32L144.07 254.67L150.41 249.99L145.74 242.65Z" fill="#B3879D"/>
<path d="M84.28 266.71L129.26 266.42L144.4 270.22L159.75 266.231L191.69 266.03L192.81 287.06L158.71 285.18L147.31 282.93L129.37 283.57L83.64 281.05L84.28 266.71Z" fill="#584164"/>
<path d="M159.75 266.23L129.26 266.419L129.37 283.57L158.71 285.179L159.71 266.23H159.75ZM152.08 279.049H135.72L136.06 272.369L152.42 271.699L152.08 279.049Z" fill="#B3879D"/>
<g opacity="0.1">
<path d="M143.68 195.7L186.86 175.21L164.9 171.56L143.68 195.7Z" fill="black"/>
</g>
<path d="M165.27 185.451L200.94 187.341L197.56 175.881L164.9 171.561L165.27 185.451Z" fill="#584164"/>
<path d="M123.69 177.24L81.31 191.58L71.96 173.55L88.338 168.744L111.7 161.89L123.69 177.24Z" fill="#584164"/>
<path d="M111.7 161.89L115.69 244.66L143.68 195.7L140.232 192.055L112.791 163.044L111.7 161.89Z" fill="#B3879D"/>
<path d="M97.1998 113.43L108.19 110.48L125.99 123.97L114.68 134.62L85.6799 137.47L97.1998 113.43Z" fill="#584164"/>
<path d="M235.35 72.5699L229.861 98.6999L204.911 178.68L164.9 171.56L143.681 195.7L119.33 155.75L129.86 112.43L136.931 109.46L140.991 88.9701L139.5 58.1002L174.15 40.5901L206.941 59.55L213.77 41.87L235.35 72.5699Z" fill="#DFBCA4"/>
<path d="M140.76 58.6001L160.72 96.6801L156.09 173.23L143.68 195.7L111.7 161.89L114.68 134.62L117.35 128.75L117.32 122.89L105.84 121.35L106.02 94.4802L123.4 94.4102L129.86 109.92L135.43 110.46L139.99 89.2202L140.76 58.6001Z" fill="#C3977A"/>
<path d="M110.72 100.16L119.49 100.41L121.62 117.73L110.72 100.16Z" fill="#8A6651"/>
<path d="M164.9 171.56L136.72 166.52L143.68 195.7L164.9 171.56Z" fill="#8A6651"/>
<path d="M117.32 122.89L124.88 123.97L114.68 134.62L117.32 122.89Z" fill="#8A6651"/>
<path d="M233.339 72.3199L240.199 61.1699L254.699 51.5799L229.86 98.6999L233.339 72.3199Z" fill="#A687B9"/>
<path d="M140.76 58.6001L120.48 46.7102L87.4296 36.5603L93.6497 85.4603L121.81 89.5502L145 89.2201L140.76 58.6001Z" fill="#90759F"/>
<path d="M233.34 72.3199L213.88 48.39L202.22 37.42L190.28 19.37L254.7 51.5799L233.34 72.3199Z" fill="#785D87"/>
<path d="M140.76 58.6001L176.15 45.8501L155.78 28.5701L129.22 18.2202L87.4296 36.5603L140.76 58.6001Z" fill="#785D87"/>
<path d="M151.541 0.000120873L129.221 18.2212L176.151 45.8511L209.442 65.07L213.879 48.39L190.28 19.371L151.541 0.000120873Z" fill="#90759F"/>
<path d="M145 89.2201L93.6497 85.4603L97.1998 113.43L105.84 121.35L107.15 95.6102L123.4 96.6802L127.59 113.94L137.43 112.47L145 89.2201Z" fill="#785D87"/>
<path d="M219.28 107.22L160.72 96.6801L176.15 112.75L184.19 139.76L219.28 107.22Z" fill="#C3977A"/>
<path d="M157.36 152.25L186.089 161.9L206.69 159.69L187.349 149.6L157.36 152.25Z" fill="#8A6651"/>
<path d="M157.36 152.25L184.189 139.76L196.089 142.01L206.69 159.69L157.36 152.25Z" fill="#785D87"/>
<path d="M192.81 102.46L184.19 139.76L196.09 142.01L202.19 104.15L192.81 102.46Z" fill="#E8C9B6"/>
<path d="M160.721 96.6799L219.281 107.22L221.14 99.6401L164.631 92.8199L160.721 96.6799Z" fill="#785D87"/>
<path d="M196.09 141.95L189.05 145.55L184.19 139.76L196.09 141.95Z" fill="#584164"/>
<path d="M208.67 115.51C211.205 115.51 213.26 117.565 213.26 120.1C213.26 122.635 211.205 124.69 208.67 124.69C206.135 124.69 204.08 122.635 204.08 120.1C204.08 117.565 206.135 115.51 208.67 115.51Z" fill="#2B2B2B"/>
<path d="M176.34 109.3C178.875 109.3 180.93 111.355 180.93 113.89C180.93 116.425 178.875 118.48 176.34 118.48C173.805 118.48 171.75 116.425 171.75 113.89C171.75 111.355 173.805 109.3 176.34 109.3Z" fill="#2B2B2B"/>
<path d="M205.734 197.777L216.593 193.942L207.98 175.11L200.57 174.681L196.058 181.269L205.734 197.777Z" fill="#C3987B"/>
<path d="M194.09 201.7L200.94 209.24L207.5 210.12L214.31 188.54L194.21 191.58L194.09 201.7Z" fill="#8A6651"/>
<path d="M230.911 187.029L218.781 211.071L200.941 209.24L214.31 188.539L218.781 183.629L230.911 187.029Z" fill="#C3977A"/>
<path d="M191.69 176.33L208.07 168.55L230.91 187.03L214.31 188.54L200.37 185.5L191.69 176.33Z" fill="#E8C9B6"/>
<path d="M214.31 188.54L200.94 195.93L186.46 186.57L191.69 176.33L214.31 188.54Z" fill="#DFBCA4"/>
</g>
<defs>
<clipPath id="clip0_248_2">
<rect width="400" height="400" fill="white"/>
</clipPath>
</defs>
</svg>
