<svg width="263" height="400" viewBox="0 0 263 400" fill="none" xmlns="http://www.w3.org/2000/svg">
<path d="M83.08 350.39L197.11 351.401L199.309 322.691L103.14 319.481L83.08 350.39Z" fill="#8F8F8F"/>
<path d="M160.5 143.41L196.23 118.95L228.87 124.54L189 176.02L160.5 143.41Z" fill="#C4C4C4"/>
<path d="M228.87 124.54L232.3 79.4L219.69 70.21L196.23 118.95L228.87 124.54Z" fill="#9DA0A1"/>
<path d="M216.991 39.88L206.571 12.45L196.331 15.27L201.551 42.92L190.81 81.84L199.671 89.17L220.62 83.4L241.56 77.63L245.421 66.79L216.991 39.88Z" fill="#EBEBEB"/>
<path d="M241.691 67.69L226.309 53.14L199.95 60.83L194.469 80.69L200.429 85.63L239.089 74.97L241.691 67.69Z" fill="#785D87"/>
<path d="M201.312 79.667L203.03 75.966L206.73 77.683L205.013 81.384L201.312 79.667Z" fill="#A687B9"/>
<path d="M201.292 72.806L202.034 71.21L203.63 71.952L202.888 73.548L201.292 72.806Z" fill="#A687B9"/>
<path d="M207.998 77.552L208.74 75.956L210.336 76.698L209.594 78.294L207.998 77.552Z" fill="#A687B9"/>
<path d="M207.99 72.383L208.731 70.787L210.328 71.529L209.586 73.125L207.99 72.383Z" fill="#A687B9"/>
<path d="M214.769 42.26L221.36 27.01L236.12 49.38L234.549 56.5L226.29 53.24L214.769 42.26Z" fill="#DFBCA4"/>
<path d="M204.69 39.7L215.5 56.3L226.29 53.24L221.36 27.01L204.69 39.7Z" fill="#C3977A"/>
<g opacity="0.1">
<path d="M47.88 392.31L160.5 400L262.92 388.35L162.66 378.71L47.88 392.31Z" fill="#2B2B2B"/>
</g>
<path d="M122.59 393.37L128.16 384.309L122.18 369.13L116.94 376.89L118.75 393.37H122.59Z" fill="#584164"/>
<path d="M136.21 368.03L137.64 330.36H109.22L122.18 369.13L131.91 377.87L136.21 368.03Z" fill="#C3977A"/>
<path d="M136.41 362.73L118.78 358.969L120.91 365.33L136.41 362.73Z" fill="#8A6651"/>
<path d="M122.18 369.13L136.21 368.03L149.71 393.37H122.59L122.18 369.13Z" fill="#785D87"/>
<path d="M171.64 261.93L229.78 320.88L185.17 235.56L175.161 242.6L171.64 261.93Z" fill="#EBEBEB"/>
<path d="M175.16 258.21L229.78 320.88L197.11 351.4L180.22 304.81L175.16 258.21Z" fill="#C4C4C4"/>
<path d="M154.74 192.42L175.16 258.21L185.17 235.56L188.54 183.18L154.74 192.42Z" fill="#8F8F8F"/>
<path d="M139.434 150.152L160.5 196.95L188.54 183.18L189 176.02L160.5 143.41L139.434 150.152Z" fill="#DDDDDC"/>
<path d="M144.754 153.708C144.754 153.708 125.467 175.356 120.46 180.029C125.91 188.658 131.361 197.287 136.812 205.916C144.792 203.255 152.774 200.595 160.754 197.935C158.021 187.412 144.754 153.708 144.754 153.708Z" fill="#584164"/>
<path d="M139.535 150.286L155.235 184.745L134.259 165.51L139.535 150.286Z" fill="#90759F"/>
<path d="M165.38 217.35L160.51 196.98L136.41 205.05L140.3 253.911L140.57 254.21L175.16 258.21L165.38 217.35Z" fill="#584164"/>
<path d="M139.45 150.23L160.57 196.97L166.55 193.762L177.28 162.61L139.45 150.23Z" fill="#EBEBEB"/>
<path d="M191.89 385.39L195.01 373.411L190.8 365.56L185.77 361.04L183 370.361L187.39 385.39H191.89Z" fill="#584164"/>
<path d="M198.62 358.03L192.099 330.36H165.25L185.769 361.04L195.57 372.92L198.62 358.03Z" fill="#C3977A"/>
<path d="M192.1 330.36L171.64 324.92L165.25 330.36L170.621 338.38L192.1 330.36Z" fill="#8A6651"/>
<path d="M185.77 361.04L198.621 358.03L226.72 385.39H200.281L185.77 361.04Z" fill="#785D87"/>
<path d="M109.221 250.589L152.531 247.519L172.971 265.75L192.099 330.361L99.5669 330.063L109.221 250.589Z" fill="#785D87"/>
<path d="M140.29 254.18L192.1 330.1L175.16 258.21L158.36 252.72L140.29 254.18Z" fill="#90759F"/>
<path d="M35.53 193.71L3.69995 171.53L33.42 162.61L44.59 166.68L35.53 193.71Z" fill="#95627B"/>
<path d="M85.48 139.66L35.53 193.71L30.97 120.44L85.48 139.66Z" fill="#532F42"/>
<path d="M45.2 43.07L30.97 79.25L0.829956 119.3L10.85 51.96L45.2 43.07Z" fill="#B3879D"/>
<path d="M45.2 43.07L0.829956 119.3L43.16 106.3L45.2 43.07Z" fill="#95627B"/>
<path d="M0.829956 119.3L30.97 103.83L53.71 111.88L74.73 124.35L85.48 139.66L0.829956 119.3Z" fill="#734D5F"/>
<path d="M30.97 103.83L71.67 125.37L54.33 98.4L30.97 103.83Z" fill="#532F42"/>
<path d="M143.21 22.36L150.44 27.48L180.22 110.37L147.5 124.67L134.479 165.723L103.14 148.25L63.15 100.2L51.63 33.5L118.42 3.24L143.21 22.36Z" fill="#DFBCA4"/>
<path d="M135.308 165.512L138.655 154.702L122.41 139.83L89.19 56.34L77.03 45.97L51.63 104.63L71.67 125.37L77.19 128.4L85.48 139.66L103.14 157.94L117.2 165.45L135.308 165.512Z" fill="#C3977A"/>
<path d="M109.22 141.48L138.03 154.64L138.658 154.8L147.5 124.67L109.22 141.48Z" fill="#8A6651"/>
<path d="M77.0299 45.97L113.36 33.01L124.89 20.23L118.97 0L47.8799 31.66L60.4899 50.57L77.0299 45.97Z" fill="#B3879D"/>
<path d="M71.6699 125.37L77.5899 117.14L85.4799 139.66L71.6699 125.37Z" fill="#8A6651"/>
<path d="M71.6699 125.37L81.2299 112.06L59.1699 87.23L51.6299 104.63L71.6699 125.37Z" fill="#DFBCA4"/>
<path d="M61.57 96.44L70.22 107.02L55.98 104.31L61.57 96.44Z" fill="#8A6651"/>
<path d="M86.67 117.53L82.33 121.89L73.1 112.64L77.67 108.05L86.67 117.53Z" fill="white"/>
<path d="M118.97 0L113.36 33.01L143.21 22.36L118.97 0Z" fill="#95627B"/>
<path d="M59.17 87.23L77.67 108.05L85.44 96.58L65.81 71.88L77.03 45.97L47.88 31.66L30.97 103.83L45.19 104.38L51.63 104.63L59.17 87.23Z" fill="#734D5F"/>
<path d="M103.14 157.94L127.36 188.83C131.249 194.377 135.139 199.924 139.028 205.472C139.448 221.708 139.869 237.943 140.29 254.18C129.967 253.019 119.644 251.858 109.321 250.697C99.074 227.944 88.827 205.192 78.58 182.44L103.14 157.94Z" fill="#DDDDDC"/>
<path d="M103.14 157.94L97.6 188.1L127.36 188.83L118.88 174.36L103.14 157.94Z" fill="#EBEBEB"/>
<path d="M165.38 217.35L160.51 196.98L136.41 205.05L140.3 253.911L140.57 254.21L175.16 258.21L165.38 217.35Z" fill="#584164"/>
<path d="M110.89 183.77L107.76 198.43L133.02 210.66L142.01 206.17L126.362 187.401L110.89 183.77Z" fill="#EBEBEB"/>
<path d="M103.14 157.94L127.36 188.83L133.02 210.66L140.29 254.18L136.41 362.731L78.58 350.39L115.92 247.52L78.58 182.44L103.14 157.94Z" fill="#DDDDDC"/>
<path d="M140.29 254.18L78.58 350.39L109.22 250.59L125.83 247.52L140.29 254.18Z" fill="#C4C4C4"/>
<path d="M142.01 206.2L117.2 210.661L98.9199 227.661L109.22 250.59L140.29 254.18L142.01 206.2Z" fill="#8F8F8F"/>
<path d="M103.14 157.94L97.6 188.1L127.36 188.83L118.88 174.36L103.14 157.94Z" fill="#EBEBEB"/>
<path d="M134.62 165.45L128.36 176.02L120.46 180.03L103.14 157.94L134.62 165.45Z" fill="#90759F"/>
<path d="M134.66 165.46L134.62 165.45L120.46 180.03L127.36 188.83L137.11 180.56L134.66 165.46Z" fill="#584164"/>
<path d="M98.621 183.718L95.491 198.378L120.751 210.608L140.772 205.54L125.786 186.79L98.621 183.718Z" fill="#EBEBEB"/>
<path d="M150.981 85.76L147.59 92.39L139.361 89.97L150.981 85.76Z" fill="#8A6651"/>
<path d="M98.4199 60.59L104.49 59.47L108.48 54.5H117.2L105.53 51.74L98.4199 60.59Z" fill="#734D5F"/>
<path d="M137.06 48.83L141.731 47.27L144.85 39.91H151.59L142.56 37.31L137.06 48.83Z" fill="#734D5F"/>
<path d="M121.71 108.66L133.73 105.44L144.33 108.66L138.03 101.82L134 103.02L131.85 101.01L121.71 108.66Z" fill="#584164"/>
<path d="M122.35 108.49L128.9 110.8L140.57 107.52L133.73 105.44L122.35 108.49Z" fill="#90759F"/>
<path d="M160.14 70.96L148.37 79.25L145.04 73.68L160.14 70.96Z" fill="#C3977A"/>
<path d="M107.81 89.97L137.44 85.16L137.29 76.9L107.81 89.97Z" fill="#C3977A"/>
<path d="M100.9 70.93L125.83 70.73L122.76 62.99L100.9 70.93Z" fill="#C3977A"/>
<path d="M154.36 51.54L147.5 62.5L144.33 55.09L154.36 51.54Z" fill="#C3977A"/>
<path d="M150.98 85.76L139.36 89.97L125.83 56.16L137.44 51.96L150.98 85.76Z" fill="#E8C9B6"/>
<path d="M59.1699 87.23L55.1799 96.44L51.6299 84.51L93.8399 67.79L98.4199 79.1L59.1699 87.23Z" fill="#584164"/>
<path d="M147.071 75.72L176.241 65.11L166.821 41.32L93.8199 67.79L103.45 91.55L135.25 80L127.81 61.22L139.441 56.94L147.071 75.72ZM106.491 84.72L100.9 70.93L122.76 63L128.23 76.81L106.491 84.72ZM169.22 62L150.1 68.9L144.5 55.1L163.75 48.1L169.22 62Z" fill="#584164"/>
<path d="M119.97 69.86C121.776 69.86 123.24 71.324 123.24 73.13C123.24 74.936 121.776 76.4 119.97 76.4C118.164 76.4 116.7 74.936 116.7 73.13C116.7 71.324 118.164 69.86 119.97 69.86Z" fill="#2B2B2B"/>
<path d="M155.96 56.54C157.766 56.54 159.231 58.004 159.231 59.81C159.231 61.616 157.766 63.08 155.96 63.08C154.154 63.08 152.69 61.616 152.69 59.81C152.69 58.004 154.154 56.54 155.96 56.54Z" fill="#2B2B2B"/>
<path d="M78.58 182.44L98.91 227.66L166.57 193.97L147.5 188.18L127.36 188.83L78.58 182.44Z" fill="#9DA0A1"/>
<path d="M166.56 193.97L160.5 143.41L153.191 134.72H144.331L127.36 188.83L166.56 193.97Z" fill="#C4C4C4"/>
<path d="M144.33 134.72L152.18 108.91L166.19 114.97L172.97 126.41L160.5 143.41L144.33 134.72Z" fill="#C3977A"/>
<path d="M152.18 108.91L170.83 103.29L180.22 110.37L168.75 114.6L152.18 108.91Z" fill="#C3977A"/>
<path d="M152.18 108.91L180.22 110.37L182.01 123.17L172.97 126.41L152.18 108.91Z" fill="#DFBCA4"/>
</svg>
