<svg width="373" height="115" viewBox="0 0 373 115" fill="none" xmlns="http://www.w3.org/2000/svg">
<g opacity="0.05">
<path d="M234.836 21.5846L231.857 22.6698L238.503 24.375L244.211 30.3113L252.625 29.8114L258.913 32.5424L271.413 26.3007L234.836 21.5846Z" fill="#383838"/>
</g>
<path d="M237.894 15.7778L244.05 18.2325L245.27 15.0174L237.894 15.7778Z" fill="#E3E3E2"/>
<path d="M234.505 22.742L240.996 24.375L244.05 18.2326L237.812 15.7993L234.505 22.742Z" fill="#A0A0A0"/>
<path d="M258.363 10.6715L253.379 17.1666L246.427 11.6359L258.363 10.6715Z" fill="#EEEFEE"/>
<path d="M246.427 11.6359L240.996 24.3752L246.479 29.5818L251.657 28.4134L255.823 17.1451L253.211 14.9287L246.427 11.6359Z" fill="#B1B1B2"/>
<path d="M261.429 15.7778L255.823 17.1451L261.247 19.8739L268.041 17.1451L261.429 15.7778Z" fill="#EEEFEE"/>
<path d="M259.704 30.9161L261.429 18.5699L255.823 17.1451L251.657 28.4134L259.704 30.9161Z" fill="#A0A0A0"/>
<path d="M268.041 17.145L271.413 26.3008L259.704 30.9163L261.429 18.5699L268.041 17.145Z" fill="#D7D7D6"/>
<path d="M258.363 10.6715L261.429 15.7778L255.823 17.1451L253.212 14.9285L258.363 10.6715Z" fill="#D7D7D6"/>
<path d="M253.212 14.9285L246.479 29.5818L253.212 28.8968L255.823 17.1451L253.212 14.9285Z" fill="#CECECE"/>
<g opacity="0.05">
<path d="M206.947 43.5573L210.413 44.5221L214.518 43.0993L210.481 42.5933L206.947 43.5573Z" fill="#383838"/>
</g>
<path d="M207.977 36.9735L210.852 36.41L212.721 38.1311L207.977 39.144V36.9735Z" fill="#EFEFEE"/>
<path d="M206.105 35.4546L212.865 32.9672L210.852 36.4102L207.977 36.9737L206.105 35.4546Z" fill="#E2F28E"/>
<path d="M213.691 33.8627L216.998 38.1313H212.721L210.852 36.4102L213.691 33.8627Z" fill="#D5E76C"/>
<path d="M207.977 36.9735L204.092 37.2685L205.534 40.374L207.977 39.1442V36.9735Z" fill="#D5E76C"/>
<path d="M207.474 40.374L215.344 39.4697L212.721 38.1313L207.977 39.1442L207.474 40.374Z" fill="#E2F28E"/>
<path d="M211.827 39.8737L210.349 43.5574H209.666L210.495 40.027L211.827 39.8737Z" fill="#79AB67"/>
<path d="M210.349 43.5573L207.977 41.17L208.556 43.5573H210.349Z" fill="#7F9D6B"/>
<path d="M209.797 43.0015L212.865 41.1698L211.827 43.5574H210.349L209.797 43.0015Z" fill="#65874F"/>
<g opacity="0.1">
<path d="M210.413 40.374H211.627L211.827 39.8738L210.495 40.0271L210.413 40.374Z" fill="#383838"/>
</g>
<g opacity="0.05">
<path d="M198.063 30.1336L202.143 30.8592L206.221 29.7869L202.188 29.4988L198.063 30.1336Z" fill="#383838"/>
</g>
<path d="M203.533 27.9521L202.057 30.0472H201.374L202.202 28.0392L203.533 27.9521Z" fill="#79AB67"/>
<path d="M202.057 30.0473L199.687 28.6892L200.265 30.0473H202.057Z" fill="#7F9D6B"/>
<path d="M201.505 29.7311L204.569 28.6892L203.533 30.0473H202.057L201.505 29.7311Z" fill="#65874F"/>
<g opacity="0.1">
<path d="M202.12 28.2364H203.333L203.533 27.9521L202.202 28.039L202.12 28.2364Z" fill="#383838"/>
</g>
<path d="M200.482 26.3021L202.495 25.9819L203.803 26.9607L200.482 27.5369V26.3021Z" fill="#EFEFEE"/>
<path d="M199.687 24.474L203.037 23.8953L202.495 25.9819L200.482 26.3021L199.687 24.474Z" fill="#D5E76C"/>
<path d="M203.864 25.0989L206.221 25.2893L203.803 26.9608L202.495 25.9819L203.864 25.0989Z" fill="#E2F28E"/>
<path d="M200.482 26.3022L198.217 25.9818L198.771 28.2365L200.482 27.5369V26.3022Z" fill="#E2F28E"/>
<path d="M200.482 28.3449L205.874 27.5067L203.803 26.9607L200.482 27.537V28.3449Z" fill="#D5E76C"/>
<g opacity="0.05">
<path d="M0.0340576 69.4073L15.7778 60.3511L32.0528 65.6634L16.0434 65.3608L0.0340576 69.4073Z" fill="#383838"/>
</g>
<path d="M16.8513 64.9076H13.9783V46.6094H16.8513V64.9076Z" fill="#1F878A"/>
<g opacity="0.2">
<path d="M16.8512 55.3409L13.9783 52.6981V47.3866H16.8512V55.3409Z" fill="black"/>
</g>
<path d="M7.34082 47.9474L21.3302 51.6726L31.5228 46.976L34.1634 40.7853L33.5071 29.769L18.0485 35.0818L9.42111 40.2727L7.34082 47.9474Z" fill="#3B8970"/>
<path d="M17.2419 29.328L4.17003 22.8452L0 31.3391L18.0998 36.381L33.5069 29.769L28.0031 22.5565L17.2419 29.328Z" fill="#5BBB9C"/>
<path d="M27.5454 18.2553L17.2419 29.3283L4.17004 22.8452L10.2116 15.1231L21.3301 10.1642L27.5454 18.2553Z" fill="#5BBB9C"/>
<path d="M17.2418 29.3281L27.5454 18.2553L28.003 22.5567L17.2418 29.3281Z" fill="#459E82"/>
<path d="M21.3303 10.1642L14.0316 21.948L10.2117 15.1231L21.3303 10.1642Z" fill="#7CD0B4"/>
<path d="M3.21543 38.9943L7.3406 47.9476L18.0997 36.381L0 31.3391L3.21543 38.9943Z" fill="#459E82"/>
<g opacity="0.1">
<path d="M21.3301 10.1644L14.0314 21.9482L15.2902 28.3602L18.0997 36.381L3.21558 38.9944L7.34075 47.9476L21.3301 51.6728L33.507 29.7692L28.0031 22.5568L27.5454 18.2554L21.3301 10.1644Z" fill="black"/>
</g>
<g opacity="0.1">
<path d="M34.1636 40.7851L21.3303 51.6726L31.5228 46.9759L34.1636 40.7851Z" fill="black"/>
</g>
<g opacity="0.05">
<path d="M0.0340576 69.4073L30.5023 62.0506L44.015 69.9958L32.5162 72.9387L6.14079 74.1157L0.0340576 69.4073Z" fill="#383838"/>
</g>
<path d="M29.1527 70.3882L32.271 69.5055L35.9253 67.8869L36.6562 63.0806L34.2931 60.0151L28.9335 62.4184L29.1527 70.3882Z" fill="#959797"/>
<path d="M19.3264 60.0151L18.2064 59.0098L16.8744 57.8613L14.9084 67.614L20.0578 70.3228L23.3181 64.2085L19.3264 60.0151Z" fill="#A0A0A0"/>
<path d="M19.8302 60.5138L19.7604 61.4948L20.0576 70.3229L29.1525 70.3884L29.51 62.9335L19.8302 60.5138Z" fill="#B1B1B2"/>
<path d="M20.7413 57.3178L16.8743 57.8613L19.7605 61.4947L29.51 62.9334L34.293 60.0151L20.7413 57.3178Z" fill="#D7D7D6"/>
<path d="M11.2565 67.6907L6.33543 64.2086L5.84827 70.7806L9.69736 72.8405L11.2565 67.6907Z" fill="#A0A0A0"/>
<path d="M8.6742 64.9443L7.50476 66.2685L9.6974 72.8404L15.7879 72.6443L18.1265 65.0914L8.6742 64.9443Z" fill="#B1B1B2"/>
<path d="M6.33557 64.2085L12.6695 63.5219L18.1266 65.0913L7.50487 66.4647L6.33557 64.2085Z" fill="#D7D7D6"/>
<g opacity="0.05">
<path d="M303.503 63.9031L314.153 61.1035L325.449 64.7517L314.259 68.4798L303.503 63.9031Z" fill="#383838"/>
</g>
<path d="M312.118 50.0598H316.967V64.9088H312.118V50.0598Z" fill="#585858"/>
<g opacity="0.1">
<path d="M312.116 54.3115L316.965 57.0709L316.957 45.7272L312.116 45.7262V54.3115Z" fill="black"/>
</g>
<path d="M300.392 48.7449L317.083 53.6004L323.47 47.4689L331.735 48.9899L323.525 32.7526L308.017 32.6545L300.392 48.7449Z" fill="#79AB67"/>
<path d="M317.083 53.6004L331.735 48.99L324.324 34.4205L316.913 34.3223L317.083 53.6004Z" fill="#4D7333"/>
<g opacity="0.1">
<path d="M326.832 39.3264L325.349 36.4313L306.022 36.0881L304.94 37.9035L316.968 44.3778L326.832 39.3264Z" fill="black"/>
</g>
<path d="M300.037 36.9213L313.891 41.7295L320.105 35.2048L332.136 37.7565L322.101 24.2162L308.53 23.7752L300.037 36.9213Z" fill="#9ECB82"/>
<path d="M313.891 41.7297L332.136 37.7565L323.982 26.719L316.456 27.3071L313.891 41.7297Z" fill="#79AB67"/>
<g opacity="0.1">
<path d="M315.088 34.4695L315.202 34.5187L324.893 27.9934L323.982 26.719L323.965 26.7203L323.356 25.8842L307.904 24.7572L306.251 27.3071L315.095 34.4323L315.088 34.4695Z" fill="black"/>
</g>
<path d="M309.273 15.1408L302.602 26.276L313.15 29.2202L321.246 24.1669L329.74 27.5033L320.618 15.8776L309.273 15.1408Z" fill="#79AB67"/>
<path d="M313.15 29.2204L329.74 27.5033L322.67 18.4771L316.57 18.9181L313.15 29.2204Z" fill="#65874F"/>
<g opacity="0.1">
<path d="M314.688 24.6589L314.804 24.7082L323.297 19.3119L321.987 18.526L321.976 18.5269L320.903 17.8889L308.131 16.9561L307.049 18.8202L314.698 24.6278L314.688 24.6589Z" fill="black"/>
</g>
<path d="M311.041 10.0894L303.798 18.085L314.232 21.0288L319.763 16.711L326.149 18.1338L319.306 9.40182L311.041 10.0894Z" fill="#9ECB82"/>
<path d="M314.232 21.0287L326.149 18.1338L320.846 11.4127L319.191 11.5597L316.455 11.6577L314.232 21.0287Z" fill="#79AB67"/>
<g opacity="0.1">
<path d="M321.873 12.7376L320.846 11.4127L320.836 11.4134L319.991 10.3345L315.943 9.69566L311.04 10.0892L309.956 11.3145L315.658 15.6326L321.873 12.7376Z" fill="black"/>
</g>
<path d="M316.513 0.867096L307.904 10.1385L316.455 13.8668L320.219 9.3037L323.525 10.8247L316.513 0.867096Z" fill="#A5D692"/>
<path d="M316.513 0.867096L316.455 13.8668L323.525 10.8247L316.513 0.867096Z" fill="#79AB67"/>
<g opacity="0.05">
<path d="M190.125 71.5185L195.436 73.456L199.421 71.2627L193.669 70.4201L190.125 71.5185Z" fill="#383838"/>
</g>
<path d="M192.631 71.6639L186.339 64.3922L195.436 71.875L192.631 71.6639Z" fill="#7CD0B4"/>
<path d="M195.436 71.875L191.899 63.0921L192.556 69.5057L195.436 71.875Z" fill="#5BBB9C"/>
<path d="M194.482 69.5056L198.176 65.9522L195.436 71.875L194.482 69.5056Z" fill="#7CD0B4"/>
<path d="M247.501 57.3762L244.594 56.4173L247.988 58.6679L247.501 57.3762Z" fill="#5BBB9C"/>
<g opacity="0.05">
<path d="M245.823 58.6679L249.682 57.7411L253.879 58.6679L249.257 60.534L245.823 58.6679Z" fill="#383838"/>
</g>
<path d="M247.988 58.668L246.038 53.5015L249.956 58.668H247.988Z" fill="#7CD0B4"/>
<path d="M248.634 56.9249L251.665 53.0304L249.956 58.668L248.634 56.9249Z" fill="#5BBB9C"/>
<path d="M250.464 56.9918L254.26 56.0846L251.081 58.5295L249.956 58.6679L250.464 56.9918Z" fill="#7CD0B4"/>
<path d="M9.14177 95.0044L12.0317 94.0523L8.6571 96.2889L9.14177 95.0044Z" fill="#5BBB9C"/>
<g opacity="0.05">
<path d="M10.8081 96.2891L6.97387 95.0016L2.80078 96.2891L7.39465 98.2125L10.8081 96.2891Z" fill="#383838"/>
</g>
<path d="M8.65691 96.2889L10.5956 91.1531L6.7016 96.2889H8.65691Z" fill="#7CD0B4"/>
<path d="M8.0154 94.5557L5.00189 90.6851L6.70168 96.2889L8.0154 94.5557Z" fill="#5BBB9C"/>
<path d="M6.19635 94.6228L2.42322 93.7212L5.58393 96.1507L6.70185 96.2891L6.19635 94.6228Z" fill="#7CD0B4"/>
<g opacity="0.05">
<path d="M78.9412 75.2426L82.5172 74.2388L86.0735 75.4299L81.9561 76.1764L78.9412 75.2426Z" fill="#383838"/>
</g>
<path d="M83.2018 75.2426L81.6158 68.6153V75.4006L83.2018 75.2426Z" fill="#5BBB9C"/>
<path d="M81.616 75.4006L84.2948 69.974L83.2019 75.4299L81.616 75.4006Z" fill="#7CD0B4"/>
<path d="M83.2018 75.43L85.7001 72.3658L83.499 73.9454L83.2018 75.43Z" fill="#5BBB9C"/>
<path d="M81.6158 73.0912L79.3134 69.4553L81.6158 75.4007V73.0912Z" fill="#7CD0B4"/>
<path d="M81.034 73.8979L79.3134 72.9222L81.6158 75.4006L81.034 73.8979Z" fill="#5BBB9C"/>
<g opacity="0.05">
<path d="M123.593 95.5775L120.587 94.3013L116.202 95.5775L120.626 97.0243L123.593 95.5775Z" fill="#383838"/>
</g>
<path d="M120.505 95.5775L120.798 91.0051L119.521 90.5731L120.505 95.5775Z" fill="#5BBB9C"/>
<path d="M120.19 95.5775L118.775 92.1248L117.914 93.2025L120.19 95.5775Z" fill="#5BBB9C"/>
<path d="M120.975 95.4657L121.714 92.0479L123.198 92.6462L120.975 95.4657Z" fill="#5BBB9C"/>
<path d="M121.543 93.169L124.853 92.1246L121.543 89.7764V93.169Z" fill="#86D5E8"/>
<path d="M120.728 92.1248L121.645 88.1408L118.271 89.9023L120.728 92.1248Z" fill="#73C9DE"/>
<path d="M118.271 93.5756L119.052 91.3279L115.521 92.8796L118.271 93.5756Z" fill="#86D5E8"/>
<g opacity="0.05">
<path d="M227.12 35.5783L224.114 34.3021L219.729 35.5783L224.153 37.0251L227.12 35.5783Z" fill="#383838"/>
</g>
<path d="M224.032 35.5783L224.325 31.0059L223.048 30.5739L224.032 35.5783Z" fill="#5BBB9C"/>
<path d="M223.717 35.5783L222.302 32.1256L221.441 33.2033L223.717 35.5783Z" fill="#5BBB9C"/>
<path d="M224.502 35.4665L225.24 32.0487L226.725 32.647L224.502 35.4665Z" fill="#5BBB9C"/>
<path d="M224.97 33.3013L228.546 32.1908L225.279 29.5743L224.97 33.3013Z" fill="#E2F28E"/>
<path d="M224.241 32.3246L225.341 27.9423L221.629 29.8799L224.241 32.3246Z" fill="#E2F28E"/>
<path d="M221.896 33.6889L222.755 31.2164L218.872 32.9231L221.896 33.6889Z" fill="#E2F28E"/>
<g opacity="0.241405">
<path d="M185.411 18.3649L174.633 29.6283L174.895 41.1583L145.624 59.8255L167.757 76.9115L201.766 62.4188L185.775 57.3318L195.892 51.8174L192.425 39.378L187.259 29.8243L185.411 18.3649Z" fill="#D7D7D6"/>
</g>
<g opacity="0.05">
<path d="M161.691 84.8811L165.749 85.7692L168.707 83.6411L171.317 85.8684L177.246 84.2945L181.083 81.0459L180.677 79.259L185.231 75.095L176.481 73.1496L161.691 84.8811Z" fill="black"/>
</g>
<path d="M172.3 80.3656L167.013 79.4007V80.4292L167.379 81.3355L171.39 84.394L172.3 80.3656Z" fill="#383838"/>
<path d="M153.995 76.183L150.487 73.4521V77.535L153.444 77.9261L153.995 76.183Z" fill="#383838"/>
<path d="M171.991 80.4292L175.541 79.4667L179.619 78.862L180.192 80.9352L171.39 84.3941L171.991 80.4292Z" fill="#585858"/>
<path d="M167.38 83.8454V81.3357L164.553 81.0971L161.725 81.3357L161.691 84.881L167.38 83.8454Z" fill="#585858"/>
<path d="M153.649 76.3165L158.742 77.7391L163.462 79.8386L161.725 81.3357L153.124 80.4293L153.649 76.3165Z" fill="#585858"/>
<path d="M178.832 77.8979L182.673 78.4449L183.289 75.1277H180.474L178.462 75.9864L178.832 77.8979Z" fill="#585858"/>
<path d="M167.013 79.4007L178.462 75.9864L179.618 78.862L171.99 80.4292L167.013 79.4007Z" fill="#858585"/>
<path d="M164.535 78.444L157.503 75.6774L155.298 75.689L153.649 76.3163L163.253 79.7634L164.181 79.2183L164.535 78.444Z" fill="#858585"/>
<path d="M153.649 76.3165L157.503 75.6775L159.438 72.1501L155.576 72.6812L150.487 73.4521L153.649 76.3165Z" fill="#9F9F9F"/>
<path d="M167.013 79.4008L167.379 81.3357H161.725L164.535 78.444L167.013 79.4008Z" fill="#9F9F9F"/>
<path d="M178.462 75.9864L178.089 72.1521L179.886 73.111L183.289 75.1277L178.462 75.9864Z" fill="#9F9F9F"/>
<path d="M157.503 75.6775L151.885 69.1975L154.57 65.2229L158.517 62.8337L167.379 68.7289L175.895 57.5173L180.173 60.4443L183.291 65.3432L179.991 72.6242L178.462 75.9866L167.013 79.4009L157.503 75.6775Z" fill="#E1D13F"/>
<path d="M178.26 55.422L167.379 68.781L158.503 62.921L157.351 54.6321L161.177 52.4737L167.705 53.8701L172.311 50.8375L178.26 55.422Z" fill="#CDBA28"/>
<path d="M167.757 53.9223L161.177 52.5258L159.69 49.4438L171.085 46.4269L173.948 48.4354L172.207 50.942L167.757 53.9223Z" fill="#E1D13F"/>
<path d="M178.339 55.3585L172.011 61.5497L168.17 54.7327L178.339 55.3585Z" fill="#C2A040"/>
<path d="M161.203 52.4866L167.264 53.9225L164.585 58.3932L156.747 54.6239L161.203 52.4866Z" fill="#E1D13F"/>
<path d="M159.636 49.4093L172.22 50.9159L167.75 53.9616L161.131 52.5715L159.636 49.4093Z" fill="#C2A040"/>
<path d="M162.577 77.5349L159.874 72.1709L164.307 63.3131L162.391 58.8205L167.427 52.3677L172.919 60.6193L172.232 65.6787L175.493 70.3617L173.196 77.5568L167.013 79.4008L162.577 77.5349Z" fill="#EEDE74"/>
<path d="M172.815 68.6186L165.79 62.235L162.013 72.2236L167.013 79.4008L172.815 68.6186Z" fill="#FFFEFF"/>
<path d="M160.145 59.2054L166.624 65.8884L169.953 59.6231L166.445 55.7862L160.145 59.2054Z" fill="#EEDE74"/>
<path d="M161.263 49.0713L164.476 45.8009L171.091 46.4236L161.263 49.0713Z" fill="#CDBA28"/>
<path d="M164.452 45.8871L168.424 42.1332L170.929 46.427L164.452 45.8871Z" fill="#C2A040"/>
<path d="M151.938 69.1551L159.915 72.1482L157.503 75.6775L151.938 69.1551Z" fill="#CDBA28"/>
<path d="M175.391 70.3325L183.311 65.4019L178.462 75.9864L175.391 70.3325Z" fill="#CDBA28"/>
<g opacity="0.2">
<path d="M170.595 70.3684L166.583 66.5834L163.92 72.2137L167.013 79.4008L170.595 70.3684Z" fill="#EEDE74"/>
</g>
<path d="M164.334 63.4189L158.399 62.8503L163.028 66.0227L164.334 63.4189Z" fill="#C2A040"/>
<path d="M163.664 75.1346L165.572 73.6253L169.497 77.6322L166.238 77.926L163.664 75.1346Z" fill="#92780E"/>
<path d="M165.924 72.4815L167.4 73.9518L168.835 72.9444L167.658 70.5363L165.924 72.4815Z" fill="#92780E"/>
<path d="M168.172 74.6231L170.947 72.4165L172.386 74.1815L168.891 76.2171L168.172 74.6231Z" fill="#92780E"/>
<g opacity="0.930155">
<path d="M163.655 34.6547L164.566 35.0514L164.153 35.9603L163.759 36.8774L162.856 36.4624L161.945 36.0658L162.358 35.1568L162.752 34.2398L163.655 34.6547Z" fill="#CEBB29"/>
</g>
<g opacity="0.596822">
<path d="M168.253 26.373L168.639 26.6499L168.356 27.0327L168.081 27.4211L167.701 27.1364L167.315 26.8595L167.598 26.4767L167.873 26.0883L168.253 26.373Z" fill="#EFDE75"/>
</g>
<g opacity="0.05">
<path d="M290.583 102.065L252.907 107.211L242.238 108.363L227.755 109.529L214.349 105.322L243.737 98.4064L290.583 102.065Z" fill="#383838"/>
</g>
<path d="M227.198 106.419L221.04 95.7981L221.403 94.3421L222.852 92.7007L232.787 104.526L227.198 106.419Z" fill="#CCA88E"/>
<path d="M236.81 98.0726L230.709 107.859L227.198 106.419L231.548 95.4465L233.026 91.6723L236.781 95.4465L236.81 98.0726Z" fill="#E3C8B3"/>
<path d="M222.851 92.7044L220.506 92.0812L217.591 91.8064L216.77 91.8132L215.129 92.5241L221.042 95.7942L222.851 92.7044Z" fill="#9A7A64"/>
<path d="M217.591 91.8058L218.31 88.5357L215.129 92.5233L217.591 91.8058Z" fill="#CCA88E"/>
<path d="M271.814 96.0091L281.083 99.4994L281.7 100.814L281.083 101.909L271.814 102.065V96.0091Z" fill="#CCA88E"/>
<path d="M285.275 99.563L288.266 100.032L290.254 101.441L290.583 102.065H287.929L285.275 99.563Z" fill="#CCA88E"/>
<path d="M281.083 99.4994L284.018 97.5977L287.929 102.065L281.083 101.91V99.4994Z" fill="#E3C8B3"/>
<path d="M271.814 102.065L273.886 96.7893L271.814 96.0093V102.065Z" fill="#9A7A64"/>
<path d="M277.916 86.3763V89.2893L277.472 89.4044L274.17 87.4289L277.916 86.3763Z" fill="#9A7A64"/>
<path d="M264.863 102.454L265.249 98.3874L267.404 94.0628L270.423 84.0961L272.277 86.4941L272.2 88.8923L271.814 102.065L264.863 102.454Z" fill="#E3C8B3"/>
<path d="M277.916 86.3763L270.424 84.0961L272.2 88.8925L277.916 86.3763Z" fill="#CCA88E"/>
<path d="M260.615 89.9585L267.405 94.0627L264.863 102.454L258.915 103.62V97.1002L260.615 89.9585Z" fill="#CDBA28"/>
<path d="M255.285 94.0628L260.615 89.9588L258.915 103.62L255.748 104.242L254.976 99.1607L255.285 94.0628Z" fill="#E1D13F"/>
<path d="M247.572 90.8689L248.899 96.865V102.454L242.599 105.961L244.241 90.8138L247.466 88.7416L247.572 90.8689Z" fill="#846B0C"/>
<path d="M247.572 90.8688L248.899 102.454L255.748 104.242L255.285 94.0628L250.916 90.4192L247.486 88.5991L247.572 90.8688Z" fill="#A88A12"/>
<path d="M224.291 92.9106L233.822 93.679L235.69 96.8568L224.291 92.9106Z" fill="#9A7A64"/>
<path d="M216.421 76.3946L215.028 79.4956L219.319 81.4959L220.894 76.1599L216.421 76.3946Z" fill="#383838"/>
<path d="M221.105 70.6239L215.22 74.2805L219.319 81.4959L222.754 73.0646L221.105 70.6239Z" fill="#616465"/>
<path d="M215.22 74.2805L220.079 76.8709L221.792 79.6441L219.319 81.4958L215.22 74.2805Z" fill="#585858"/>
<path d="M220.767 78.6431L217.167 82.9117L219.958 85.5641L220.192 83.5672L219.458 82.8551L220.41 81.7007L221.116 80.7993L220.767 78.6431Z" fill="#92780E"/>
<path d="M236.814 88.2888L233.315 93.4717L232.913 93.4439L228.788 93.6642L224.292 92.91L217.638 91.7188L221.105 70.6237L233.214 81.2274L236.814 88.2888Z" fill="#E3C8B3"/>
<path d="M230.878 85.0935L228.787 93.6641L233.312 94.2959L238.583 99.9731L239.558 89.4655L234.214 82.1502L230.878 85.0935Z" fill="#CCA88E"/>
<path d="M223.515 77.2438L223.864 77.9981L223.146 82.3341L221.684 78.611L221.104 77.1841L223.515 77.2438Z" fill="#CCA88E"/>
<path d="M225.292 78.2297L226.686 77.7007L229.582 79.1184L226.155 81.4816L224.515 84.1111L225.292 78.2297Z" fill="#CCA88E"/>
<path d="M232.017 88.6127L238.02 93.652L238.866 89.9601L235.558 84.1647L232.673 85.5276L232.017 88.6127Z" fill="#9A7A64"/>
<path d="M225.292 78.2297L223.864 77.998L222.897 83.8366L224.515 84.1111L225.292 78.2297Z" fill="#EAD3C2"/>
<path d="M224.515 84.1112L223.51 84.9576L222.896 83.8367L224.515 84.1112Z" fill="#9A7A64"/>
<path d="M220.881 71.9839L230.665 85.8388L233.119 86.9314L233.34 84.3324L226.686 77.7007L221.105 70.6237L220.881 71.9839Z" fill="#9A7A64"/>
<path d="M222.651 79.6292C222.649 80.1069 222.263 80.493 221.789 80.4916C221.315 80.4903 220.931 80.102 220.932 79.6244C220.934 79.1469 221.32 78.7609 221.794 78.7623C222.268 78.7636 222.652 79.1517 222.651 79.6292Z" fill="#383838"/>
<path d="M227.911 80.6403C227.909 81.1178 227.523 81.5039 227.049 81.5025C226.574 81.5012 226.191 81.1129 226.192 80.6355C226.194 80.158 226.579 79.7718 227.054 79.7732C227.528 79.7745 227.912 80.1628 227.911 80.6403Z" fill="#383838"/>
<path d="M223.562 75.6111L221.104 77.1841L223.515 77.2436L223.562 75.6111Z" fill="#383838"/>
<path d="M228.842 87.0934L223.455 85.3739L219.647 85.8637L222.592 91.1588L228.842 87.0934Z" fill="#92780E"/>
<path d="M227.119 87.2702L220.825 86.425L222.318 89.1841L223.799 89.3912L227.119 87.2702Z" fill="#585858"/>
<path d="M225.501 88.3041L221.55 87.7721L220.792 86.3868L227.183 87.2267L225.501 88.3041Z" fill="#FFFEFF"/>
<path d="M232.813 85.0131L231.518 88.9039L237.929 90.9013L238.905 85.9958L232.925 85.0245L234.055 86.1719L236.688 86.7431L237.044 89.0389L233.502 87.8787L234.067 86.0884L232.813 85.0131Z" fill="#92780E"/>
<path d="M238.866 89.96L236.814 98.068L238.583 99.9733L239.547 93.2884L238.866 89.96Z" fill="#A88A12"/>
<path d="M249.006 86.2065L250.943 90.4545L244.841 91.2567L235.243 84.1168L249.006 86.2065Z" fill="#616465"/>
<path d="M242.168 79.8773L252.954 83.0285L244.841 91.2568L241.591 92.1771L236.813 88.2878L235.87 87.115L231.393 83.8756L242.168 79.8773Z" fill="#585858"/>
<path d="M242.958 82.508L252.954 83.027L242.614 79.7112L242.291 80.8199L242.958 82.508Z" fill="#858585"/>
<path d="M230.797 68.226L241.369 69.6003L242.959 82.5087L236.484 75.5656L230.797 68.226Z" fill="#616465"/>
<path d="M219.481 68.2202L230.879 85.0927L244.86 84.7409L233.101 76.4412L219.481 68.2202Z" fill="#616465"/>
<path d="M219.481 68.2199L227.673 64.5578L244.86 84.7408L219.481 68.2199Z" fill="#9F9F9F"/>
<path d="M249.505 86.5256L250.943 90.4547L246.911 89.1564L249.505 86.5256Z" fill="#828385"/>
<path d="M239.52 84.8756L241.591 92.1775L236.813 88.2884L232.828 85.0443L239.52 84.8756Z" fill="#383838"/>
<path d="M238.503 103.123L227.755 105.279L227.05 106.163L227.198 107.627L238.37 108.363L238.838 105.538L238.503 103.123Z" fill="#CCA88E"/>
<path d="M238.838 89.9586L244.817 91.2391L242.238 108.363H238.37L238.838 89.9586Z" fill="#E3C8B3"/>
<path d="M227.755 105.279L224.471 103.123L223.494 105.743V107.522L227.198 107.627L227.755 105.279Z" fill="#E3C8B3"/>
<path d="M224.471 103.123L220.116 107.211L223.494 107.522L224.471 103.123Z" fill="#CCA88E"/>
<g opacity="0.05">
<path d="M373 103.006L352.864 96.085L334.798 102.137L354.255 109.184L373 103.006Z" fill="#383838"/>
</g>
<path d="M344.592 97.6616L340 100.985V102.281L349.638 101.789L349.824 99.9035L347.774 98.4173L344.592 97.6616Z" fill="#705377"/>
<path d="M354.236 90.2079L357.319 101.887L360.441 101.571L362.71 99.5639L364.179 86.3855L358.427 86.1273L354.236 90.2079Z" fill="#A488AE"/>
<path d="M362.703 99.386L366.273 102.598L366.257 103.696L357.544 103.983L357.318 101.865L362.703 99.386Z" fill="#705377"/>
<path d="M354.919 88.4854L349.824 100.4L347.463 98.8916L344.592 97.6618L345.045 85.7036L354.919 88.4854Z" fill="#A488AE"/>
<path d="M364.179 86.3857L354.062 90.243L344.489 86.1229L358.895 85.9269L364.179 86.3857Z" fill="#8F7098"/>
<path d="M335.5 64.2252L335.622 66.8425L336.916 70.1542L344.597 67.7796L346.816 63.5926L344.963 59.6181L335.5 64.2252Z" fill="#A8778E"/>
<path d="M349.234 56.9625L358.447 55.7179L359.993 58.0919L364.458 59.6796L364.784 86.3588L352.171 87.0316L345.626 85.9293L344.783 59.6817L349.234 56.9625Z" fill="#A8778E"/>
<path d="M357.625 57.6728L356.918 62.2858L351.034 66.6339L349.136 60.9139L349.23 56.9585L350.48 57.0202L352.833 58.4695L357.625 57.6728Z" fill="#705377"/>
<path d="M358.437 55.7143L359.982 58.0873L358.359 60.3253L355.778 62.0999L352.831 58.4687L349.988 61.0284L349.166 59.1911L349.229 56.9584L350.561 55.3407L358.437 55.7143Z" fill="#A488AE"/>
<path d="M351.034 66.6351L362.689 62.6192L359.984 58.0918L351.034 66.6351Z" fill="#C199AB"/>
<path d="M351.049 66.6333L352.184 87.0304L343.622 86.3941L344.788 59.6742L346.971 59.049L349.243 56.954L351.049 66.6333Z" fill="#C199AB"/>
<path d="M349.234 56.9541L344.783 59.6734L351.039 66.6314L349.234 56.9541Z" fill="#DBB0C3"/>
<path d="M353.114 70.5428L354.39 71.6976L355.54 70.4134L354.264 69.2584L353.114 70.5428Z" fill="#886072"/>
<path d="M353.43 76.6037L354.705 77.758L355.856 76.4742L354.579 75.3194L353.43 76.6037Z" fill="#886072"/>
<path d="M353.745 82.6641L355.021 83.819L356.171 82.5347L354.895 81.3802L353.745 82.6641Z" fill="#886072"/>
<path d="M348.373 69.5831L347.192 70.1351L344.971 65.323L346.152 64.7708L348.373 69.5831Z" fill="#8F7098"/>
<path d="M350.235 70.2513L345.694 70.4931L345.637 69.382L350.177 69.1402L350.235 70.2513Z" fill="#A8778E"/>
<path d="M364.443 59.6846L370.047 73.1873L366.231 72.2765L363.93 70.8482L364.443 59.6846Z" fill="#886072"/>
<path d="M370.052 73.1895L364.714 81.1491L361.919 80.731L359.988 78.3488L363.939 70.8513L370.052 73.1895Z" fill="#693F53"/>
<path d="M359.993 78.3497L358.795 80.254L362.762 84.2445L364.719 81.1501L359.993 78.3497Z" fill="#CCA88E"/>
<g opacity="0.2">
<path d="M362.761 84.2475L364.784 86.37L364.721 81.1521L362.761 84.2475Z" fill="#383838"/>
</g>
<path d="M339.751 69.3383L333.914 61.4323L331.873 61.828L329.574 62.8894L333.802 71.5485L339.751 69.3383Z" fill="#886072"/>
<path d="M334.227 61.7812L336.372 56.7709L335.172 56.0889L333.139 58.4466L333.407 59.9323L334.227 61.7812Z" fill="#CCA88E"/>
<path d="M334.229 61.7859L329.643 62.9498L327.917 59.7837L330.322 58.0513L332.803 57.4134L334.229 61.7859Z" fill="#E3C8B3"/>
<path d="M332.81 57.4113L329.385 53.8551L326.934 55.9613L327.923 59.782L332.81 57.4113Z" fill="#CCA88E"/>
<path d="M341.292 51.4962L350.207 53.9244L352.829 58.4357L355.816 56.1399L358.526 55.8803L358.246 53.2293L359.173 51.8145L359.565 49.35L360.849 49.5054L362.961 46.0835L361.027 44.5754L358.02 46.9961L356.583 45.8615L361.63 36.8606L358.806 33.9526L349.024 33.2527L346.197 31.3671L343.997 37.3313L341.292 51.4962Z" fill="#E3C8B3"/>
<path d="M345.253 37.4168L346.626 40.7162L348.797 45.8571L351.861 41.9757L355.254 39.1338L351.466 38.2809L350.213 38.5806L348.955 37.7546L347.733 36.7879L345.253 37.4168Z" fill="#CCA88E"/>
<path d="M349.046 36.5914L345.253 37.4151L348.812 38.28L349.046 36.5914Z" fill="#886072"/>
<path d="M351.274 38.8559L355.253 39.1334L351.814 37.201L351.274 38.8559Z" fill="#886072"/>
<path d="M348.955 37.7541L347.112 45.4721L348.797 45.8573L351.466 38.2805L348.955 37.7541Z" fill="#EAD3C2"/>
<path d="M347.114 45.4723L347.645 46.8007L348.798 45.8577L347.114 45.4723Z" fill="#9A7A64"/>
<path d="M344.792 47.6814L347.253 48.7742L351.189 48.4761L350.695 49.279L347.066 49.7782L344.885 48.6246L344.792 47.6814Z" fill="#9A7A64"/>
<path d="M361.375 46.0695L359.15 47.423L360.934 47.5538L361.375 46.0695Z" fill="#9A7A64"/>
<path d="M359.834 49.3849L358.095 49.1346L359.172 51.8173L359.834 49.3849Z" fill="#9A7A64"/>
<path d="M341.297 51.4978L352.297 53.444L354.808 53.4867L352.832 58.4359L350.02 54.2618L341.297 51.4978Z" fill="#9A7A64"/>
<path d="M358.805 33.9529L355.254 39.1349L352.293 53.4449L354.16 53.7408L352.827 58.4383L358.525 55.8825L359.172 51.8164L359.835 49.3843L358.095 49.1336L358.02 46.9975L356.582 45.8627L361.63 36.8611L358.805 33.9529Z" fill="#CCA88E"/>
<path d="M344.075 29.7935L346.195 31.3633L348.899 33.6239L350.057 29.5802L349.692 25.5722L344.075 29.7935Z" fill="#585858"/>
<path d="M349.691 25.5751L363.634 31.8188L361.169 33.5715L358.529 34.1958L348.898 33.6253L349.691 25.5751Z" fill="#969797"/>
<path d="M358.529 34.1987L361.229 36.8567L363.203 36.8498L364.839 36.0285L363.635 31.8219L358.529 34.1987Z" fill="#858585"/>
<path d="M361.231 36.8583L356.174 46.0318L357.984 47.2906L360.976 44.8171L362.748 46.1431L361.601 48.2824L367.341 45.6104L364.841 36.0301L361.231 36.8583Z" fill="#585858"/>
<path d="M358.095 49.1346L359.172 51.8173L359.834 49.3849L358.095 49.1346Z" fill="#9A7A64"/>
<path d="M347.148 40.7058C347.155 41.1262 346.822 41.4732 346.404 41.4806C345.986 41.4881 345.642 41.1531 345.634 40.7327C345.627 40.3122 345.96 39.9655 346.378 39.9581C346.796 39.9506 347.14 40.2853 347.148 40.7058Z" fill="#383838"/>
<path d="M352.622 41.8667C352.63 42.2872 352.297 42.634 351.879 42.6415C351.461 42.6489 351.116 42.3141 351.109 41.8936C351.102 41.4732 351.435 41.1263 351.853 41.1189C352.271 41.1115 352.615 41.4463 352.622 41.8667Z" fill="#383838"/>
<path d="M128.202 27.0831L123.566 27.9844L123.875 30.3167L124.348 33.1466L126.692 31.5039L128.202 27.0831Z" fill="#9F9F9F"/>
<path d="M123.017 24.931L124.3 28.4382L128.201 27.0833L123.017 24.931Z" fill="#E2E2E2"/>
<path d="M124.844 36.1083L125.745 36.8463L127.648 37.2377L129.31 33.6706L126.662 34.5619L124.844 36.1083Z" fill="#9F9F9F"/>
<path d="M126.692 31.5038H123.566L124.844 36.1081L129.31 33.6705L126.692 31.5038Z" fill="#CECECE"/>
<path d="M107.447 34.5619L103.621 35.6168L102.506 38.5572L104.808 38.9845L108.337 37.029L107.748 36.4752L109.015 34.1718L107.447 34.5619Z" fill="#CECECE"/>
<path d="M106.951 31.8745L101.633 33.2802L103.621 35.6168L107.24 36.3049L109.067 36.4837L108.293 34.5621L106.951 31.8745Z" fill="#9F9F9F"/>
<path d="M106.966 28.0206L105.914 28.2491L105.113 27.2186L101.633 33.2801L107.071 32.5235L106.966 28.0206Z" fill="#E2E2E2"/>
<path d="M109.974 37.1013L102.506 38.5571L104.11 39.7545L106.042 40.7875L110.52 38.6984L109.974 37.1013Z" fill="#9F9F9F"/>
<path d="M123.683 24.8851L123.694 24.9315L123.689 24.8851H123.683Z" fill="#9F9F9F"/>
<path d="M135.829 37.3992L137.251 36.1352L138.479 34.0311L138.389 29.2255L135.533 32.1488L134.69 35.508L135.829 37.3992Z" fill="#9A7A64"/>
<path d="M143.345 20.4279L142.904 20.755L140.941 24.2523L140.126 25.4124L140.334 27.768L138.479 29.0294L138.757 29.9545L137.608 32.641L136.54 33.3433L135.286 36.1084L137.251 36.1352L139.404 29.984L141.389 28.3054L141.313 25.3603L143.345 20.4279Z" fill="#3B8970"/>
<path d="M137.85 33.2046L138.757 29.9547L138.479 29.0295L136.54 33.3431L137.85 33.2046Z" fill="#5BBB9C"/>
<path d="M142.904 20.7548L143.345 20.4279L142.607 20.4843L140.126 25.4124L141.147 24.8105L142.904 20.7548Z" fill="#7CD0B4"/>
<path d="M134.124 33.343L134.871 30.76L138.019 28.7017L138.479 29.0294L137.85 30.3986L136.547 31.5482L136.54 33.343L135.987 34.5619L134.69 35.5077L134.124 33.343Z" fill="#E3C8B3"/>
<path d="M140.363 29.173L140.126 34.5703L137.251 36.1352L138.479 29.0295L140.363 29.173Z" fill="#CCA88E"/>
<path d="M136.434 40.753L133.291 34.3515L130.595 37.7488L127.591 44.0461L136.434 40.753Z" fill="#7F9D6B"/>
<path d="M124.844 36.1083L124.461 39.8139L128.514 43.172L130.595 37.7487L124.844 36.1083Z" fill="#9ECB82"/>
<path d="M125.46 44.7728L131.195 45.6566L134.69 43.172L135.646 40.2623L128.514 43.172L125.46 39.9135L120.57 34.827L125.46 44.7728Z" fill="#65874F"/>
<path d="M134.124 33.343L133.29 34.3515L135.646 40.2625L131.195 45.6566L132.495 45.774L137.171 40.5924L134.124 33.343Z" fill="#3B8970"/>
<path d="M110.136 40.4663L108.479 40.2152L104.11 39.7543L109.945 44.4931L110.355 45.8851L113.018 51.3391L116.601 47.8229L110.136 40.4663Z" fill="#7F9D6B"/>
<path d="M107.901 46.7261L109.83 50.131L111.849 51.044L113.304 48.9581L110.355 43.7887L107.901 46.7261Z" fill="#4D7333"/>
<path d="M123.354 45.7972L126.307 45.1796L125.477 39.8712L123.354 45.7972Z" fill="#7F9D6B"/>
<path d="M116.601 47.8227L116.882 48.0016L116.601 47.8227Z" fill="#5BBB9C"/>
<path d="M116.601 47.8229L108.479 42.6379L116.601 47.8229Z" fill="#5BBB9C"/>
<path d="M123.623 42.6197L122.54 45.5674L122.437 45.8131L123.314 45.5119L124.39 42.5803L123.98 41.7386L123.623 42.6197Z" fill="#3B8970"/>
<path d="M100.786 55.0383L99.0692 57.0291L98.3488 57.8642L99.2685 58.7208L101.524 55.5864L100.786 55.0383Z" fill="#CCA88E"/>
<path d="M99.069 51.824L96.8719 52.6594L95.9794 54.6091L97.1109 57.2809L98.3487 57.8642L98.3495 57.8631L100.087 56.0678L99.069 51.824Z" fill="#E3C8B3"/>
<path d="M100.871 54.9403L97.6113 51.0441L96.8719 52.6594L100.088 56.0678L100.786 55.0384L100.871 54.9403Z" fill="#9A7A64"/>
<path d="M98.3487 57.8642L95.9794 54.6091L95.0709 57.7763L96.5649 59.9527L98.3497 57.8631L98.3487 57.8642Z" fill="#CCA88E"/>
<path d="M104.11 39.7545L97.3779 48.7642L105.496 50.0082L108.693 42.1532L104.11 39.7545Z" fill="#9ECB82"/>
<path d="M97.3769 48.7641H97.3779L100.608 55.29L102.433 54.6541L108.479 42.4824L97.3769 48.7641Z" fill="#7F9D6B"/>
<path d="M108.692 42.1531L100.609 54.609L103.54 54.386L105.223 53.3611L110.355 43.7887L108.692 42.1531Z" fill="#65874F"/>
<path d="M100.088 56.0678L104.436 54.6091L105.223 53.3613L100.609 54.6091L97.378 48.7642H97.3769L96.5568 49.8484L100.088 56.0678Z" fill="#3B8970"/>
<g opacity="0.1">
<path d="M96.7336 76.8417L113.23 78.6465L138.821 76.5973L114.544 74.8079L96.7336 76.8417Z" fill="#383838"/>
</g>
<path d="M117.948 72.1333V74.4263L120.761 73.552L122.361 72.3299L122.883 70.2645L117.948 72.1333Z" fill="#3B8970"/>
<path d="M105.862 70.0699L105.018 74.4383L107.453 74.4264L109.763 72.9553L110.28 71.856L105.862 70.0699Z" fill="#3B8970"/>
<path d="M122.361 72.33L117.948 74.4264V75.618L121.691 75.9337L126.286 75.618L122.361 72.33Z" fill="#5BBB9C"/>
<path d="M126.286 76.7523H117.948V75.6181H126.286V76.7523Z" fill="#3B8970"/>
<path d="M109.763 72.9551L110.789 76.2463L107.901 76.8136L104.608 76.2463L105.018 74.4382L109.763 72.9551Z" fill="#5BBB9C"/>
<path d="M110.789 77.3805H104.608V76.2463H110.789V77.3805Z" fill="#3B8970"/>
<path d="M126.308 44.8545L117.702 57.5902L113.304 48.9581L109.83 50.1312L103.242 68.5946L112.144 74.0182L112.176 74.0427L126.941 68.1909L126.308 44.8545Z" fill="#7F9D6B"/>
<path d="M123.202 45.814L120.288 50.9366L118.804 49.5954L116.601 47.8229L113.305 48.9581L112.294 72.7709L125.46 44.7728L123.314 45.5119L123.202 45.814Z" fill="#9ECB82"/>
<path d="M112.294 72.7708L103.241 68.5946L102.841 69.8644L112.143 74.0181L112.176 74.0428L126.976 69.5678L126.941 68.1908L112.294 72.7708Z" fill="#3B8970"/>
<path d="M115.31 37.6367L114.776 39.9135L109.763 42.1531L117.376 47.4759L117.421 47.5409L122.437 45.813L115.31 37.6367Z" fill="#5BBB9C"/>
<path d="M108.409 41.7516L109.763 42.1531L115.688 39.9137L107.24 36.3049L104.808 38.9844L108.409 41.7516Z" fill="#7CD0B4"/>
<path d="M120.244 34.1727L120.288 34.1686L120.278 34.1498L120.244 34.1727Z" fill="#3B8970"/>
<path d="M116.881 46.7037L104.808 38.9844L104.11 39.7545L116.601 47.823L121.202 53.8284L123.711 48.6301L123.709 45.8141L116.881 46.7037Z" fill="#3B8970"/>
<path d="M115.31 37.6367L112.54 35.7317L107.447 34.5619L107.24 36.3049L115.688 39.9135L118.654 40.9181L118.847 38.7079L115.31 37.6367Z" fill="#3B8970"/>
<path d="M125.175 33.5644L122.403 17.2758L117.797 13.7031L114.874 16.1913L108.805 15.7901L107.748 16.7589L109.945 21.0751L113.717 36.7267L119.269 35.1834L125.175 33.5644Z" fill="#E3C8B3"/>
<path d="M117.797 14.6328L122.403 17.2759L119.657 13.5868L117.398 12.9196L116.922 13.7029L117.797 14.6328Z" fill="#EFEFEE"/>
<path d="M117.398 12.9196L112.753 11.5483L112.863 15.033L115.369 17.2759L117.797 14.6328L117.398 12.9196Z" fill="#E2E2E2"/>
<path d="M108.329 15.033L108.378 15.5799L108.753 15.8909L115.361 17.2843L115.369 17.2758L112.752 11.5483L108.329 15.033Z" fill="#CECECE"/>
<path d="M114.652 19.8614L114.874 20.5331L112.481 22.289L112.172 21.5039L114.652 19.8614Z" fill="#9F9F9F"/>
<path d="M118.151 19.2644L118.416 20.0664L120.911 20.4585L121.08 19.9154L118.151 19.2644Z" fill="#9F9F9F"/>
<path d="M112.481 22.2889L118.455 28.4382L118.151 23.2007L115.952 21.0619L117.816 20.7318L118.776 23.4274L119.666 24.9159L120.911 20.4583L118.416 20.0664L117.816 20.7318L115.952 21.0619L114.874 20.533L112.481 22.2889Z" fill="#CCA88E"/>
<path d="M110.458 18.6289L108.805 15.7903L106.08 20.4583L107.447 22.0486L107.748 26.2351L106.513 24.8393L105.615 26.2095L104.11 26.7702L105.347 30.4011L106.62 30.0809L107.447 30.2493L107.071 32.5235L107.447 34.5619L112.863 36.6798L113.866 36.7475L110.458 18.6289Z" fill="#CCA88E"/>
<path d="M106.62 30.0809L107.071 32.5237L108.274 29.6334L106.62 30.0809Z" fill="#9A7A64"/>
<path d="M116.461 35.964L112.863 36.6798L115.597 37.7488L116.862 38.1914L116.461 35.964Z" fill="#9A7A64"/>
<path d="M105.113 27.2186L107.24 28.6499L106.679 26.7082L105.113 27.2186Z" fill="#9A7A64"/>
<path d="M115.554 24.3086C115.554 24.7013 115.238 25.0196 114.848 25.0196C114.458 25.0196 114.141 24.7013 114.141 24.3086C114.141 23.916 114.458 23.5977 114.848 23.5977C115.238 23.5977 115.554 23.916 115.554 24.3086Z" fill="#383838"/>
<path d="M121.056 23.0528C121.056 23.4455 120.74 23.7637 120.35 23.7637C119.96 23.7637 119.644 23.4455 119.644 23.0528C119.644 22.66 119.96 22.3418 120.35 22.3418C120.74 22.3418 121.056 22.66 121.056 23.0528Z" fill="#383838"/>
<path d="M117.816 20.7318L119.173 22.6744L120.35 28.0207L118.455 28.4382L117.429 23.1599L115.952 21.0619L117.816 20.7318Z" fill="#EAD3C2"/>
<path d="M103.356 19.0027L105.615 26.2093L106.336 25.9488L107.874 26.8449L108.317 21.1686L106.546 20.1231L108.804 15.7904L108.329 15.0332L103.356 19.0027Z" fill="#9F9F9F"/>
<path d="M118.455 28.4381L114.394 32.1174L116.882 46.7036L121.441 50.9294L121.79 51.5515L121.631 52.1705L121.202 53.8283L123.698 55.5742L122.034 37.7485L119.662 28.7016L118.455 28.4381Z" fill="#CECECE"/>
<path d="M124.177 50.5077L126.308 44.8544L123.875 30.3168L120.35 28.0207L119.662 28.7017L123.698 55.5742L125.069 52.8963L124.366 51.7488L123.98 51.1829L124.177 50.5077Z" fill="#EFEFEE"/>
<path d="M124.366 51.7488L121.631 52.1707L121.441 50.9295L124.177 50.5077L124.366 51.7488Z" fill="#4D7333"/>
<path d="M121.574 30.5015L120.126 31.5257L117.477 31.223L117.308 30.4492L119.923 30.5778L121.405 29.7289L121.574 30.5015Z" fill="#9A7A64"/>
<path d="M120.35 28.0206L118.454 28.4382L119.741 29.2255L120.35 28.0206Z" fill="#9F9F9F"/>
<g opacity="0.05">
<path d="M101.401 103.832L75.7705 99.4263L69.865 101.004L71.5591 98.8693L60.9157 96.309L45.167 89.4232L30.9392 96.5706L40.6501 106.498L51.3015 108.311L56.2817 106.934L81.6281 114.797L101.401 103.832Z" fill="#383838"/>
</g>
<path d="M32.6038 88.9162L36.1038 95.7135L40.791 96.7643L49.4838 93.2123L51.0334 86.3638L40.332 90.3077L32.6038 88.9162Z" fill="#3B8970"/>
<path d="M30.6402 87.62L33.9539 91.5384L39.8853 93.4344L43.2119 89.2463L50.2337 89.8816L52.703 85.1743L45.9358 82.3697L38.3992 86.3638L30.6402 87.62Z" fill="#459E82"/>
<path d="M30.6402 87.62V83.8021L38.8593 84.9918L42.7238 80.7377L49.7075 81.3316L52.703 85.1744L43.2119 89.2463L30.6402 87.62Z" fill="#5BBB9C"/>
<path d="M30.6402 83.8021L39.2712 75.7951L46.7162 77.2008L49.7075 81.3316L38.3994 86.3638L30.6402 83.8021Z" fill="#7CD0B4"/>
<g opacity="0.1">
<path d="M39.8856 93.4343L40.7912 96.7642L49.4838 93.2123L50.234 89.8816L52.7033 85.1743L46.7164 77.2008L33.7372 81.0795L36.4866 85.7323L33.9541 91.5384L39.8856 93.4343Z" fill="#383838"/>
</g>
<path d="M58.5868 106.112L65.4242 100.247L64.0971 96.8619L62.0882 86.7526L55.1016 82.9097L50.6841 87.722L44.0602 92.3061L46.1535 103.534L58.5868 106.112Z" fill="#3B8970"/>
<path d="M67.1772 92.83L64.097 96.8619L57.8401 99.6987L54.934 102.958L49.1963 102.449L46.1536 103.534L42.7736 96.5966L51.602 97.8169L55.1018 94.0557L67.1772 92.83Z" fill="#459E82"/>
<path d="M67.1772 92.83L57.8401 99.6987L51.602 97.8169L42.7736 96.5966L44.0601 92.3061L62.0881 86.7525L67.1772 92.83Z" fill="#5BBB9C"/>
<path d="M62.0882 86.7525L58.2689 94.1537L52.0335 94.8546L44.0602 92.3061L55.1016 82.9097L59.9261 81.5834L62.0882 86.7525Z" fill="#7CD0B4"/>
<path d="M58.2689 94.1538L44.0602 92.3061L51.6017 97.8169L58.2689 94.1538Z" fill="#459E82"/>
<g opacity="0.1">
<path d="M62.0882 86.7525L62.472 96.291L58.5868 106.112L46.1535 103.534L49.196 102.449L51.6017 97.8168L49.4191 93.0029L59.9261 81.5834" fill="#383838"/>
</g>
<path d="M37.4507 103.4L40.6501 106.498L48.4705 104.014L50.2594 100.402L41.9418 101.076L37.4507 103.4Z" fill="#3B8970"/>
<path d="M50.2595 100.402L48.4703 97.0256L40.9061 99.9136L35.8905 98.8788L37.4509 103.399L41.5372 103.787L50.2595 100.402Z" fill="#5BBB9C"/>
<path d="M35.8907 98.8786L41.5373 103.787L48.4705 97.0255L41.3544 95.5494L35.8907 98.8786Z" fill="#5BBB9C"/>
<path d="M38.4305 97.331L39.7324 90.6181L44.0459 92.3908L48.4703 97.0254L38.6838 101.307L38.4305 97.331Z" fill="#7CD0B4"/>
<g opacity="0.1">
<path d="M40.6501 106.498L41.5373 103.787V100.059L39.7325 90.618L44.0459 92.3908L46.4377 94.8959L41.5373 100.059L48.4703 97.0255L46.1535 101.908L40.6501 106.498Z" fill="#383838"/>
</g>
<path d="M85.5415 95.3316L87.5754 101.966L86.0692 104.081L81.2162 99.4263L85.5415 95.3316Z" fill="#CCA88E"/>
<path d="M87.5753 101.966L91.9473 102.34L91.2053 104.54L89.2745 104.999L87.1892 105.154L85.8762 103.521L87.5753 101.966Z" fill="#36899C"/>
<path d="M91.9475 102.34L93.779 102.416L94.5917 103.521L90.3558 106.32L89.2746 106.203V104.999L91.9475 102.34Z" fill="#4DADC4"/>
<path d="M82.5834 99.0349L85.8762 103.521L84.8205 104.75L82.864 105.154L79.279 103.172L79.7538 100.951L82.5834 99.0349Z" fill="#E3C8B3"/>
<path d="M85.8762 103.521L89.2746 104.999L87.2921 107.235L83.8938 108.886L82.8638 105.154L85.8762 103.521Z" fill="#4DADC4"/>
<path d="M89.2746 104.999L92.0999 106.332L92.3274 107.564L83.8937 108.886L89.2746 104.999Z" fill="#73C9DE"/>
<path d="M75.7705 107.564L85.5414 95.3316L83.5848 89.5133L80.656 85.7116L76.9298 87.7561L75.1402 96.5682L75.7705 107.564Z" fill="#5FB5B7"/>
<path d="M73.2799 85.8986L67.3103 95.3316L64.1927 105.698L75.7706 107.564L76.9298 87.7561L73.2799 85.8986Z" fill="#42A2A5"/>
<path d="M81.2163 81.9098L84.5114 82.3314L86.5712 86.8744L83.5848 89.5134L81.2163 81.9098Z" fill="#CCA88E"/>
<path d="M81.2163 81.9098L86.5712 86.8745L85.0264 81.9098H81.2163Z" fill="#E3C8B3"/>
<path d="M74.0075 79.3548L81.2161 81.9099L79.2789 85.7117L73.3924 84.8878L74.0075 79.3548Z" fill="#E3C8B3"/>
<path d="M58.5558 77.2452L56.9185 81.9099L57.678 84.1463L55.176 86.8745L64.1926 105.698L73.2798 85.8986V79.9899L68.1895 77.2452H58.5558Z" fill="#82D2D4"/>
<path d="M68.1896 77.2451L73.3925 84.8878L74.0075 79.3548L68.1896 77.2451Z" fill="#5FB5B7"/>
<g opacity="0.2">
<path d="M59.0977 95.0616L65.5989 96.6793L76.9298 87.7561L83.5848 89.5134L82.5776 85.0521L62.4736 89.8377L55.1761 86.8745L59.0977 95.0616Z" fill="#383838"/>
</g>
<path d="M66.9338 86.2095L77.4058 84.0662L78.1268 85.7158L76.9298 87.756L66.0035 93.5071L65.8898 89.5134L66.9338 86.2095Z" fill="#EAD3C2"/>
<path d="M77.4058 84.0663L81.2162 81.9099L82.5775 85.0521L81.6281 88.194L76.9296 87.7561L77.4058 84.0663Z" fill="#CCA88E"/>
<path d="M81.2163 81.9098L84.5114 84.9649L83.5848 89.5134L81.6281 88.194L81.2163 81.9098Z" fill="#EAD3C2"/>
<path d="M56.9187 81.9099L66.9338 86.2097L65.599 96.6793L55.1761 86.8745L56.9187 81.9099Z" fill="#99E4E1"/>
<path d="M69.2822 54.55L74.3547 56.1101L72.2306 61.678L70.2974 58.242L69.2822 54.55Z" fill="#616465"/>
<path d="M49.7496 59.9894L47.6829 59.1518L44.6207 56.0728L57.297 45.5658L59.6226 49.0737L60.6429 52.0217L55.191 57.2662L49.7496 59.9894Z" fill="#82D2D4"/>
<path d="M57.29 45.5711L68.4664 46.9723L69.282 54.5397L64.497 53.9143L60.6359 52.0269L57.29 45.5711Z" fill="#99E4E1"/>
<path d="M44.6268 56.0729L47.8918 64.4878L49.4141 62.2092L49.758 59.9909L44.6268 56.0729Z" fill="#42A2A5"/>
<path d="M57.9699 46.8755L57.4576 47.2738L58.2265 48.8487L56.994 49.7944L57.5051 50.838L58.7946 49.887L59.5407 51.3171L60.0803 50.9477L59.6176 49.0753L57.9699 46.8755Z" fill="#36899C"/>
<path d="M57.969 46.8764L58.7441 47.0232L59.4633 48.349L61.0611 48.636L61.3143 49.631L60.0162 49.4346L60.784 50.9762L60.0792 50.9482L57.969 46.8764Z" fill="#429DB3"/>
<path d="M69.2954 54.5507L76.1807 71.1989L68.0792 74.9351L67.1761 84.0552L57.7451 76.3616L51.721 73.0878L54.4859 70.375L56.5901 72.5543L56.563 62.4445L58.8971 59.9721L61.9048 59.1326L69.2954 54.5507Z" fill="#E3C8B3"/>
<path d="M56.568 62.4431L62.9031 77.2512L68.0853 74.9345L66.8333 77.0333L67.7291 78.5321L67.1821 84.0553L51.7256 73.0871L54.4906 70.3741L56.595 72.5535L55.6833 67.9767L56.568 62.4431Z" fill="#CCA88E"/>
<path d="M69.1077 59.4491L67.1706 64.6582L66.2176 67.1009L60.3665 63.4803L69.1077 59.4491Z" fill="#CCA88E"/>
<path d="M63.9115 61.8305L66.2177 67.1031L67.9251 66.3621L65.576 61.0562L63.9115 61.8305Z" fill="#EAD3C2"/>
<path d="M67.9257 66.3642L67.4804 67.7682L66.2188 67.105L67.9257 66.3642Z" fill="#9A7A64"/>
<path d="M68.082 74.9404L67.7261 78.5357L61.3454 77.9184L68.082 74.9404Z" fill="#9A7A64"/>
<path d="M56.7772 74.1645L56.7419 76.6422L55.3041 75.6219L56.7772 74.1645Z" fill="#9A7A64"/>
<path d="M55.9084 73.5324L54.3149 72.0237L53.3349 72.9992L55.9084 73.5324Z" fill="#9A7A64"/>
<path d="M61.9046 59.1217L61.9584 55.384L60.6473 52.0273L49.7533 59.9955L46.1418 68.6994L51.4607 65.9587L56.5636 62.4334L58.8827 60.9954L61.9046 59.1217Z" fill="#616465"/>
<path d="M56.5699 62.4361L56.5969 72.5449L54.493 70.3658L51.7286 73.0783L46.148 68.7022L56.5699 62.4361Z" fill="#383838"/>
<path d="M60.6383 52.0318L69.2846 54.5448L65.0715 57.9147L61.8955 59.1256L60.6383 52.0318Z" fill="#858585"/>
<path d="M64.2463 62.5156L63.5484 61.0777L60.3671 63.4774L64.2463 62.5156Z" fill="#616465"/>
<path d="M65.8866 61.7529L69.1043 59.449L65.1845 60.3738L65.8866 61.7529Z" fill="#616465"/>
<path d="M64.0935 70.6961L68.9406 71.1442L71.4254 66.9254L68.5954 69.8766L64.0935 70.6961Z" fill="#5FB5B7"/>
<path d="M65.2539 70.4652L68.0375 69.0688L70.5097 67.9598L68.63 70.0161L65.2539 70.4652Z" fill="#1F878A"/>
<path d="M64.0533 64.9206C64.0772 65.3839 63.7228 65.7795 63.2619 65.8041C62.801 65.8287 62.4081 65.4729 62.3843 65.0096C62.3604 64.5463 62.7146 64.1507 63.1755 64.1261C63.6364 64.1015 64.0295 64.4573 64.0533 64.9206Z" fill="#383838"/>
<path d="M69.0383 62.6776C69.0622 63.1409 68.7078 63.5365 68.2468 63.5611C67.786 63.5857 67.3931 63.2299 67.3692 62.7666C67.3454 62.3033 67.6996 61.9077 68.1605 61.8831C68.6214 61.8585 69.0145 62.2143 69.0383 62.6776Z" fill="#383838"/>
<path d="M280.138 57.4718L273.414 54.8768L270.732 60.6687L282.036 62.042L280.138 57.4718Z" fill="#7F9D6B"/>
<path d="M283.298 65.8683L290.727 68.5942L290.658 65.3092L283.298 65.8683Z" fill="#668750"/>
<g opacity="0.05">
<path d="M257.718 79.9535L292.57 87.0099L312.095 78.9006L284.425 70.73L257.718 79.9535Z" fill="black"/>
</g>
<path d="M267.466 70.0524L262.992 71.6272L266.969 72.9109L267.466 70.0524Z" fill="#E3C8B3"/>
<path d="M262.341 70.869L261.508 72.1469L266.008 75.3562L267.264 72.9011L262.341 70.869Z" fill="#9ECB82"/>
<path d="M265.779 75.8274L263.25 78.7263L269.901 77.2068L265.779 75.8274Z" fill="#E3C8B3"/>
<path d="M262.312 78.1755L261.784 79.8702L271.835 79.9219L271.726 77.8172L271.026 76.4493L262.312 78.1755Z" fill="#9ECB82"/>
<path d="M269.01 76.9085L271.835 79.922L271.726 77.8171L269.01 76.9085Z" fill="#7F9D6B"/>
<path d="M283.295 65.871L286.468 71.0171L290.003 74.4425L290.622 70.7257V68.1297L290.612 67.4496L289.003 67.1828L283.295 65.871Z" fill="#4D7333"/>
<path d="M283.295 65.871L290.003 74.4423L289.404 78.6214L280.814 80.8576L281.277 72.7126L283.295 65.871Z" fill="#65874F"/>
<path d="M283.295 65.871L269.061 60.8951L274.097 71.4686L280.814 80.8576L283.295 65.871Z" fill="#9ECB82"/>
<path d="M269.061 60.8951L265.085 76.5262L280.814 80.8576L269.061 60.8951Z" fill="#79AB67"/>
<path d="M281.728 51.1522L278.915 59.4222L285.74 55.0945L281.728 51.1522Z" fill="#9ECB82"/>
<path d="M283.409 55.8955L278.917 59.4246L283.993 63.9094L287.321 63.7252L291.101 58.7648L287.105 52.982L283.409 55.8955Z" fill="#79AB67"/>
<path d="M278.919 59.427L287.323 63.7272L289.233 60.9374L290.588 67.3979L289.017 67.1181L283.265 66.0109L278.919 59.427Z" fill="#65874F"/>
<path d="M271.57 58.0282L267.854 57.9928L268.049 56.9555L270.12 55.6114L271.084 56.3131L271.57 58.0282Z" fill="#CCA88E"/>
<path d="M272.208 51.0378L269.097 50.5024L266.111 51.7326L268.801 53.7102L270.748 52.8152L272.208 51.0378Z" fill="#CCA88E"/>
<path d="M275.059 55.5762L272.213 51.0445L268.802 53.7206L271.562 58.0314L275.059 55.5762Z" fill="#E3C8B3"/>
<path d="M280.817 50.5249L281.66 52.5605L283.404 56.7677L285.374 53.5288L285.593 50.9044L283.005 49.9009L280.817 50.5249Z" fill="#9A7A64"/>
<path d="M272.165 35.5289L272.846 49.8809L285.584 50.8931L288.39 42.2256L284.722 34.7467L278.878 34.6699L272.165 35.5289Z" fill="#E3C8B3"/>
<path d="M281.153 31.7534L280.142 30.5221L277.66 29.8433L275.681 30.5851L274.442 32.3964L277.941 32.4656L281.153 31.7534Z" fill="#E3C8B3"/>
<path d="M278.872 36.7683L278.297 37.8231L278.572 43.5986L280.437 38.7851L282.435 38.1799L278.872 36.7683Z" fill="#CCA88E"/>
<path d="M276.7 37.9043L273.831 36.8208L276.694 41.1804L276.7 37.9043Z" fill="#CCA88E"/>
<path d="M284.712 34.7469L285.577 50.9053L287.915 46.1398L288.388 42.2316L287.081 38.0099L284.712 34.7469Z" fill="#CCA88E"/>
<path d="M296.166 30.3303L287.974 30.5765L281.301 31.7527L277.841 32.0832L274.516 32.4015L273.301 32.315L272.135 32.6291L272.162 35.5186L284.709 34.7393L287.906 35.212L291.237 34.334L294.182 34.8802L297.255 33.9604L296.166 30.3303Z" fill="#9ECB82"/>
<path d="M278.648 33.5468L277.084 32.1465L275.669 33.756L277.29 35.1981L278.648 33.5468Z" fill="#65874F"/>
<path d="M296.162 30.316L293.694 22.9063L278.144 26.5154L277.189 28.3086L277.654 29.8447L281.147 31.755L296.162 30.316Z" fill="#5BBB9C"/>
<path d="M278.151 26.5052L272.28 27.9193L272.13 32.6151L274.44 32.3935L277.661 29.8375L278.151 26.5052Z" fill="#459E82"/>
<path d="M282.431 38.178L280.981 36.8033L278.871 36.7679L282.431 38.178Z" fill="#3B8970"/>
<path d="M276.697 37.9025L275.492 36.7841L273.831 36.8205L276.697 37.9025Z" fill="#3B8970"/>
<path d="M276.698 37.9065L278.302 37.8197L278.577 43.5967L276.688 43.5974L276.698 37.9065Z" fill="#EAD3C2"/>
<path d="M278.579 43.5982L277.683 44.7925L276.693 43.5992L278.579 43.5982Z" fill="#9A7A64"/>
<path d="M279.932 46.2007L277.79 47.6217L275.972 46.2688L279.932 46.2007Z" fill="#9ECB82"/>
<path d="M282.159 44.848L280 46.2676L275.901 46.3356L274.591 45.0529L276.153 45.5526L277.674 45.5702L280.206 45.5156L282.159 44.848Z" fill="#65874F"/>
<path d="M284.71 34.7504L288.378 42.2303L290.769 38.1806L291.244 34.3434L284.71 34.7504Z" fill="#459E82"/>
<path d="M274.132 40.0781L275.105 39.5191L276.146 40.2156" stroke="#393939" stroke-width="4"/>
<path d="M279.131 40.0782L279.965 39.5192L281.076 40.2156" stroke="#393939" stroke-width="4"/>
<path d="M288.003 55.2005L290.708 70.0024L293.685 68.2694L293.338 56.2372L288.003 55.2005Z" fill="#3B8A71"/>
<path d="M291.24 34.3533L297.265 33.9781L300.838 44.1696L302.373 46.8509L302.523 48.9734L295.711 46.6026L288.375 42.2399L291.24 34.3533Z" fill="#5BBB9C"/>
<path d="M288.385 42.2462L286.34 48.5631L289.672 53.6704L293.132 56.2158L295.211 59.6088L298.057 61.7657L301.117 55.4838L302.534 48.9805L288.385 42.2462Z" fill="#459E82"/>
<path d="M302.527 48.9952L306.184 50.0745L311.951 53.3655L306.397 56.7263L301.813 60.4459L298.051 61.7759L302.527 48.9952Z" fill="#5BBB9C"/>
<path d="M286.349 48.558L283.399 56.771L288.556 57.4146L293.138 56.2087L286.349 48.558Z" fill="#5BBB9C"/>
<path d="M293.14 56.2214L292.069 62.9209L293.631 68.2643L297.771 64.2196L298.068 61.7729L293.14 56.2214Z" fill="#3B8970"/>
<path d="M293.63 68.2654L302.066 63.4731L306.407 56.7298L298.063 61.7787L293.63 68.2654Z" fill="#459E82"/>
<path d="M311.945 53.3614L300.835 44.1873L302.519 48.9905L311.945 53.3614Z" fill="#7CD0B4"/>
<path d="M282.71 51.4729L276.946 63.5594L282.369 67.4699L288.708 57.4453L282.71 51.4729Z" fill="#9ECB82"/>
<path d="M282.485 67.4432L281.813 61.815L271.878 57.0883L269.737 64.8203L282.485 67.4432Z" fill="#79AB67"/>
<path d="M269.477 59.3697L269.4 56.8307L270.18 55.5684L271.888 57.0921L269.477 59.3697Z" fill="#CCA88E"/>
<path d="M269.741 64.8305L267.704 61.4881L269.296 58.413L271.884 57.0918L269.741 64.8305Z" fill="#E3C8B3"/>
<path d="M267.682 61.4951L265.469 55.8655L267.986 53.8062L271.681 57.288L267.682 61.4951Z" fill="#CCA88E"/>
<g opacity="0.05">
<path d="M19.5959 75.714L22.3608 76.7349L20.5365 79.3694L14.7347 81.4826L3.8429 77.4394L6.77961 75.7411L10.186 73.5715L19.5959 75.714Z" fill="#383838"/>
</g>
<path d="M18.5326 75.6808L20.6385 77.3695L18.8334 78.2686L17.9951 77.0267L18.5326 75.6808Z" fill="#79AB67"/>
<path d="M20.7087 77.5939L18.255 80.0595L10.2737 79.1902L17.7639 77.5118L20.7087 77.5939Z" fill="#7F9D6B"/>
<path d="M17.5359 75.0404L20.732 74.6443L22.3372 76.6564L21.5057 77.6383L21.2448 78.3968L18.2727 77.8437L13.598 77.5329L17.5359 75.0404Z" fill="#C2E0A0"/>
<path d="M19.7111 76.2083C19.7058 76.4245 19.876 76.6049 20.0914 76.6109C20.3069 76.6173 20.4859 76.4468 20.4912 76.2304C20.4967 76.0142 20.3263 75.8339 20.1109 75.8278C19.8955 75.8217 19.7165 75.9919 19.7111 76.2083Z" fill="#7F9D6B"/>
<path d="M15.2971 76.4615L19.7557 77.3828L22.3345 76.6594L21.2423 78.397L13.5981 77.5355L15.2971 76.4615Z" fill="#79AB67"/>
<path d="M21.7044 75.0049L18.9642 78.0215L17.7641 77.5029L21.7044 75.0049Z" fill="#7F9D6B"/>
<path d="M16.3029 73.7596L19.7265 78.26L18.0776 79.5172L16.8078 77.8338L15.1321 74.7189L16.3029 73.7596Z" fill="#A5D692"/>
<path d="M15.133 74.7155L18.0827 79.5172L17.1605 79.6473L15.133 74.7155Z" fill="#79AB67"/>
<path d="M11.8685 76.5113L10.9348 77.4857L8.81533 76.7335L8.82441 78.4389L6.71698 77.7338L8.28971 74.5245L10.1488 75.3188L11.8685 76.5113Z" fill="#79AB67"/>
<path d="M10.9334 77.4867L8.24695 75.8136L8.82303 78.44L9.07168 77.1142L10.9334 77.4867Z" fill="#7F9D6B"/>
<path d="M9.92927 77.4649L7.57778 77.6222L6.67554 75.5774L8.15873 76.9959L9.90449 76.1659L9.92927 77.4649Z" fill="#79AB67"/>
<path d="M7.58066 77.6249L10.163 77.1005L10.0165 77.7795L7.58066 77.6249Z" fill="#7F9D6B"/>
<path d="M6.5273 74.2136L9.6529 72.2716L11.653 69.7529L15.9297 70.5827L18.7918 70.5644L21.7089 75.0099L19.4487 76.1333L17.7699 77.5069L13.9117 78.0475L10.2768 79.1871L8.39106 78.2883L6.43132 77.8058L6.5273 74.2136Z" fill="#459E82"/>
<path d="M11.6569 69.748L14.838 73.2784L18.794 70.5589L11.6569 69.748Z" fill="#7CD0B4"/>
<path d="M14.8334 73.2876L9.60449 74.1032L10.2748 79.1907L17.769 77.5101L14.8334 73.2876Z" fill="#3B8970"/>
<path d="M9.6133 74.104L11.6607 69.7536L6.53242 74.2169L9.6133 74.104Z" fill="#3B8970"/>
<path d="M21.1394 74.1421L17.1281 76.5861L17.7654 77.5025L21.7053 75.0045L21.1394 74.1421Z" fill="#7CD0B4"/>
<path d="M17.1287 76.5964L10.113 77.8613L10.2739 79.1917L17.7656 77.5123L17.1287 76.5964Z" fill="#5BBB9C"/>
<path d="M10.1157 77.8677L6.47192 76.2906L6.4312 77.8175L10.2767 79.1989L10.1157 77.8677Z" fill="#7CD0B4"/>
<path d="M17.7645 77.5086L15.9997 78.4363L15.7697 77.9558L17.7645 77.5086Z" fill="#7F9D6B"/>
</svg>
