<svg width="32" height="33" viewBox="0 0 32 33" fill="none" xmlns="http://www.w3.org/2000/svg">
    <defs>
        <linearGradient id="paint0_linear_373_11" x1="25.1489" y1="11.7684" x2="20.0635" y2="13.8238" gradientUnits="userSpaceOnUse">
            <stop stop-color="#FF9085"/>
            <stop offset="1" stop-color="#FC6DBD"/>
        </linearGradient>
    </defs>
    <circle cx="16.2418" cy="13.7603" r="11" transform="rotate(-17.1953 16.2418 13.7603)" fill="#FF5252"/>
    <path d="M5.77099 21.4678C5.8449 21.7289 5.97423 21.9549 6.13826 22.1417C7.45792 24.1703 10.6593 23.0915 15.3065 21.8964C16.0856 21.6954 15.8955 22.7274 16.1882 24.7978C16.3782 26.1444 17.7807 27.8928 19.1886 27.4946C21.5115 26.8404 18.7627 25.6424 19.5372 20.547C19.9543 17.8228 22.7884 18.4802 22.1077 16.0605L20.5501 10.5476C20.2831 9.60538 19.9325 8.72229 18.5589 8.95485C17.2256 9.17746 17.2579 8.17755 15.3953 8.70265L6.06787 11.3402C5.12022 11.6094 4.56507 12.5992 4.83202 13.5414C4.94016 13.9342 5.18309 14.2535 5.48885 14.4778C5.04826 14.9216 4.83824 15.5758 5.02353 16.2221C5.13168 16.6148 5.37241 16.9287 5.67492 17.1607C5.2289 17.6067 5.02432 18.2587 5.20417 18.9071C5.33545 19.3728 5.64501 19.7474 6.03788 19.9682C5.73659 20.381 5.61658 20.9292 5.77099 21.4678Z" fill="#FACB32"/>
    <path d="M11.4513 18.0079L7.00688 19.2665C6.39868 19.4364 5.92339 19.9195 5.76439 20.5278C5.69993 20.7753 5.84788 21.0318 6.09754 21.1017C6.34719 21.1716 6.60693 21.016 6.67139 20.7685C6.74441 20.4796 6.97557 20.2534 7.26388 20.1685L11.8161 18.879C12.2654 18.7543 12.7368 19.0129 12.8615 19.4622C12.9862 19.9116 12.7254 20.3776 12.2728 20.5099L9.23077 21.3725C8.98053 21.442 8.83335 21.7039 8.9083 21.952C8.97781 22.2022 9.23753 22.3439 9.48777 22.2744L12.5298 21.4118C13.4774 21.1427 14.0348 20.1583 13.7657 19.2107C13.6156 18.683 13.2396 18.2846 12.7694 18.0761C12.9988 17.6734 13.0744 17.1874 12.9388 16.7109C12.7887 16.1832 12.4127 15.7848 11.9425 15.5763C12.1719 15.1736 12.2421 14.6898 12.1119 14.2111C11.9497 13.6377 11.5158 13.2058 10.9912 13.0193C11.1794 12.6396 11.2355 12.1994 11.1098 11.7631C10.8407 10.8155 9.85304 10.2658 8.9054 10.5349L6.07335 11.3379C5.46515 11.5078 4.98986 11.9909 4.82866 12.5938C4.75876 12.8434 4.91215 13.0977 5.16181 13.1676C5.40926 13.2321 5.6712 13.082 5.73565 12.8345C5.81411 12.5434 6.03984 12.3193 6.32815 12.2344L9.1602 11.4314C9.60955 11.3067 10.081 11.5653 10.2057 12.0147C10.3303 12.464 10.0695 12.93 9.61695 13.0623L6.25502 14.0099C5.64683 14.1799 5.17153 14.6629 5.01253 15.2712C4.94264 15.5209 5.09603 15.7752 5.34568 15.8451C5.60078 15.9128 5.85508 15.7594 5.91953 15.5119C5.99799 15.2209 6.21608 14.9935 6.51203 14.9119L10.1623 13.8794C10.6116 13.7547 11.083 14.0133 11.2077 14.4626C11.3324 14.912 11.0716 15.378 10.619 15.5103L6.43566 16.695C5.82746 16.8649 5.35217 17.348 5.19097 17.9509C5.12108 18.2005 5.27447 18.4548 5.52412 18.5247C5.77702 18.587 6.03351 18.439 6.09797 18.1916C6.17643 17.9005 6.39672 17.6786 6.69047 17.5915L10.9892 16.3792C11.4385 16.2545 11.9099 16.5131 12.0346 16.9624C12.1724 17.4128 11.9061 17.881 11.4513 18.0079Z" fill="#EBA223"/>
    <path d="M19.6082 8.2019L22.5099 7.38336C23.0321 7.23554 23.4501 7.47146 23.5681 7.87292L26.006 16.5029C26.1186 16.9066 25.8881 17.3224 25.4844 17.4349L22.5827 18.2534C22.1791 18.366 21.7633 18.1355 21.6508 17.7318L19.2074 9.10403C19.0949 8.70037 19.3308 8.2824 19.6082 8.2019Z" fill="url(#paint0_linear_373_11)"/>
</svg>
