<svg width="31" height="30" viewBox="0 0 31 30" fill="none" xmlns="http://www.w3.org/2000/svg">
    <defs>
        <linearGradient id="paint0_linear_373_2" x1="6.78771" y1="21.9974" x2="11.6105" y2="19.3845" gradientUnits="userSpaceOnUse">
            <stop stop-color="#FF9085"/>
            <stop offset="1" stop-color="#FC6DBD"/>
        </linearGradient>
    </defs>
    <circle cx="19.6123" cy="14.7012" r="11" fill="#F9D8A7" fill-opacity="0.73"/>
    <path d="M24.9553 10.1856C24.8526 9.93438 24.6987 9.72424 24.5148 9.55708C22.9759 7.6893 19.9157 9.12042 15.4319 10.8293C14.6803 11.1164 14.7534 10.0695 14.2303 8.04503C13.8904 6.7283 12.3006 5.14824 10.9463 5.70187C8.71149 6.61249 11.5774 7.49453 11.3793 12.6447C11.2703 15.3985 8.38045 15.0631 9.32825 17.3912L11.4944 22.6946C11.8654 23.6009 12.3128 24.4391 13.6517 24.0539C14.9517 23.6832 15.0317 24.6804 16.8237 23.9497L25.7963 20.2825C26.7078 19.9087 27.1484 18.8629 26.7775 17.9566C26.626 17.5784 26.3487 17.2884 26.0198 17.0997C26.4078 16.6093 26.5431 15.9357 26.2865 15.3143C26.135 14.9361 25.8605 14.6512 25.5339 14.4547C25.9271 13.9615 26.0572 13.2906 25.8058 12.6664C25.6231 12.2184 25.2735 11.8809 24.8583 11.7056C25.1114 11.2616 25.1692 10.7034 24.9553 10.1856Z" fill="#FACB32"/>
    <path d="M19.6989 14.2608L23.9741 12.5116C24.5594 12.2745 24.9775 11.7411 25.0673 11.1189C25.1036 10.8657 24.9278 10.6274 24.6719 10.586C24.416 10.5445 24.1753 10.7283 24.139 10.9814C24.0989 11.2767 23.8945 11.5274 23.6176 11.6441L19.2388 13.4361C18.8063 13.6104 18.3088 13.4064 18.1345 12.9738C17.9602 12.5413 18.1671 12.049 18.602 11.8667L21.528 10.6683C21.7689 10.5712 21.8858 10.2944 21.7835 10.0564C21.6863 9.81549 21.4124 9.70378 21.1715 9.80092L18.2454 10.9993C17.334 11.3731 16.8905 12.4137 17.2643 13.3252C17.4725 13.8327 17.8909 14.1864 18.3815 14.3408C18.1987 14.7667 18.1781 15.2582 18.3664 15.7165C18.5746 16.224 18.993 16.5776 19.4836 16.7321C19.3008 17.158 19.2853 17.6466 19.4685 18.1077C19.6939 18.6593 20.1735 19.0398 20.7157 19.1663C20.5713 19.5647 20.5649 20.0084 20.7388 20.4278C21.1125 21.3393 22.1556 21.7748 23.0671 21.401L25.7911 20.2854C26.3764 20.0483 26.7946 19.515 26.8871 18.8978C26.9286 18.6419 26.7476 18.4064 26.4917 18.365C26.2386 18.3287 25.9951 18.5073 25.9588 18.7604C25.9135 19.0584 25.7144 19.3064 25.4374 19.4231L22.7133 20.5388C22.2808 20.7131 21.7833 20.509 21.609 20.0765C21.4347 19.6439 21.6416 19.1516 22.0765 18.9694L25.3109 17.6506C25.8962 17.4136 26.3143 16.8802 26.4041 16.2579C26.4455 16.002 26.2646 15.7665 26.0086 15.7251C25.7476 15.6864 25.5121 15.8673 25.4758 16.1205C25.4305 16.4185 25.2393 16.6689 24.9543 16.7832L21.443 18.2187C21.0104 18.393 20.513 18.1889 20.3387 17.7563C20.1644 17.3238 20.3713 16.8315 20.8062 16.6493L24.8302 15.0027C25.4155 14.7657 25.8336 14.2323 25.9262 13.6152C25.9676 13.3593 25.7867 13.1238 25.5307 13.0823C25.2725 13.0488 25.0342 13.2246 24.9979 13.4778C24.9526 13.7758 24.7586 14.021 24.4764 14.1405L20.3409 15.8274C19.9083 16.0017 19.4109 15.7976 19.2366 15.3651C19.0492 14.933 19.2612 14.4379 19.6989 14.2608Z" fill="#EBA223"/>
    <path d="M12.6935 24.9199L9.90192 26.0587C9.39956 26.2642 8.95776 26.0767 8.7955 25.691L5.40491 17.3889C5.2478 17.0004 5.43019 16.5614 5.81867 16.4043L8.61024 15.2654C8.99872 15.1083 9.43773 15.2907 9.59483 15.6792L12.9906 23.9785C13.1477 24.367 12.9601 24.8088 12.6935 24.9199Z" fill="url(#paint0_linear_373_2)"/>
</svg>
