<svg width="398" height="400" viewBox="0 0 398 400" fill="none" xmlns="http://www.w3.org/2000/svg">
<g opacity="0.1">
<path d="M288.42 389.4L141.79 381.549L2.73999 389.69L135.59 400L288.42 389.4Z" fill="#2B2B2B"/>
</g>
<path d="M243.86 24.3701L172.08 70.3099L157.509 56.5999L149.46 42.9899L157.74 36.9999L243.86 24.3701Z" fill="#27788B"/>
<path d="M115.78 57.3098L104.29 59.5997L34.59 108.49L118.87 91.5898L119.36 71.4098L115.78 57.3098Z" fill="#399FB9"/>
<path d="M118.87 91.5888L172.08 70.3089L149.46 42.9889L132.03 47.5888L115.78 57.3088L118.87 91.5888Z" fill="#308FA6"/>
<path d="M145.12 68.5688L127.39 40.7588L136.09 76.6088L150.43 107.959L163.303 139.952L172.525 133.163L161.32 106.299L145.12 68.5688Z" fill="#5EC0D9"/>
<path d="M136.57 48.2198L125.35 53.1997L136.09 76.6098L145.12 68.5698L136.57 48.2198Z" fill="#399FB9"/>
<path d="M156.48 40.0198L105.94 61.4196L105.21 40.5596L109.95 11.5796L115.22 7.36965L120.68 7.60967L143.68 24.4397L156.48 40.0198Z" fill="#5EC0D9"/>
<path d="M120.68 7.60864L243.86 24.3689L156.48 40.0187L120.68 7.60864Z" fill="#399FB9"/>
<path d="M109.95 11.5798L34.5901 108.49L105.94 61.4198L109.95 11.5798Z" fill="#308FA6"/>
<path d="M117.75 -0.000217984L107.18 3.82976L109.951 11.5798L120.68 7.60979L117.75 -0.000217984Z" fill="#399FB9"/>
<path d="M72.6599 327.65L77.4598 360.66L105.53 356.379L134.25 346.78L103.16 334.74L83.2099 330.103L72.6599 327.65Z" fill="#1C7678"/>
<path d="M77.4599 360.66L97.9199 366.87L109.74 368.42L134.25 346.78L77.4599 360.66Z" fill="#369395"/>
<path d="M109.74 368.419L137.28 387.539L104.97 389.299L75.6399 387.539L77.4599 360.659L109.74 368.419Z" fill="#155E5F"/>
<path d="M75.6399 387.54H137.28V394.07H75.6399V387.54Z" fill="#1C7678"/>
<path d="M269.54 179.589L242.03 207.429L228.74 236.009L266.4 259.199L278.4 229.839L277.15 206.319L269.54 179.589Z" fill="#50A9AA"/>
<path d="M277.151 206.32L288.701 206.32L321.121 206.32L322.97 215.48L319.5 232.17L266.401 259.2L277.151 206.32Z" fill="#71CACC"/>
<path d="M318.26 206.319L337.17 204.768L364.17 206.319L319.5 232.17L318.26 206.319Z" fill="#C3977A"/>
<path d="M381.938 198.244L357.828 197.567L336.785 204.443L336.825 204.59L363.962 206.576L381.938 198.244Z" fill="#8B6651"/>
<path d="M20.7501 286.74L10.56 267.469L2.73 266.139L0.000254173 341.019L6.42025 341.089L20.7501 286.74Z" fill="#1C7678"/>
<path d="M64.4699 262.67L31.68 271.53L39.58 293.68L56.6401 322.56L65.5001 299.22L67.2 282.75L64.4699 262.67Z" fill="#369395"/>
<path d="M31.68 271.53L25.7701 291.91L25.9202 310.59L56.6402 322.558L31.68 271.53Z" fill="#1C7678"/>
<path d="M25.9201 310.589L6.42017 341.089L10.5599 267.469L31.6799 271.529L25.9201 310.589Z" fill="#155E5F"/>
<path d="M57.2297 207.95L64.4698 262.67L67.1998 282.75L79.5298 244.21L83.7398 219.99L72.4397 212.23L57.2297 207.95Z" fill="#1C7678"/>
<path d="M269.54 180.33L227.15 252.62L168 231.28L68.0899 189.26L112.84 113.2L153.747 124.627L210.68 140.53L269.54 180.33Z" fill="#1C7678"/>
<path d="M161.681 137.609L164.684 162.107L172.21 187.12L197.98 192.14L206.62 195.91L221.83 197.83L234.76 203.29L247.912 188.434L255.339 192.835L248.808 215.792L230.99 246.269L198.87 366.87L56.6401 322.559L83.74 219.99L57.23 207.95L68.09 189.26L89.8 197.75L151.9 199.68L152.359 166.869L151.221 137.656L161.681 137.609Z" fill="#C4C4C4"/>
<path d="M83.741 219.99L138.311 262.809L120.151 293.46L163.94 343.38L209.35 327.21L225.68 266.139L110.921 211.86L83.741 219.99Z" fill="#8F8F8F"/>
<path d="M150.43 107.96L112.84 113.2L83.7396 219.99L119.78 212.53L151.9 199.68L153.31 155.81L150.43 107.96Z" fill="#71CACC"/>
<path d="M244.06 31.8998L277.509 56.4097L311.34 52.4996L269.539 180.33L228.7 171.39L206.62 195.91L189.049 165.63L166.89 105.45L175.019 106.11L179.59 103.68L176.491 78.7899L199.609 71.6298L202.929 99.1698L214.889 96.2898L205.289 35.2898L244.06 31.8998Z" fill="#DFBCA4"/>
<path d="M244.06 31.8998L204.56 160.54L227.959 167.92L216.37 180.11L206.62 195.91L201.9 178.78L193.549 166.22L166.89 105.45L179.59 103.75L194.14 102.42L201.23 101.17L215.629 98.3598L207.58 34.9198L244.06 31.8998Z" fill="#C3977A"/>
<path d="M193.85 94.5199L192.66 83.1399L182.92 84.1099L193.85 94.5199Z" fill="#8A6651"/>
<path d="M179.59 103.68L201.23 101.17L180.849 113.13L179.59 103.68Z" fill="#8A6651"/>
<path d="M264.96 119.259L256.32 123.099L251.96 115.189L264.96 119.259Z" fill="#8A6651"/>
<path d="M244.5 78.4897L253.59 85.8097L251.96 115.19L261.32 94.5196L263.12 78.4196L244.5 78.4897Z" fill="#C3977A"/>
<path d="M276.19 82.6997L267.36 94.5197L268.429 107.96L282.389 91.8597L292.21 90.6797L276.19 82.6997Z" fill="#C3977A"/>
<path d="M203.96 160.24L193.55 166.22L197.61 180.92L206.62 195.91L218.07 183.35L227.96 167.92L203.96 160.24Z" fill="#8A6651"/>
<path d="M277.66 77.6797L293.98 85.0697L292.21 90.6797L276.19 82.6997L277.66 77.6797Z" fill="#464646"/>
<path d="M264.67 73.3997L245.32 72.7297L244.5 78.4897L263.12 78.4197L264.67 73.3997Z" fill="#464646"/>
<path d="M224.86 120.589L277.15 137.059L250.12 143.779L224.86 120.589Z" fill="#C3977A"/>
<path d="M237.42 127.97L265.63 136.76L250.56 141.19L237.42 127.97Z" fill="white"/>
<path d="M264.96 8.11979L222.35 12.2499L232.17 26.7299L244.06 31.8998L277.22 60.1798L274.78 34.7798L264.96 8.11979Z" fill="#464646"/>
<path d="M222.35 12.2497L187.35 16.6798L199.681 31.4497L209.651 36.9897L244.06 31.8997L222.35 12.2497Z" fill="#6E7073"/>
<path d="M187.35 16.6799L176.49 78.7899L198.2 75.7599L201.23 101.17L217.33 99.2499L209.65 36.9899L187.35 16.6799Z" fill="#464646"/>
<path d="M277.22 60.1796L264.96 8.11963L311.34 52.4995L277.22 60.1796Z" fill="#8F8F8F"/>
<path d="M263.12 78.4197L276.19 82.6996L264.96 119.26L251.96 115.19L263.12 78.4197Z" fill="#E8C9B6"/>
<path d="M166.89 105.45L168.22 156.84L172.21 187.12L206.62 195.91L193.55 166.22L166.89 105.45Z" fill="#50A9AA"/>
<path d="M227.96 167.92L206.62 195.91L221.54 199.82L234.76 203.29L245.25 190.22L252.63 175.31L227.96 167.92Z" fill="#71CACC"/>
<path d="M151.9 199.68L172.21 187.12L166.89 105.45L150.43 107.96L151.9 199.68Z" fill="#DDDDDC"/>
<path d="M234.76 203.29L246.651 219.47L269.54 180.33L252.63 175.31L234.76 203.29Z" fill="#DDDDDC"/>
<path d="M390.09 136.31L295.7 136.31L295.7 153.14L358.85 155.36L390.09 153.14L390.09 136.31Z" fill="#308FA6"/>
<path d="M390.09 166.47L348.62 168.35L295.7 166.47L295.7 153.14L390.09 153.14L390.09 166.47Z" fill="#5EC0D9"/>
<path d="M390.09 166.47L295.7 166.47L295.7 179.8L344.58 181.01L390.09 179.8L390.09 166.47Z" fill="#399FB9"/>
<path d="M390.09 186.46L343.37 187L295.7 186.46L295.7 179.8L390.09 179.8L390.09 186.46Z" fill="#5EC0D9"/>
<path d="M390.09 186.46L295.7 186.46L295.7 192.99L347.41 194L390.09 192.99L390.09 186.46Z" fill="#308FA6"/>
<path d="M390.09 199.66L345.18 201.01L295.7 199.66L295.7 192.99L390.09 192.99L390.09 199.66Z" fill="#5EC0D9"/>
<path d="M397.09 199.66L288.7 199.66L288.7 206.32L397.09 206.32L397.09 199.66Z" fill="#27788B"/>
<path d="M314.55 136.31L295.64 136.31L305.13 145.67L314.55 136.31L333.401 136.31L342.83 145.67L352.321 136.31L371.17 136.31L380.66 145.67L390.09 136.31L371.17 136.31L361.75 145.67L352.321 136.31L333.401 136.31L323.91 145.67L314.55 136.31Z" fill="#5EC0D9"/>
<path d="M385.371 104.06L380.6 98.2239L375.795 104.06L380.6 111.06L385.371 104.06Z" fill="#E4C728"/>
<path d="M366.251 104.06L361.611 98.2239L356.745 104.06L361.611 111.06L366.251 104.06Z" fill="#E4C728"/>
<path d="M328.551 104.06L323.781 98.2239L318.975 104.06L323.781 111.06L328.551 104.06Z" fill="#E4C728"/>
<path d="M309.432 104.06L304.79 98.2239L299.924 104.06L304.79 111.06L309.432 104.06Z" fill="#E4C728"/>
<path d="M383.29 108.57L377.97 108.57L377.97 136.91L383.29 136.91L383.29 108.57Z" fill="#308FA6"/>
<path d="M326.47 108.57L321.151 108.57L321.151 136.91L326.47 136.91L326.47 108.57Z" fill="#308FA6"/>
<path d="M364.17 108.57L358.92 108.57L358.92 136.91L364.17 136.91L364.17 108.57Z" fill="#308FA6"/>
<path d="M307.35 108.57L302.1 108.57L302.1 136.91L307.35 136.91L307.35 108.57Z" fill="#308FA6"/>
<path d="M353.87 125.47L331.92 125.47L342.83 136.51L353.87 125.47Z" fill="#27788B"/>
<path d="M353.87 125.47L342.83 114.5L331.92 125.47L353.87 125.47Z" fill="#5EC0D9"/>
<path d="M168.59 228.25L186.09 234.68L177.23 239.92L168.59 228.25Z" fill="#C3977A"/>
<path d="M203.81 224.268L222.429 232.088L252.26 281.939L168.22 329.349L161.72 317.759L234.76 276.329L203.81 224.268Z" fill="#27788B"/>
<path d="M217.03 235.269L222.429 232.088L203.809 224.269L208.25 231.65L212.38 234.749L217.03 235.269Z" fill="#27788B"/>
<path d="M208.25 231.649L217.03 235.268L243.1 279.798L236.53 279.129L234.76 276.329L219.25 254.91L208.25 231.649Z" fill="#DDDDDC"/>
<path d="M234.76 276.329L243.1 279.799L169.33 321.23L161.72 317.76L202.34 291.469L234.76 276.329Z" fill="#C4C4C4"/>
<path d="M203.81 224.269L124.21 271.09L151.241 323.741L234.76 276.33L203.81 224.269Z" fill="#399FB9"/>
<path d="M179.3 272.049L152.94 277.509L138.31 262.809L148.73 256.389L179.3 272.049Z" fill="#27788B"/>
<path d="M168.59 228.25L152.27 234.75L142.97 242.95L154.49 269.76L170.88 262.52L185.58 251.29L168.59 228.25Z" fill="#DFBCA4"/>
<path d="M185.58 251.29L179.3 272.05L154.49 269.76L185.58 251.29Z" fill="#8A6651"/>
<path d="M83.7398 219.99L142.97 242.95L168.59 228.25L151.9 199.68L83.7398 219.99Z" fill="#50A9AA"/>
<path d="M281.13 92.3797C278.817 92.3297 276.901 94.1647 276.85 96.4777C276.849 96.5387 276.849 96.5987 276.85 96.6597C276.735 99.0257 278.562 101.038 280.928 101.152C283.295 101.266 285.306 99.4406 285.42 97.0736C285.427 96.9356 285.427 96.7976 285.42 96.6596C285.471 94.3466 283.636 92.4296 281.322 92.3797C281.258 92.3787 281.194 92.3787 281.13 92.3797Z" fill="#2B2B2B"/>
<path d="M250.34 83.9998C247.954 83.9888 246.01 85.9138 245.999 88.2998L245.999 88.3098C245.998 90.6958 247.932 92.6308 250.318 92.6318C252.703 92.6328 254.638 90.6998 254.639 88.3138L254.639 88.3098C254.645 85.9348 252.724 84.0048 250.349 83.9998L250.34 83.9998Z" fill="#2B2B2B"/>
</svg>
