<svg width="217" height="400" viewBox="0 0 217 400" fill="none" xmlns="http://www.w3.org/2000/svg">
<path d="M130.61 165.49L159.04 206.8L152.779 218.897L143.28 237.25V224.29L147.17 207.019L140.4 195.07L130.61 165.49Z" fill="#8F8F8F"/>
<path d="M180.93 216.23L191.151 232.719L179.34 237.61L153.64 244.16L142.92 237.25L141.691 228.179L141.96 219.691L180.93 216.23Z" fill="#464646"/>
<path d="M151.92 27.0691L109.01 37.7191L70.4299 51.8291L73.5999 69.5291L83.7499 90.2691L79.2899 90.0491L76.1199 95.2991L71.1499 86.0191L67.1199 81.9891L60.7199 85.0791L53.8099 92.8591L55.8199 97.6091L61.5099 104.229L66.6199 111.719L87.0599 157.129L123.05 164.039L122.76 143.169L126.07 129.279L141.55 123.589L164.59 116.899L162.14 73.9191L151.92 27.0691Z" fill="#DFBCA4"/>
<path d="M105.85 81.7L112.18 66.8L129.1 66.37L139.1 91.49L131.62 57.23L114.13 58.23L103.69 66.37L99.37 73.92L105.85 81.7Z" fill="#C3977A"/>
<path d="M157.821 54.0599L146.52 62.2699L145.799 77.3799L135.43 53.9099L157.821 54.0599Z" fill="#C3977A"/>
<path d="M101.82 88.609L137.59 87.529L137.16 82.489L101.82 88.609Z" fill="#C3977A"/>
<path d="M162.21 75.509L147.67 85.299L146.37 79.969L162.21 75.509Z" fill="#C3977A"/>
<path d="M81.88 48.3701L97.28 61.7601L101.82 88.6101L104.91 128.99L123.05 164.04L106.42 162.53L87.06 157.13L80.918 143.484L66.62 111.72L77.85 105.09L76.12 95.3001L83.75 90.2701L70.43 51.8301L81.88 48.3701Z" fill="#C3977A"/>
<path d="M66.62 111.72L77.85 105.09L74.47 129.06L66.62 111.72Z" fill="#8A6651"/>
<path d="M164.59 116.899L94.47 130.649L112.691 162.029L117.01 164.759L123.05 164.039L126.07 129.279L164.59 116.899Z" fill="#8A6651"/>
<path d="M103.69 52.1899L115.21 58.7399L131.11 54.5599L103.69 52.1899Z" fill="#2B2B2B"/>
<path d="M137.161 48.0089L145.51 38.6489L152.559 40.1689L137.161 48.0089Z" fill="#2B2B2B"/>
<path d="M131.11 54.56L139.099 91.49L148.82 90.05L139.82 53.27L131.11 54.56Z" fill="#E8C9B6"/>
<path d="M139.1 91.49L144.289 96.67L148.821 90.05L139.1 91.49Z" fill="#8A6651"/>
<path d="M111.53 103.15L133.2 103.01L143.85 107.47L130.179 108.12L121.9 107.32L119.67 106.97L117.009 105.31L111.53 103.15Z" fill="#27788B"/>
<path d="M116.72 105.24L122.12 111.14L143.85 107.47L121.901 107.32L116.72 105.24Z" fill="#399FB9"/>
<path d="M60.9299 95.5891L65.8999 90.5491L71.1499 98.3991L60.9299 95.5891Z" fill="#8A6651"/>
<path d="M111.821 0L113.121 20.371L118.731 37.14L151.921 27.069L111.821 0Z" fill="#464646"/>
<path d="M111.821 0L46.61 22.31L41.859 33.69L42.149 43.259L55.97 48.95L70.43 51.83L81.88 48.37L118.731 37.139L111.821 0Z" fill="#6E7073"/>
<path d="M42.15 43.259L39.41 50.169L40.13 55.499L35.02 86.019L57.62 82.419L78.28 74.569L70.43 51.829L42.15 43.259Z" fill="#464646"/>
<path d="M35.02 86.0201L78.28 74.5701L83.75 90.2701L76.12 95.3001L67.12 81.9901L53.81 92.8601L61.51 104.23L35.02 86.0201Z" fill="#2B2B2B"/>
<path d="M40.06 55.6401L18.61 53.7001L29.4 39.5201L46.61 22.3101L42.15 43.2601L40.06 55.6401Z" fill="#2B2B2B"/>
<path d="M46.61 22.3101L19.83 8.3501L0.829956 72.7001L18.61 53.7001L46.61 22.3101Z" fill="#6E7073"/>
<path d="M87.06 157.129L130.61 165.489L126.15 176.139L116.57 188.519L92.96 176.789L78.35 162.389L87.06 157.129Z" fill="#464646"/>
<path d="M78.3499 162.389L63.8099 169.799L69.6399 190.099L79.2199 210.689L87.4899 213.999L116.93 217.018L147.17 207.018L130.61 165.489L116.57 188.519L78.3499 162.389Z" fill="#71CACC"/>
<path d="M79.22 210.69L147.17 207.019L140.4 255.679L118.3 256.901L91.67 252.799L79.22 210.69Z" fill="#1C7678"/>
<g opacity="0.1">
<path d="M42.4299 388.269L127.44 376.32L207.2 389.349L126.94 400L42.4299 388.269Z" fill="#2B2B2B"/>
</g>
<path d="M83.8199 366.309L77.4099 380.209L82.0899 392.509L83.8199 366.309Z" fill="#464646"/>
<path d="M102.39 372.429L99.66 364.009L83.82 366.309L82.31 383.231L82.09 387.481L99.95 383.231L103.98 376.969L102.39 372.429Z" fill="#C3977A"/>
<path d="M82.09 387.48L103.98 376.969L110.81 387.48L100.09 389.559L82.09 387.48Z" fill="#6E7073"/>
<path d="M82.09 392.509H110.81V387.48H82.09V392.509Z" fill="#464646"/>
<path d="M88.5699 305.559L83.1799 367.539L100.95 367.969L103.98 301.749L88.5699 305.559Z" fill="#1C7678"/>
<path d="M145.97 386.69L141.87 386.54L139.21 370.269L143.09 359.12L151.52 365.669L149.361 372.139L145.97 386.69Z" fill="#464646"/>
<path d="M165.92 366.679L161.86 358.95L143.09 359.119L152.52 377.61L154.83 380.57L165.26 377.469L168.33 370.579L165.92 366.679Z" fill="#C3977A"/>
<path d="M154.83 381.57L168.33 370.58L180.89 381.57L167.059 383.66L154.83 381.57Z" fill="#6E7073"/>
<path d="M149.5 371.71L147.2 374.16L146.91 379.63L158.28 386.83H180.89V381.57H162.1L149.5 371.71Z" fill="#464646"/>
<path d="M91.6699 252.8L114.27 279.79L128.02 288.57L139.75 277.629L140.4 255.68L91.6699 252.8Z" fill="#71CACC"/>
<path d="M91.6709 252.799L128.021 288.57L131.982 329.599L100.95 367.969L74.8199 282.169L91.6709 252.799Z" fill="#369395"/>
<path d="M140.401 255.679L152.421 312.619L142.34 306.499L128.019 288.57L140.401 255.679Z" fill="#50A9AA"/>
<path d="M128.02 288.569L152.42 312.619L161.861 358.949L100.951 367.968L128.02 288.569Z" fill="#1C7678"/>
<g opacity="0.2">
<path d="M76.21 286.7L79.22 296.59L142.27 242.36L142.92 237.25L85.19 264.309L76.21 286.7Z" fill="#2B2B2B"/>
</g>
<path d="M201.87 218.099L208.64 209.75L204.25 206.731L198.7 210.69L198.78 214.94L201.87 218.099Z" fill="#C3977A"/>
<path d="M63.81 169.799L29.76 224.869L48.26 221.699L61.36 215.73L79.14 210.549L63.81 169.799Z" fill="#8F8F8F"/>
<path d="M61.44 215.73L70.65 247.98L63.96 253.519L56.47 254.09L29.76 224.871L61.44 215.73Z" fill="#464646"/>
<path d="M42.4299 269.861L51.4999 286.701L216.63 197.371L207.49 180.53L42.4299 269.861ZM55.4299 279.941C54.2539 280.574 52.7869 280.156 52.1199 279C51.5449 277.861 51.9569 276.471 53.0599 275.831C54.2349 275.186 55.7089 275.605 56.3699 276.77C56.9989 277.88 56.6089 279.291 55.4989 279.92C55.4859 279.926 55.4729 279.933 55.4599 279.941H55.4299Z" fill="#5EC0D9"/>
<path d="M210.8 186.58L45.5999 275.9L42.4299 269.86L207.49 180.53L210.8 186.58Z" fill="#73CFE4"/>
<path d="M51.2099 272.809L49.3399 273.82L46.0299 267.839L48.0499 266.69L51.2099 272.809Z" fill="#308FA6"/>
<path d="M54.74 268.269L53.88 268.709L51.72 264.749L52.58 264.309L54.74 268.269Z" fill="#308FA6"/>
<path d="M59.3499 265.75L58.4899 266.26L56.3199 262.23L57.1899 261.8L59.3499 265.75Z" fill="#308FA6"/>
<path d="M63.9599 263.239L63.0899 263.808L60.9299 259.78L61.7899 259.28L63.9599 263.239Z" fill="#308FA6"/>
<path d="M70.65 262.299L68.78 263.379L65.47 257.329L67.48 256.249L70.65 262.299Z" fill="#308FA6"/>
<path d="M74.2499 257.77L73.3099 258.27L71.1499 254.31L72.0199 253.731L74.2499 257.77Z" fill="#308FA6"/>
<path d="M83.3899 252.799L82.5299 253.231L80.3699 249.269L81.2299 248.84L83.3899 252.799Z" fill="#308FA6"/>
<path d="M90.0899 251.79L88.2099 252.8L84.8999 246.75L86.9199 245.74L90.0899 251.79Z" fill="#308FA6"/>
<path d="M93.6799 247.259L92.7499 247.691L90.5199 243.731L91.5199 243.3L93.6799 247.259Z" fill="#308FA6"/>
<path d="M98.2199 244.739L97.3499 245.308L95.1899 241.209L96.0599 240.78L98.2199 244.739Z" fill="#308FA6"/>
<path d="M102.83 242.29L101.96 242.79L99.7999 238.84L100.67 238.26L102.83 242.29Z" fill="#308FA6"/>
<path d="M109.59 241.28L107.65 242.36L104.41 236.309L106.28 235.24L109.59 241.28Z" fill="#308FA6"/>
<path d="M113.12 236.75L112.18 237.25L110.02 233.29L110.96 232.72L113.12 236.75Z" fill="#308FA6"/>
<path d="M117.72 234.299L116.861 234.731L114.7 230.77L115.56 230.27L117.72 234.299Z" fill="#308FA6"/>
<path d="M122.26 231.78L121.401 232.21L119.24 228.25L120.1 227.82L122.26 231.78Z" fill="#308FA6"/>
<path d="M129.03 230.769L127.16 231.78L123.84 225.73L125.719 224.73L129.03 230.769Z" fill="#308FA6"/>
<path d="M132.48 226.24L131.62 226.67L129.459 222.71L130.32 222.28L132.48 226.24Z" fill="#308FA6"/>
<path d="M137.161 223.79L136.221 224.29L134.059 220.19L135.001 219.76L137.161 223.79Z" fill="#308FA6"/>
<path d="M141.69 221.269L140.83 221.769L138.669 217.81L139.54 217.241L141.69 221.269Z" fill="#308FA6"/>
<path d="M148.46 220.339L146.59 221.339L143.28 215.299L145.22 214.219L148.46 220.339Z" fill="#308FA6"/>
<path d="M151.92 215.73L151.05 216.23L148.89 212.27L149.76 211.77L151.92 215.73Z" fill="#308FA6"/>
<path d="M156.59 213.28L155.66 213.71L153.5 209.75L154.441 209.25L156.59 213.28Z" fill="#308FA6"/>
<path d="M161.2 210.759L160.19 211.191L158.03 207.231L159.04 206.8L161.2 210.759Z" fill="#308FA6"/>
<path d="M168.18 209.61L166.31 210.69L163 204.64L164.87 203.64L168.18 209.61Z" fill="#308FA6"/>
<path d="M171.64 205.07L170.77 205.58L168.62 201.549L169.481 201.12L171.64 205.07Z" fill="#308FA6"/>
<path d="M176.321 202.559L175.381 203.129L173.219 199.1L174.161 198.6L176.321 202.559Z" fill="#308FA6"/>
<path d="M180.93 200.18L179.991 200.61L177.83 196.58L178.691 196.08L180.93 200.18Z" fill="#308FA6"/>
<path d="M187.62 199.1L185.75 200.18L182.44 194.13L184.38 193.06L187.62 199.1Z" fill="#308FA6"/>
<path d="M191.071 194.64L190.21 195.07L188.049 191.11L188.92 190.53L191.071 194.64Z" fill="#308FA6"/>
<path d="M195.75 192.12L194.82 192.55L192.66 188.59L193.59 188.16L195.75 192.12Z" fill="#308FA6"/>
<path d="M200.361 189.6L199.5 190.1L197.339 186.07L198.201 185.64L200.361 189.6Z" fill="#308FA6"/>
<path d="M207.06 188.589L205.18 189.599L201.87 183.619L203.81 182.619L207.06 188.589Z" fill="#308FA6"/>
<path d="M56.47 254.09L66.83 278.42L75.76 275.901L91.15 265.249L70.65 247.981L56.47 254.09Z" fill="#DFBCA4"/>
<path d="M91.15 265.25L66.83 278.42L76.21 286.7L91.15 265.25Z" fill="#8A6651"/>
<path d="M201.87 218.099L192.15 234.3L179.34 237.61L175.53 230.481L184.599 218.61L201.87 218.099Z" fill="#8A6651"/>
<path d="M194.6 201.19L179.63 211.549L175.531 230.48L201.871 218.099L194.6 201.19Z" fill="#DFBCA4"/>
<path d="M157 63C157.017 65.049 155.369 66.723 153.32 66.74C151.271 66.756 149.597 65.108 149.58 63.06C149.563 61.015 151.205 59.342 153.25 59.32C155.299 59.298 156.978 60.941 157 62.99V63Z" fill="#2B2B2B"/>
<path d="M123.07 71.5492C123.07 73.5762 121.426 75.2192 119.4 75.2192C117.373 75.2192 115.73 73.5762 115.73 71.5492C115.73 69.5222 117.373 67.8792 119.4 67.8792C121.422 67.8902 123.058 69.5272 123.07 71.5492Z" fill="#2B2B2B"/>
<path d="M171.21 44.6299L97.2789 61.7599L101.82 88.6099L137.16 82.4899L132.26 59.8799L140.97 57.8799L146.371 79.8799L176.371 71.4599L171.21 44.6299ZM103.691 66.3699L127.38 60.9999L130.919 77.3999L105.85 81.6999L103.691 66.3699ZM149.691 73.3699L145.309 57.2899L166.769 51.8099L169.549 66.9999L149.691 73.3699Z" fill="#308FA6"/>
</svg>
