<svg width="176" height="400" viewBox="0 0 176 400" fill="none" xmlns="http://www.w3.org/2000/svg">
<path d="M101.78 165.68L112.03 170.28L146.28 220.84L121.21 208.98L101.78 196.52V165.68Z" fill="#50A9AA"/>
<path d="M48.21 173.91L17.88 238.24L43.22 224.019L59.88 215.84L48.21 173.91Z" fill="#50A9AA"/>
<path d="M101.781 165.68L90.311 194.97L74.18 201.87L90.661 189.49L69.2 163.26L48.21 173.91L55.33 213.67L46.29 240.74L33.509 268.43H65.65L101.781 261.97L111.461 248.769L121.211 208.98L101.781 165.68Z" fill="#71CACC"/>
<path d="M55.33 213.669L46.29 240.74L77.36 240.59L111.18 246.02L120.51 218.639L121.21 208.98L55.33 213.669Z" fill="#369395"/>
<path d="M101.781 165.68L65.65 164.82V206.61L90.31 194.97L117.64 201.019L101.781 165.68Z" fill="white"/>
<g opacity="0.2">
<path d="M43.3201 247.17L46.2901 240.74L86.4701 240.59L104.712 246.561L111.46 248.77L101.78 261.97L43.3201 247.17Z" fill="#2B2B2B"/>
</g>
<g opacity="0.1">
<path d="M0.560059 392.33L95.6501 377.059L175.2 391.38L102.019 400L0.560059 392.33Z" fill="black"/>
</g>
<path d="M95.6101 341.25L110.86 366.39L119.21 368.01L123.1 364.33L121.21 343.93L95.6101 341.25Z" fill="#C3977A"/>
<path d="M80.67 339.759L78.04 368.03L67.48 371.509L65.12 366.759L55.65 337.19L80.67 339.759Z" fill="#C3977A"/>
<path d="M123.1 364.33L134.661 375L123.539 387.35L110.009 385.47L110.86 366.39L123.1 364.33Z" fill="#27788B"/>
<path d="M78.04 368.03L85.95 388.969L72.04 391.051L58.26 388.969L65.12 366.759L78.04 368.03Z" fill="#27788B"/>
<path d="M121.21 343.93L100.54 349.379L95.6101 341.25L108.41 340.031L121.21 343.93Z" fill="#8A6651"/>
<path d="M55.65 337.19L80 347.03L80.67 339.759L68.7 337.19H55.65Z" fill="#8A6651"/>
<path d="M101.781 261.97L83.071 295.731L51.72 325.18L33.509 268.43L60.063 265.917L101.781 261.97Z" fill="#369395"/>
<path d="M101.78 261.97L109.849 275.52L118.69 318.389V340.03L55.6501 337.19L51.7201 325.18L101.78 261.97Z" fill="#50A9AA"/>
<path d="M55.65 337.19L86.469 327.999L107.433 321.747L118.691 318.389L121.21 343.929L55.65 337.19Z" fill="#369395"/>
<path d="M101.78 261.97L116.237 310.205L118.69 318.39L111.46 248.77L101.78 261.97Z" fill="#369395"/>
<path d="M134.66 375L119.76 385.47H110.01V388.65H149.57V381.47L134.66 375Z" fill="#399FB9"/>
<path d="M77.3 380.88H67.04L58.26 388.97V392.26H85.95V388.97L77.3 380.88Z" fill="#399FB9"/>
<path d="M55.33 213.67L84.67 232.06L86.47 237.72L84.67 244.12L17.88 238.24L55.33 213.67Z" fill="#DFBCA4"/>
<path d="M138.94 58.25L161.01 72.32L143.639 95.84L138.94 77.05V58.25Z" fill="#4F5252"/>
<path d="M93.66 0L19.6801 32.96L30.2101 51.56L38.9301 58.25L68.3601 52.56L101.13 34.95L100.13 19.66L93.66 0Z" fill="#71CACC"/>
<path d="M101.13 34.95L117.01 48.98L138.94 58.25L144.95 21.38L93.66 0L101.13 34.95Z" fill="#8BDFDC"/>
<path d="M19.6801 32.96L24.1901 77.05L34.4001 68.28L38.9301 58.25L19.6801 32.96Z" fill="#369395"/>
<path d="M95.1799 7.09009L92.2189 8.29009L93.8089 16.7501L86.7209 19.6001L87.7889 25.2101L95.1589 22.4101L96.8389 30.1601L99.8789 29.1301L100.129 19.6601L95.1799 7.09009Z" fill="#27788B"/>
<path d="M95.1801 7.09009L98.6691 8.80009L100.35 16.0201L107.57 19.4901L107.469 24.5301L101.559 21.8901L103.19 30.1901L99.8801 29.1301L95.1801 7.09009Z" fill="#308FA6"/>
<path d="M138.94 58.25L149.91 146.06L106.519 153.03L90.3101 194.97L55.5491 146.14L31.2001 122.7L47.8791 113.53L52.1691 118.36L68.1201 78.77L82.4401 70.16L100.129 62.29L138.94 58.25Z" fill="#DFBCA4"/>
<path d="M68.121 78.77L78.871 158.15L106.519 153.03L97.831 161.3L100.131 169.57L90.31 194.97L47.581 142.57L44.511 135.77L40.041 133.33L26.641 116.89L43.321 102.77L51.001 120.1L56.681 103.77L68.121 78.77Z" fill="#C3977A"/>
<path d="M131.67 81.1799L115.66 103.26L107.93 113.55L84.85 88.6999L131.67 81.1799Z" fill="#C3977A"/>
<path d="M103.87 85.5801L107.93 113.55L117.01 112.3L112.78 84.1201L103.87 85.5801Z" fill="#E8C9B6"/>
<path d="M117.01 112.3L113.06 118.36L107.93 113.55L117.01 112.3Z" fill="#8A6651"/>
<path d="M106.52 153.03L100.129 169.57L70.6 158.23L106.52 153.03Z" fill="#8A6651"/>
<path d="M50.76 126.61L47.59 142.58L40.05 133.34L50.76 126.61Z" fill="#8A6651"/>
<path d="M47.26 123.92L41.38 113.74L33.51 118.36L47.26 123.92Z" fill="#8A6651"/>
<path d="M97.83 70.16L102.97 52.56L101.13 34.95L38.93 58.25L9.39001 95.6399L39.25 88.7L68.12 78.77L81.02 75.0299L97.83 70.16Z" fill="#4F5252"/>
<path d="M68.12 78.77L52 122.1L43.32 107.72L26.64 116.89L9.39001 95.64L68.12 78.77Z" fill="#2B2B2B"/>
<path d="M101.13 34.95L138.94 58.25L97.8301 70.16L101.13 34.95Z" fill="#6E7073"/>
<path d="M121.21 208.98L116.84 225.11L119.38 238.24L144.72 232.349L146.28 220.839L121.21 208.98Z" fill="#DFBCA4"/>
<path d="M119.38 238.24L111.46 248.769L84.67 244.12L106.52 235.469L119.38 238.24Z" fill="#8A6651"/>
<path d="M119.38 238.24L111.46 248.769L108.41 239.099L119.38 238.24Z" fill="#C3977A"/>
<path d="M84.67 232.059L102.97 220.839L107.93 227.769L108.41 239.099L84.67 244.12V232.059Z" fill="#C3977A"/>
<path d="M102.97 220.84L116.84 225.111L119.38 238.24L108.41 239.1L108.238 238.522L102.97 220.84Z" fill="#E8C9B6"/>
<path d="M103.87 85.5799L102.93 79.3899L84.8501 88.6999L103.87 85.5799Z" fill="#4F5252"/>
<path d="M112.78 84.1199L131.67 81.1799L112.09 78.1399L112.78 84.1199Z" fill="#4F5252"/>
<path d="M104.8 130.13L114.071 124.36L124.21 127.04L115.151 132.44L104.8 130.13Z" fill="#1C7678"/>
<path d="M97 129.15L116.19 137.3L130.65 123.92L115.15 131.44L97 129.15Z" fill="#50A9AA"/>
<path d="M100.741 99.49C100.741 101.854 98.8241 103.77 96.4601 103.77C94.0961 103.77 92.1791 101.854 92.1791 99.49C92.1791 97.126 94.0961 95.21 96.4601 95.21C98.8241 95.21 100.741 97.126 100.741 99.49Z" fill="#2B2B2B"/>
<path d="M127.38 95.209C127.386 97.573 125.474 99.494 123.11 99.499C120.746 99.504 118.824 97.594 118.819 95.23C118.814 92.866 120.726 90.944 123.089 90.939H123.11C125.469 90.939 127.38 92.851 127.38 95.209Z" fill="#2B2B2B"/>
</svg>
