<svg width="213" height="400" viewBox="0 0 213 400" fill="none" xmlns="http://www.w3.org/2000/svg">
<g opacity="0.1">
<path d="M0.39801 388.049L104.286 380.418L202.774 388.337L108.678 400L0.39801 388.049Z" fill="#2B2B2B"/>
</g>
<path d="M91.182 387.688L113.284 387.976L113.212 383.081L73.112 378.906L86.431 389.056L91.182 387.688Z" fill="#27788B"/>
<path d="M62.744 380.921L54.825 386.752L54.753 391.576L91.327 392.513L91.183 387.688L62.744 380.921Z" fill="#27788B"/>
<path d="M100.902 273.362L108.606 270.41L134.308 272.209L113.501 324.621L91.326 343.412L75.488 340.531L76.496 299.351L100.902 273.362Z" fill="#4F5252"/>
<path d="M113.501 324.621L97.445 363.642L88.446 367.171L75.487 371.13L87.006 330.813L113.501 324.621Z" fill="#6E7073"/>
<path d="M97.446 363.642L113.213 383.08H77.935L77.791 375.521L81.679 365.659L97.446 363.642Z" fill="#308FA6"/>
<path d="M91.903 301.511L87.008 330.813L65.696 348.74L49.786 329.733L41.939 294.313L67.138 278.905L91.903 301.511Z" fill="#6E7073"/>
<path d="M125.956 261.267L134.308 272.209L98.094 293.663L81.534 272.57L125.956 261.267Z" fill="#464646"/>
<path d="M87.008 330.813L81.68 365.659L72.32 375.089L58.641 369.546L49.786 329.733L87.008 330.813Z" fill="#4F5252"/>
<path d="M81.68 365.659L91.182 387.687L54.826 386.752L58.641 369.547L81.68 365.659Z" fill="#399FB9"/>
<path d="M91.902 301.511L44.746 307.612L41.808 293.8L51.687 295.32L91.902 301.511Z" fill="#464646"/>
<path d="M123.363 7.05591L92.406 13.3919L74.479 21.1659L59.144 15.9839H37.042L42.585 27.3589L52.088 32.1109L46.473 46.0769L47.985 60.1879L53.24 77.4669L63.031 91.2889L58.712 91.7929L55.257 95.2479L52.665 87.4739L46.041 75.3059L34.45 77.8269L27.034 82.5059L38.409 101.873L46.617 111.808L46.905 119.007L52.376 128.15L55.832 132.326L55.329 136.79L69.511 145.573L91.686 154.428L97.806 148.165L100.686 140.605V126.638L142.226 117.784L135.243 69.4029L137.114 60.0429L133.66 43.5579L129.771 38.8769L123.363 7.05591Z" fill="#DFBCA4"/>
<path d="M55.762 18.5739L65.481 51.4749L71.96 81.9279L83.552 129.949L100.686 126.638L99.102 133.333L100.686 140.604L91.686 154.427L55.329 136.789L46.402 118.215L40.643 101.872L55.259 95.2469L51.604 87.3649L50.613 80.1429L56.624 82.3609L47.986 60.1859L48.059 46.9399L52.089 32.1089L43.882 25.7729L37.042 15.9829L48.994 16.6309L55.762 18.5739Z" fill="#C3977A"/>
<path d="M40.643 101.872L55.257 95.2471L46.401 118.215L41.001 108.782L40.643 101.872Z" fill="#8A6651"/>
<path d="M100.686 126.637L76.352 131.317L91.686 154.427L98.382 147.949L100.686 140.604V126.637Z" fill="#8A6651"/>
<path d="M77.432 73.4339L78.728 59.8269L91.902 56.6589L98.31 70.6979L71.96 81.9299L99.39 79.1209L104.645 83.8009L97.158 45.3569L74.408 57.4519L71.889 65.8739L77.432 73.4339Z" fill="#C3977A"/>
<path d="M120.196 64.0741L120.484 52.2671L132.435 48.3801L135.818 50.1791L135.243 65.5861L113.788 73.5771L114.581 77.9711L135.243 69.4021L138.915 56.2991L134.523 40.9651L112.709 47.1561L114.509 64.5791L120.196 64.0741Z" fill="#C3977A"/>
<path d="M104.646 83.801L110.909 88.409L115.372 81.929L104.646 83.801Z" fill="#8A6651"/>
<path d="M98.886 52.8441L109.325 50.5391L115.372 81.9291L104.645 83.8011L98.886 52.8441Z" fill="#E8C9B6"/>
<path d="M98.886 52.844L96.511 49.172L97.157 45.357L107.813 43.198L110.909 46.58L109.325 50.539L98.886 52.844Z" fill="#27788B"/>
<path d="M97.158 45.356L65.481 51.476L66.705 62.995L69.513 70.051L71.959 81.93L103.061 75.379L98.886 52.845L97.158 45.356ZM74.408 57.451L91.399 54.14L94.494 69.978L77.431 73.434L74.408 57.451Z" fill="#308FA6"/>
<path d="M107.813 43.1959L138.842 37.1489L144.603 67.4589L113.788 73.5769L109.325 50.5389L107.813 43.1959ZM117.317 49.2429L120.196 64.0749L134.957 61.4109L132.004 46.2909L117.317 49.2429Z" fill="#308FA6"/>
<path d="M94.423 103.311L125.38 97.1919L125.883 99.6399L94.926 105.832L94.423 103.311Z" fill="#8A6651"/>
<path d="M47.835 92.563L41.507 80.489L35.027 83.441L47.835 92.563Z" fill="#8A6651"/>
<path d="M64.616 0L68.576 12.815L74.479 21.166L123.364 7.057L64.616 0Z" fill="#DDDDDC"/>
<path d="M37.043 15.9829L24.3 22.1029L21.203 47.3009L35.746 43.1259L52.089 32.1109L37.043 15.9829Z" fill="#C4C4C4"/>
<path d="M21.204 47.3001L15.445 90.2801L34.451 77.8251L49.427 63.8591L52.089 32.1101L21.204 47.3001Z" fill="#DDDDDC"/>
<path d="M50.434 65.731L59.341 83.802L51.604 87.366L45.682 74.587L29.411 83.226L40.283 101.297L46.401 118.215L16.021 89.778L24.517 83.01L50.434 65.731Z" fill="#9DA0A1"/>
<path d="M64.616 0L37.043 15.983L74.479 21.166L64.616 0Z" fill="#C4C4C4"/>
<path d="M65.481 51.4761L24.516 83.0091L29.051 94.0961L29.411 83.2251L68.36 64.7231L65.481 51.4761Z" fill="#27788B"/>
<path d="M53.529 71.7049L68.361 64.7229L68.721 66.3079L69.513 70.0499L55.011 75.0189L53.529 71.7049Z" fill="#8A6651"/>
<path d="M46.042 75.3061L53.53 71.7061L55.012 75.0181L47.194 77.8981L46.042 75.3061Z" fill="#737373"/>
<path d="M55.329 136.79L51.945 150.828L82.975 167.963L95.718 172.066L105.149 161.483L110.333 148.02L100.685 140.604L91.686 154.428L55.329 136.79Z" fill="#DDDDDC"/>
<path d="M91.686 154.427L84.055 166.379L95.718 172.067L103.061 160.188L91.686 154.427Z" fill="#4F5252"/>
<path d="M110.334 148.02L124.3 152.339L113.284 174.226L100.254 191.866L67.496 176.962L39.85 159.972L51.945 150.829L95.719 172.067L110.334 148.02Z" fill="#C4C4C4"/>
<path d="M39.85 159.971L87.439 185.097L93.269 186.825L100.254 191.865L68.287 229.085L39.994 181.282L39.85 159.971Z" fill="#1C7678"/>
<path d="M100.254 191.864L102.845 184.737L108.605 178.113L124.299 152.339L139.346 186.608L129.483 212.309L115.012 230.059L106.373 240.172L96.654 216.126L100.254 191.864Z" fill="#1C7678"/>
<path d="M95.719 172.066L87.438 185.098L100.255 191.866L108.606 178.114L95.719 172.066Z" fill="#737373"/>
<path d="M129.484 212.31L106.373 240.172L105.15 248.236L101.262 273.362L134.524 272.209L129.484 212.31Z" fill="#369395"/>
<path d="M37.7625 180.922L100.254 191.864L113.5 194.168L106.39 240.177L101.262 273.361L96.7983 302.231L20.7722 290.641L37.7625 180.922Z" fill="#8F8F8F"/>
<path d="M101.262 273.361L24.0121 270.266L26.1 256.371L75.9911 261.05L86.7191 266.161L93.6311 267.888L101.262 273.361Z" fill="#6E7073"/>
<path d="M39.851 159.972L40.643 228.655L9.25299 253.419L15.012 174.37L39.851 159.972Z" fill="#71CACC"/>
<path d="M40.6428 227.106L74.5879 239.201L77.9719 240.999L83.0829 241.792L79.988 264.614L74.732 262.527L69.621 262.886L9.25297 253.418L40.6428 227.106Z" fill="#369395"/>
<path d="M124.299 152.339L153.961 197.048L143.162 206.695L129.483 212.311L124.299 152.339Z" fill="#369395"/>
<path d="M129.483 212.31L153.962 197.047L173.975 184.017L177.719 183.873L180.744 179.625L189.527 187.184L187.583 197.623L187.295 204.536L150.074 233.477L129.483 212.31Z" fill="#71CACC"/>
<path d="M89.886 61.4119C89.886 63.2109 88.374 64.5789 86.718 64.5789C84.919 64.5789 83.478 63.2109 83.478 61.4119C83.478 59.6109 84.919 58.2429 86.718 58.2429C88.374 58.2429 89.886 59.6109 89.886 61.4119Z" fill="#2B2B2B"/>
<path d="M129.375 54.139C129.375 55.939 128.007 57.307 126.206 57.307C124.55 57.307 123.039 55.939 123.039 54.139C123.039 52.41 124.55 51.043 126.206 51.043C128.007 51.043 129.375 52.41 129.375 54.139Z" fill="#2B2B2B"/>
<path d="M180.744 179.626L189.309 188.553L194.205 199.063L187.295 204.536L173.975 184.018L180.744 179.626Z" fill="#DDDDDC"/>
<path d="M200.685 141.972L207.02 127.141L209.901 143.053L204.501 144.349L200.685 141.972Z" fill="#8F8F8F"/>
<path d="M186.719 188.121L194.206 199.063L200.325 195.177L198.381 175.017L186.719 188.121Z" fill="#8A6651"/>
<path d="M200.685 141.972L209.901 143.052L202.269 210.078L192.983 208.998L194.125 199.055L199.892 190.678L197.186 172.417L200.685 141.972Z" fill="#4F5252"/>
<path d="M196.309 171.071L212.981 176.026L203.809 200.237L194.205 199.063L196.184 178.27L196.309 171.071Z" fill="#C3977A"/>
<path d="M180.744 179.625L197.664 168.25L202.592 185.328L195.416 186.327L193.316 180.964L188.468 190.679L180.744 179.625Z" fill="#DFBCA4"/>
<path d="M74.5879 239.199L83.0839 241.79L82.868 252.374L79.988 264.613L69.62 262.885L74.5879 239.199Z" fill="#DDDDDC"/>
<path d="M83.0829 241.792L94.8719 236.57L106.267 240.872L105.525 245.754L96.6549 245.754L83.0829 241.792Z" fill="#C3977A"/>
<path d="M83.0829 241.791L105.525 245.754L107.191 254.919L109.757 260.906L105.872 266.377L101.262 273.361L79.987 264.614L83.0829 241.791Z" fill="#DFBCA4"/>
<path d="M105.526 245.753L101.261 273.36L107.922 268.436L115.013 251.547L105.526 245.753Z" fill="#C3977A"/>
</svg>
