<svg width="260" height="400" viewBox="0 0 260 400" fill="none" xmlns="http://www.w3.org/2000/svg">
<g opacity="0.1">
<path d="M259.863 385.171L233.463 380.231L126.943 362.53L26.903 380.001L0.103027 388.471L170.913 399.891L259.863 385.171Z" fill="#2B2B2B"/>
</g>
<path d="M72.58 106.72L38.84 129.95L36.65 157.56L59.73 198.58L218.51 184.41L213.62 122.77L196.79 112.57L72.58 106.72Z" fill="#B8C645"/>
<path d="M196.79 112.57L72.58 106.72L38.84 129.95L36.65 157.56L56.03 144.22L199.82 132.27L213.62 122.77L196.79 112.57Z" fill="#E8EF78"/>
<g opacity="0.99">
<path d="M200.749 153.734L195.826 62.3655L175.997 55.7274L130.511 27.0899L82.29 62.1855L68.4009 68.8054L65.1542 147.606L200.749 153.734Z" fill="#2B2B2B"/>
</g>
<path d="M210.25 348.71L206.14 237.58L199.82 199.88L142.04 176.38L67.3831 216.695L40.3301 362.64L65.6201 384.67L211.26 385.05L234.14 380.11L210.25 348.71Z" fill="#446024"/>
<path d="M67.695 216.57L51.02 199.73L27.54 380.11L44.33 369.099L52.95 353.53L67.695 216.57Z" fill="#5A753C"/>
<path d="M65.62 384.669L27.54 380.109L52.95 353.529L65.62 384.669Z" fill="#6F9D52"/>
<path d="M187.985 328.426L155.57 345.051L160.389 368.981H177.139L188.11 359.471L187.985 328.426Z" fill="#3E8F6E"/>
<path d="M188.111 359.47L208.929 380.111C208.929 380.111 210.75 380.009 202 380.13C193.25 380.251 187.06 380.17 187.06 380.17L159.901 380.111L160.39 368.981L188.111 359.47Z" fill="#53AF8A"/>
<path d="M208.93 389.33H159.901V380.11H201.249L217.499 373.99L208.93 389.33Z" fill="#3E8F6E"/>
<path d="M188.11 331.8L158.269 357.27L155.57 345.05L151.79 327.732L187.964 315.8L188.11 331.8Z" fill="#35785D"/>
<path d="M112.72 346.63L107.61 366.982L90.8499 368.982L75.8199 362.641L78.5399 339.02L78.8799 336.07L112.72 346.63Z" fill="#3E8F6E"/>
<path d="M75.82 362.64L65.62 384.67H108.31L107.61 366.981L75.82 362.64Z" fill="#53AF8A"/>
<path d="M108.31 392.33H65.62V384.67L86.97 378.11L108.31 384.67V392.33Z" fill="#3E8F6E"/>
<path d="M78.63 339.57L110.05 357.27L112.72 346.63L121.065 318.54L80.464 320.908L78.63 339.57Z" fill="#35785D"/>
<path d="M187.97 155.11L199.82 132.02L242.19 195.77L186.651 217.401L182.409 205.14L187.97 155.11Z" fill="#5A753C"/>
<path d="M82.44 134.39L121.04 154.61L156.07 181.62L137.231 254.349H86.62V237.33L65.62 183.13L82.44 134.39Z" fill="#5A753C"/>
<path d="M142.04 176.13L137.19 237.33L137.23 254.35H187.97L188.11 230.58L199.82 132.02L175.07 129.7L174.19 139.99L163.67 139.5L158.14 163.28L142.04 176.13Z" fill="#6F9D52"/>
<path d="M137.23 254.599L112.72 331.799L138.379 352.281L188.235 331.549L187.969 256.62L165.019 261.969L137.23 254.599Z" fill="#5A753C"/>
<path d="M85.38 272.82L78.38 338.445L138.38 352.28L137.231 254.6L85.38 272.82Z" fill="#6F9D52"/>
<path d="M86.62 254.6H187.97V273.64L85.38 272.821L86.62 254.6Z" fill="#99C26C"/>
<path d="M51.02 199.48L56.03 143.97L94.99 130.84L85.3 165.41L88.77 206.53L51.02 199.48Z" fill="#738D56"/>
<path d="M141.59 166.91L155.57 152.4L163.67 139.5L178.41 141.64L177.12 163.41L142.04 176.13L133.72 168.69L141.59 166.91Z" fill="#35785D"/>
<path d="M141.59 166.91L142.04 176.13L85.3001 165.41L82.4401 135.14L94.9901 131.59L109.21 146.27L141.59 166.91Z" fill="#53AF8A"/>
<path d="M178.41 141.89L112.72 138.8L94.1204 125.51L85.3014 24.6396L187.991 20.2205L178.41 141.89Z" fill="#DFBCA4"/>
<path d="M168.52 141.43L101.311 132.59L93.2412 34.4696L81.1614 15.2495L91.7203 138.08L94.1211 153.36L141.589 167.16L166.291 155.01L168.52 141.43Z" fill="#C3977A"/>
<path d="M144.31 159.359L168.52 141.429L91.7203 138.079L144.31 159.359Z" fill="#8A6651"/>
<path d="M108.492 -0.000245508L91.7214 12.7786L70.3514 18.1094L68.3099 69.2494L86.7798 83.7296L94.8804 21.8796L142.821 43.4591L187.151 28.9495L184.5 64.5794L195.961 62.6006L200.27 24.6396L178.411 15.2504L165.762 0.000274503L108.492 -0.000245508Z" fill="#4F5252"/>
<path d="M108.492 -0.00026404L70.3514 18.1104L93.2412 34.4696L142.821 43.46L108.492 -0.00026404Z" fill="#6E7073"/>
<path d="M99.2905 107.97L180.71 112.7L178.41 141.89L101.27 138.5L99.2905 107.97Z" fill="#C3977A"/>
<path d="M165.762 0.000330365L142.821 43.4601L186.761 34.1305L200.271 24.6406L165.762 0.000330365Z" fill="#464646"/>
<path d="M99.2906 107.97L88.7706 103.75L91.7203 138.08L101.27 138.5L99.2906 107.97Z" fill="#8A6651"/>
<path d="M116.112 119.495L119.992 123.365L143.062 123.365" fill="#8A6651"/>
<path d="M116.112 119.495L119.992 123.365L143.062 123.365" stroke="#8A6651" stroke-width="4" stroke-miterlimit="10"/>
<path d="M113.582 116.985L121.042 116.125L112.722 124.205L113.582 116.985Z" fill="#8A6651"/>
<path d="M131.401 100.45L141.031 107.05L150.671 100.45L131.401 100.45Z" fill="#8A6651"/>
<path d="M101.271 75.1696L121.421 81.3598L131.401 100.45L137.081 69.61L108.381 67.0097L101.271 75.1696Z" fill="#C3977A"/>
<path d="M150.671 100.45L164.991 81.3603L180.791 75.1704L173.692 70.7004L160.65 69.2503L144.981 69.6101L144.981 88.7301L150.671 100.45Z" fill="#C3977A"/>
<path d="M150.671 100.45L141.031 102.88L131.401 100.45L137.081 69.61L144.982 69.6101L150.671 100.45Z" fill="#E8C9B6"/>
<path d="M144.981 69.6101L173.691 70.7003L180.791 75.1704L173.691 63.3203L160.436 66.2242L144.981 69.6101Z" fill="#464646"/>
<path d="M137.081 69.61L108.381 70.6998L101.271 75.1697L108.381 63.3198L137.081 69.61Z" fill="#464646"/>
<path d="M160.652 76.4801C163.346 76.4802 165.532 78.6652 165.532 81.3602C165.532 84.0552 163.346 86.2402 160.652 86.2401C157.957 86.2401 155.77 84.0551 155.77 81.3601C155.77 78.6651 157.957 76.4801 160.652 76.4801Z" fill="#2B2B2B"/>
<path d="M116.881 76.4798C119.576 76.4798 121.761 78.6648 121.761 81.3598C121.761 84.0548 119.576 86.2398 116.881 86.2398C114.186 86.2398 112.001 84.0547 112.001 81.3597C112.001 78.6647 114.186 76.4798 116.881 76.4798Z" fill="#2B2B2B"/>
<path d="M165.36 159.359H176.37V385.23H165.36V159.359Z" fill="#C4C4C4"/>
<path d="M170.861 148.44C176.516 148.44 181.1 153.024 181.1 158.68C181.1 164.336 176.516 168.92 170.861 168.92C165.206 168.92 160.62 164.336 160.62 158.68C160.62 153.024 165.206 148.44 170.861 148.44Z" fill="#DDDDDC"/>
<path d="M152.81 389.16L170.46 397.3L181.1 379.86L176.371 227.61L152.81 227.74V389.16Z" fill="#C4C4C4"/>
<path d="M188.11 227.74H170.86L170.46 397.3L188.11 389.16V227.74Z" fill="#9DA0A1"/>
<path d="M206.14 237.33L216.661 225.2L206.14 214.68L196.17 224.65H178.411L170.86 217.09L163.31 224.65H147.161L137.191 214.68L125.069 225.2L137.191 237.33L143.049 230.58H163.31L170.86 238.13L178.411 230.58H200.289L206.14 237.33Z" fill="#DDDDDC"/>
<path d="M51.02 199.48L86.62 237.33L145.73 227.48L147.74 209.65L140 201.9L51.02 199.48Z" fill="#53AF8A"/>
<path d="M242.19 195.77L191.549 201.64L182.41 212.01L188.809 224.65L213.929 228.24L242.19 195.77Z" fill="#53AF8A"/>
<path d="M145.73 227.48L140 201.901L165.11 194.34L145.73 227.48Z" fill="#DFBCA4"/>
<path d="M165.111 194.339L160.621 210.91L162.731 224.651H188.81L191.549 201.64L165.111 194.339Z" fill="#DFBCA4"/>
<path d="M165.11 194.339L162.73 224.65L145.73 227.48L148.799 208.269L165.11 194.339Z" fill="#C3977A"/>
</svg>
