<svg width="259" height="400" viewBox="0 0 259 400" fill="none" xmlns="http://www.w3.org/2000/svg">
<path d="M215.53 186.019L223.919 163.589L237.13 168.219L248.96 179.019L225.38 199.989L214.992 201.158L215.53 186.019Z" fill="#DFBCA4"/>
<path d="M229.25 178.619L221.129 156.269L214.069 156.409L215.53 186.019L210.805 202.214L222.04 193.279L229.25 178.619Z" fill="#C3977A"/>
<path d="M223.919 163.589L244.599 142.049L257.699 154.298L248.96 179.019L223.919 163.589Z" fill="#C3977A"/>
<path d="M155.699 163.19L177.01 181.66L172.429 194.5L159.44 209.74L127.909 242.086L136.824 193.515L155.699 163.19Z" fill="#3E8F6E"/>
<path d="M177.01 181.66L205.059 204.409L199.969 214.98L173.54 219.64L159.441 209.74L177.01 181.66Z" fill="#99C26C"/>
<path d="M173.54 219.64L215.58 185.559L237.39 208.219L197.42 236.259L173.54 219.64Z" fill="#738D56"/>
<g opacity="0.1">
<path d="M258.41 385.08L121.38 374.46L0.439941 386.32L121.66 400L258.41 385.08Z" fill="black"/>
</g>
<path d="M86.1698 376.089L60.1198 386.299L55.5798 376.219L59.2498 359.429L67.2998 356.409L79.2898 360.199L86.1698 376.089Z" fill="#4F5252"/>
<path d="M185.07 362.62L174.78 381.29L154.49 370.76L152.79 359.14L171.11 350.63L185.07 362.62Z" fill="#4F5252"/>
<g opacity="0.1">
<path d="M171.85 351.259L154.491 370.759L152.79 359.139L158.781 352.69L171.85 351.259Z" fill="black"/>
</g>
<g opacity="0.1">
<path d="M59.2498 359.43L69.7798 356.41L79.2898 360.201L57.0698 369.401L59.2498 359.43Z" fill="black"/>
</g>
<path d="M171.781 378.29L154.491 370.76L155.77 384.8L210.389 385.26L210.091 370.15L185.07 362.62L171.781 378.29Z" fill="#6E7073"/>
<path d="M96.4599 391.879L96.1699 375.619L72.1599 373.089L61.7799 383.669L55.5799 376.219L54.8799 391.879H96.4599Z" fill="#6E7073"/>
<path d="M157.74 259.36L181.929 332.62L164.38 348.599L144.34 346.679L135.36 319.5L118.41 308.46L94.6301 346.679L79.2911 356.41L54.0601 344.78L54.3101 271.559L67.5411 235.5L157.74 259.36Z" fill="#53AF8A"/>
<path d="M150.71 264.88L176.16 337.01L166.55 341.89L138.29 278.24L150.71 264.88Z" fill="#3E8F6E"/>
<path d="M132.94 294.899L156.23 345.548L144.339 346.679L118.41 308.46L120.35 277.949L132.94 294.899Z" fill="#3E8F6E"/>
<path d="M104.37 297.32L85.51 348.639L75.47 347.599L91.32 279.009L104.37 297.32Z" fill="#3E8F6E"/>
<path d="M81.74 265.55L67.78 348.98L59.05 345.249L62.24 282.8L81.74 265.55Z" fill="#3E8F6E"/>
<path d="M181.93 332.62L144.34 346.68L152.79 359.14L186.69 347.04L181.93 332.62Z" fill="#35785D"/>
<path d="M94.63 346.68L54.06 344.78L54.01 359.14L85.97 360.6L94.63 346.68Z" fill="#35785D"/>
<path d="M132.94 294.9L118.41 308.46L104.37 297.32L120.35 270.95L132.94 294.9Z" fill="#35785D"/>
<path d="M3.58984 236.7L43.21 263.5L54.0099 241.88L3.58984 236.7Z" fill="#4F5252"/>
<path d="M16.7192 130.09L102.269 130.85L127.744 132.581L88.3893 148.66L55.7193 149.96L16.7192 130.09Z" fill="#C4C4C4"/>
<path d="M56.4494 143.36L16.7194 130.09L13.2595 158.25L13.0596 179.65L8.54964 196.45L3.58981 236.7L68.5899 246.02L56.4494 143.36Z" fill="#6E7073"/>
<path d="M90.3895 139.15L56.4495 143.36L54.8096 158.23L49.1899 243.75L109.16 230.64L122.403 132.968L90.3895 139.15Z" fill="#4F5252"/>
<path d="M13.2596 158.25L23.1996 164.54L37.5496 167.1L31.5898 207.24L8.54972 196.45L10.7396 178.69L13.7996 171.22L13.2596 158.25Z" fill="#9DA0A1"/>
<path d="M37.5495 167.1L10.7396 178.69L13.2595 158.25L37.5495 167.1Z" fill="#C4C4C4"/>
<path d="M145.29 165.4L159.44 209.74L157.74 259.36L132.94 294.9L120.35 277.95L104.37 297.32L75.41 256.66L54.01 253.32L57.8798 212.39L87.8635 148.849L116.784 144.336L145.29 165.4Z" fill="#738D56"/>
<path d="M123.26 208.219L105.82 255.68L120.35 266.821L135.85 256.159L123.26 208.219Z" fill="#4F5252"/>
<path d="M135.85 256.16L105.82 255.68L120.35 277.95L135.85 256.16Z" fill="#464646"/>
<path d="M138.54 191.37L123.26 208.22L108.78 189.23L124.71 186.43L138.54 191.37Z" fill="#464646"/>
<path d="M66.5895 204.22L66.5895 173.94L54.8094 158.23L25.6795 224.93L46.1395 223.88L57.8795 217.401L66.5895 204.22Z" fill="#5A753C"/>
<path d="M88.3893 148.66L54.8093 158.23L66.5894 204.22L88.3893 148.66Z" fill="#3E8F6E"/>
<path d="M75.4098 256.66L81.7399 265.55L62.24 282.8L54.3099 271.559L59.0498 258.63L75.4098 256.66Z" fill="#C3977A"/>
<path d="M25.6797 224.929L48.69 275.53L75.4099 256.659L57.8797 217.4L25.6797 224.929Z" fill="#99C26C"/>
<path d="M124.71 186.43L109.779 160.12L88.3891 148.66L84.3698 206.24L124.71 186.43Z" fill="#99C26C"/>
<path d="M155.699 163.19L130.79 168.47L124.71 186.43L159.44 209.74L155.699 163.19Z" fill="#99C26C"/>
<path d="M100.977 0.000198555L41.4181 53.7509L135.358 42.0088L100.977 0.000198555Z" fill="#3E8F6E"/>
<path d="M151.339 141.88L135.36 154.73L135.361 178.69L155.698 163.19L151.339 141.88Z" fill="#5A753C"/>
<path d="M94.6989 118.69L88.3892 148.66L107.119 168.14L105.819 143.82L94.6989 118.69Z" fill="#5A753C"/>
<path d="M57.879 125.901L94.6989 118.69L96.6888 108.08L90.3187 96.3604L75.6088 105.701L57.879 125.901Z" fill="#35785D"/>
<path d="M214.377 55.1289L198.998 87.6691L194.078 128.469L223.008 114.279L221.557 62.9488L220.467 56.4689L214.377 55.1289Z" fill="#3E8F6E"/>
<path d="M204.369 86.6691L213.509 118.939L194.079 128.469L196.829 115.909L203.579 112.469L201.079 103.179L204.369 86.6691Z" fill="#99C26C"/>
<path d="M214.378 55.129L201.622 101.229L197.991 114.347L188.629 148.179L151.339 141.88L132.289 171.48L124.71 186.43L116.839 160.28L90.3186 96.3603L138.729 52.2498L189.598 28.0892L214.378 55.129Z" fill="#DFBCA4"/>
<path d="M179.819 32.7294L214.597 55.369L202.329 36.3791L189.597 24.0892L181.189 26.4793L179.819 32.7294Z" fill="#8A6651"/>
<path d="M138.728 52.2497L120.958 135.48L136.088 148.18L143.348 160.28L135.36 178.69L124.709 186.43L107.119 168.14L94.6989 118.69L96.6878 108.08L90.3176 96.3602L138.728 52.2497Z" fill="#C3977A"/>
<path d="M138.729 52.2497L121.018 81.3299L103.469 92.5501L121.799 99.7499L94.6999 118.69L90.3176 96.3602L107.968 77.1301L138.729 52.2497Z" fill="#8A6651"/>
<path d="M120.488 68.87L121.799 99.75L82.7288 103.27L78.1085 81.3005L85.5175 75.9934L92.3787 92.5703L113.569 91.5201L112.158 74.5401L120.488 68.87Z" fill="#99C26C"/>
<path d="M151.339 141.88L107.519 132.65L143.349 160.28L151.339 141.88Z" fill="#8A6651"/>
<path d="M138.728 52.2498L82.7283 71.5904L44.8086 96.8509L57.8779 125.901L138.728 52.2498Z" fill="#3E8F6E"/>
<path d="M101.043 0.0447232L45.3782 57.8191L138.27 39.5528L101.043 0.0447232Z" fill="#3E8F6E"/>
<path d="M41.4173 53.7508L16.7175 77.0011L44.8078 96.8508L47.1375 71.5908L41.4173 53.7508Z" fill="#3E8F6E"/>
<path d="M100.979 0.0012207L125.658 39.1609L189.597 28.0902L189.597 19.5792L178.459 0.490367L100.979 0.0012207Z" fill="#71C8A6"/>
<path d="M189.597 28.0893L221.557 62.9489L238.988 41.6477L178.458 0.48938L189.597 28.0893Z" fill="#53AF8A"/>
<path d="M189.597 28.0892L44.8077 96.8508L41.4173 53.7508L189.597 28.0892Z" fill="#53AF8A"/>
<path d="M170.619 97.2594L164.198 68.2894L156.668 53.7495L176.038 53.2693L176.538 61.9993L170.619 97.2594Z" fill="#C3977A"/>
<path d="M184.788 63.5093L189.598 56.1692L206.058 64.409L180.559 86.9993L184.788 63.5093Z" fill="#C3977A"/>
<path d="M178.439 98.7493L173.348 103.449L170.619 97.2594L178.439 98.7493Z" fill="#8A6651"/>
<path d="M184.788 63.5092L178.439 98.7493L170.619 97.2594L176.538 61.9993L184.788 63.5092Z" fill="#E8C9B6"/>
<path d="M189.598 56.1693L200.729 54.2391L206.058 64.4091L189.598 56.1693Z" fill="#3E8F6E"/>
<path d="M176.038 53.2694L167.808 47.9395L156.668 53.7496L176.038 53.2694Z" fill="#3E8F6E"/>
<path d="M191.899 117.669L167.569 132.65L144.829 109.37L191.899 117.669Z" fill="#738D56"/>
<path d="M185.839 118.079L173.569 118.506L170.619 118.609L166.363 117.12L150.729 111.65L163.748 123.68L173.028 125.239L185.839 118.079Z" fill="white"/>
<path d="M191.899 117.669L171.959 111.129L144.829 109.37L166.815 117.869L170.619 119.339L191.899 117.669Z" fill="#446024"/>
<path d="M199.689 77.9992C199.689 80.7602 197.45 82.9992 194.689 82.9992C191.927 82.9992 189.689 80.7603 189.689 77.9993C189.689 75.2383 191.926 72.9992 194.688 72.9992C197.449 72.9992 199.689 75.2382 199.689 77.9992Z" fill="#2B2B2B"/>
<path d="M167.248 70.6995C167.248 73.4605 165.01 75.6995 162.248 75.6995C159.486 75.6996 157.248 73.4606 157.248 70.6996C157.248 67.9376 159.486 65.6996 162.248 65.6995C165.01 65.6995 167.248 67.9375 167.248 70.6995Z" fill="#2B2B2B"/>
</svg>
