<svg width="291" height="400" viewBox="0 0 291 400" fill="none" xmlns="http://www.w3.org/2000/svg">
<path d="M199.651 92.6219L171.839 97.9919L173.69 111.892L176.53 128.762L190.589 118.972L199.651 92.6219Z" fill="#8F8F8F"/>
<path d="M168.54 79.792L176.24 100.702L199.65 92.622L168.54 79.792Z" fill="#DDDDDC"/>
<path d="M179.51 146.422L184.91 150.822L196.33 153.152L206.31 131.892L190.41 137.202L179.51 146.422Z" fill="#8F8F8F"/>
<path d="M190.59 118.972H171.84L179.51 146.422L206.31 131.892L190.59 118.972Z" fill="#C4C4C4"/>
<path d="M75.12 137.202L52.16 143.492L45.46 161.022L59.28 163.562L76.92 148.602L75.12 137.202Z" fill="#C4C4C4"/>
<path d="M72.14 121.182L40.23 129.562L52.16 143.492L73.87 147.592L80.19 137.202L72.14 121.182Z" fill="#8F8F8F"/>
<path d="M72.23 98.212L65.92 99.572L61.11 93.422L40.23 129.562L72.86 125.052L72.23 98.212Z" fill="#DDDDDC"/>
<path d="M90.28 152.342L45.46 161.022L55.09 168.152L93.56 161.862L90.28 152.342Z" fill="#8F8F8F"/>
<path d="M245.419 154.111L253.949 146.581L261.319 134.041L260.779 105.391L243.639 122.811L238.589 142.841L245.419 154.111Z" fill="#8A6651"/>
<path d="M290.519 52.9409L287.879 54.8909L276.099 75.7409L271.209 82.6609L272.45 96.7009L261.32 104.221L262.99 109.731L256.099 125.751L249.69 129.931L242.169 146.421L253.95 146.581L266.879 109.911L278.79 99.9009L278.33 82.3509L290.519 52.9409Z" fill="#35785D"/>
<path d="M257.55 129.111L262.989 109.731L261.321 104.221L249.691 129.931L257.55 129.111Z" fill="#53AF8A"/>
<path d="M287.879 54.8909L290.519 52.9409L286.089 53.2809L271.209 82.6609L277.339 79.0709L287.879 54.8909Z" fill="#53AF8A"/>
<path d="M235.19 129.931L239.669 114.541L258.57 102.271L261.32 104.221L257.549 112.381L249.73 119.231L249.69 129.931L246.37 137.201L238.589 142.841L235.19 129.931Z" fill="#DFBCA4"/>
<path d="M272.63 105.081L271.21 137.251L253.95 146.581L261.32 104.221L272.63 105.081Z" fill="#C3977A"/>
<path d="M249.05 174.111L230.191 135.951L214.01 156.201L195.99 193.741L249.05 174.111Z" fill="#738D56"/>
<path d="M179.51 146.421L177.21 168.511L201.531 188.531L214.01 156.201L179.51 146.421Z" fill="#99C26C"/>
<path d="M183.2 198.071L217.62 203.341L238.59 188.531L244.33 171.181L201.53 188.531L183.2 169.101L153.86 138.781L183.2 198.071Z" fill="#5A753C"/>
<path d="M235.19 129.931L230.19 135.951L244.33 171.181L217.62 203.341L225.419 204.041L253.48 173.151L235.19 129.931Z" fill="#35785D"/>
<path d="M170.32 202.471L188.133 200.23L181.517 169.895L170.32 202.471Z" fill="#738D56"/>
<path d="M91.25 172.401L81.31 170.901L55.09 168.151L90.1 196.401L92.57 204.701L108.55 237.211L130.04 216.251L91.25 172.401Z" fill="#738D56"/>
<path d="M77.84 209.711L89.41 230.011L101.53 235.451L110.26 223.021L92.57 192.201L77.84 209.711Z" fill="#446024"/>
<path d="M123.539 170.888C138.393 186.407 153.245 201.926 168.099 217.444C168.542 194.609 168.985 171.775 169.429 148.94C168.679 148.437 138.17 146.28 138.17 146.28C135.751 148.39 132.786 151.419 130.06 155.537C126.155 161.44 124.392 167.089 123.539 170.888Z" fill="#53AF8A"/>
<path d="M122.3 155.53L119.09 169.1L89.0099 182.451L134.69 214.181L134.97 214.572L165.06 204.271L122.3 155.53Z" fill="#53AF8A"/>
<path d="M80.89 180.061L89.01 182.451L124.56 169.101L73.87 147.591L59.28 163.561L80.89 180.061Z" fill="#71C8A6"/>
<path d="M152.17 134.861L152.11 134.741L151.9 134.881L152.17 134.861Z" fill="#35785D"/>
<path d="M131.73 209.581L59.28 163.561L55.09 168.151L130.04 216.251L157.65 252.051L172.7 204.281L131.73 209.581Z" fill="#35785D"/>
<path d="M122.3 155.531L105.68 144.171L75.12 137.201L73.87 147.591L124.56 169.101L122.3 155.531Z" fill="#35785D"/>
<path d="M124.644 168.204C129.818 161.118 134.99 154.031 140.164 146.945C138.169 141.846 136.174 136.747 134.178 131.648C131.075 136.525 127.972 141.403 124.868 146.28C124.793 153.588 124.719 160.896 124.644 168.204Z" fill="#35785D"/>
<g opacity="0.1">
<path d="M10.83 389.24L109.81 400L263.38 387.78L117.7 377.11L10.83 389.24Z" fill="#2B2B2B"/>
</g>
<path d="M138.13 361.17V374.84L155.01 369.63L164.6 362.34L167.74 350.03L138.13 361.17Z" fill="#35785D"/>
<path d="M65.61 348.87L60.54 374.91L75.15 374.84L89.01 366.07L92.12 359.519L65.61 348.87Z" fill="#35785D"/>
<path d="M164.599 362.34L138.129 374.84V381.941L160.589 383.83L188.16 381.941L164.599 362.34Z" fill="#53AF8A"/>
<path d="M138.13 381.94H188.16V388.7H138.13V381.94Z" fill="#35785D"/>
<path d="M89.01 366.07L95.17 385.69L77.84 389.07L58.08 385.69L60.54 374.91L89.01 366.07Z" fill="#53AF8A"/>
<path d="M58.08 385.69H95.17V392.45H58.08V385.69Z" fill="#35785D"/>
<path d="M188.29 198.561L186.598 201.049L136.65 274.481L110.26 223.02L89.41 230.011L49.88 340.081L103.3 372.411L103.49 372.551L192.09 337.671L188.29 198.561Z" fill="#738D56"/>
<path d="M169.65 204.281L152.17 234.811L143.259 226.822L130.04 216.251L110.259 223.021L104.2 364.97L183.2 198.072L170.32 202.471L169.65 204.281Z" fill="#99C26C"/>
<path d="M104.2 364.97L49.88 340.08L47.48 347.651L103.3 372.41L103.49 372.55L192.3 345.88L192.09 337.67L104.2 364.97Z" fill="#35785D"/>
<path d="M187.479 197.277L165.458 197.691C165.458 197.691 163.875 226.626 163.5 227.001C163.125 227.376 188.125 224.501 188.125 224.501L187.479 197.277Z" fill="#728C56"/>
<path d="M35.14 259.261L24.84 271.131L20.52 276.112L26.04 281.221L39.57 262.532L35.14 259.261Z" fill="#C3977A"/>
<path d="M24.84 240.1L11.66 245.081L6.29999 256.702L13.09 272.631L20.52 276.112L20.53 276.101L30.95 265.402L24.84 240.1Z" fill="#DFBCA4"/>
<path d="M35.65 258.681L16.1 235.452L11.66 245.081L30.95 265.402L35.14 259.261L35.65 258.681Z" fill="#8A6651"/>
<path d="M20.52 276.111L6.29998 256.701L0.849976 275.582L9.81998 288.561L20.53 276.1L20.52 276.111Z" fill="#C3977A"/>
<path d="M55.0899 168.151L14.6899 221.861L63.4099 229.281L82.5899 182.451L55.0899 168.151Z" fill="#99C26C"/>
<path d="M14.6899 221.861L34.0799 260.76L45.0299 256.971L81.3099 184.412L14.6899 221.861Z" fill="#738D56"/>
<path d="M82.59 182.451L34.08 256.701L51.67 255.381L61.77 249.27L92.57 192.201L82.59 182.451Z" fill="#5A753C"/>
<path d="M30.95 265.402L57.05 256.702L61.77 249.271L34.08 256.702L14.69 221.862L9.76996 228.322L30.95 265.402Z" fill="#35785D"/>
<path d="M181.49 131.252L164.86 34.1519L137.22 12.8619L119.68 27.6919L83.2599 25.3019L76.9199 31.0719L90.0999 56.8019L112.74 150.102L146.05 140.912L181.49 131.252Z" fill="#DFBCA4"/>
<path d="M137.22 18.402L164.86 34.152L148.38 12.162L134.82 8.19202L131.97 12.862L137.22 18.402Z" fill="#EBEBEB"/>
<path d="M107.611 20.792L122.651 34.152L137.221 18.402L134.821 8.19296L106.951 0.0119629L107.611 20.792Z" fill="#DDDDDC"/>
<path d="M80.4109 20.792L80.701 24.052L82.951 25.901L122.6 34.202L122.651 34.153L106.951 0.0119629L80.4109 20.792Z" fill="#C4C4C4"/>
<path d="M93.18 42.222L83.26 25.302L66.92 53.132L75.12 62.612L76.92 87.562L69.51 79.242L64.12 87.412L55.09 90.752L62.51 112.402L70.15 110.492L75.12 111.492L72.86 125.052L75.12 137.202L107.61 149.822L113.63 150.232L93.18 42.222Z" fill="#C3977A"/>
<path d="M70.15 110.492L72.86 125.052L80.08 107.822L70.15 110.492Z" fill="#8A6651"/>
<path d="M61.1099 93.422L73.8699 101.962L70.5099 90.382L61.1099 93.422Z" fill="#8A6651"/>
<path d="M129.2 145.562L107.61 149.822L124.02 156.202L129.2 145.562Z" fill="#8A6651"/>
<path d="M50.5699 44.452L64.1199 87.412L68.4499 85.862L77.6799 91.202L80.3399 57.362L69.7099 51.132L83.2599 25.302L80.4099 20.792L50.5699 44.452Z" fill="#8F8F8F"/>
<g opacity="0.99">
<path d="M131.73 209.581L59.28 163.561L55.09 168.151L130.04 216.251L157.65 252.051L172.7 204.281L131.73 209.581Z" fill="#35785D"/>
</g>
<path d="M141.17 100.702L116.8 122.632L131.73 209.582L159.089 234.771L161.179 238.482L160.23 242.172L157.649 252.052L172.629 262.462L162.64 156.202L148.41 102.272L141.17 100.702Z" fill="#C4C4C4"/>
<path d="M175.499 232.261L188.29 198.561L173.69 111.891L152.54 98.211L148.41 102.271L172.629 262.461L180.849 246.501L176.639 239.661L174.319 236.282L175.499 232.261Z" fill="#EBEBEB"/>
<path d="M176.639 239.662L160.23 242.172L159.089 234.771L175.499 232.262L176.639 239.662Z" fill="#446024"/>
<path d="M159.47 114.872L136.76 118.752L135.75 114.142L158.45 110.272L159.47 114.872Z" fill="#8A6651"/>
<path d="M172.541 79.522L172.599 79.792L172.571 79.522H172.541Z" fill="#8F8F8F"/>
<path d="M105.321 64.042L141.171 100.702L139.341 69.472L126.151 56.722L137.331 54.762L143.091 70.832L148.442 79.702L155.911 53.132L140.941 50.792L137.331 54.762L126.151 56.722L119.681 53.572L105.321 64.042Z" fill="#C3977A"/>
<path d="M118.351 49.572L119.681 53.572L105.321 64.042L103.471 59.362L118.351 49.572Z" fill="#8F8F8F"/>
<path d="M139.351 46.012L140.941 50.792L155.911 53.132L156.921 49.892L139.351 46.012Z" fill="#8F8F8F"/>
<path d="M137.331 54.762L145.471 66.342L152.541 98.212L141.171 100.702L135.011 69.232L126.151 56.722L137.331 54.762Z" fill="#E8C9B6"/>
<path d="M152.541 98.2119L141.171 100.702L148.881 105.392L152.541 98.2119Z" fill="#8F8F8F"/>
<path d="M119.52 71.8419C121.862 71.8419 123.76 73.7399 123.76 76.0819C123.76 78.4239 121.862 80.3219 119.52 80.3219C117.178 80.3219 115.28 78.4239 115.28 76.0819C115.28 73.7399 117.178 71.8419 119.52 71.8419Z" fill="#2B2B2B"/>
<path d="M152.54 64.3519C154.882 64.3519 156.78 66.2499 156.78 68.5919C156.78 70.9339 154.882 72.8319 152.54 72.8319C150.198 72.8319 148.3 70.9339 148.3 68.5919C148.3 66.2499 150.198 64.3519 152.54 64.3519Z" fill="#2B2B2B"/>
</svg>
