<svg width="286" height="400" viewBox="0 0 286 400" fill="none" xmlns="http://www.w3.org/2000/svg">
<g opacity="0.1">
<path d="M215.99 390.02L135.1 376.59L36.77 386.89L112.91 400L215.99 390.02Z" fill="#2B2B2B"/>
</g>
<path d="M191.35 122.39L226.941 108.2L202.88 31.7L193.51 26.95L183.93 22.34L169.38 16.72L158.43 33.14L156.201 31.99L151.741 41.21L172.84 128.94L191.35 122.39Z" fill="#DFBCA4"/>
<path d="M151.81 41.35L172.84 128.94L169.82 132.19L161.82 133.27L156.2 126.28L152.241 116.27L149.86 89.9L151.81 41.35Z" fill="#C3977A"/>
<path d="M151.81 41.351L172.84 128.94L169.82 132.19C162.827 133.137 155.833 134.084 148.84 135.031C140.627 109.739 132.413 84.447 124.2 59.154C133.403 53.22 142.607 47.286 151.81 41.351Z" fill="#C3977A"/>
<path d="M191.35 122.39L226.941 108.2L202.88 31.7L193.51 26.95L183.93 22.34L169.38 16.72L158.43 33.14L156.201 31.99L151.741 41.21L172.84 128.94L191.35 122.39Z" fill="#DFBCA4"/>
<path d="M195.531 81.11L194.309 86.37L190.559 82.63L195.531 81.11Z" fill="#8A6651"/>
<path d="M202.95 31.7L197.98 17.51L163.26 0L161.03 16.93L169.38 16.72L183.929 22.34L193.51 26.95L202.95 31.7Z" fill="#E8EF78"/>
<path d="M163.26 0L113.77 16.43L100.74 51.08L96.1301 60.59L110.03 55.76L123.86 51.15L137.69 46.25L151.81 41.35L158.43 33.14L169.38 16.72L163.26 0Z" fill="#D9E253"/>
<path d="M151.81 41.35L138.05 46.18L123.86 51.15L110.03 55.76L96.1301 60.59L92.0901 128.37L134.863 138.735L151.205 87.748L151.645 47.36L151.81 41.35Z" fill="#B8C645"/>
<path d="M161.821 133.27L173.34 154.23L191.349 122.39L172.84 128.94L161.821 133.27Z" fill="#8A6651"/>
<path d="M184.58 51.4401L191.79 71.0301L204.82 47.6901L184.58 51.4401Z" fill="#C3977A"/>
<path d="M179.76 52.3L162.54 65.05L177.16 66.92L190.56 82.63L179.76 52.3Z" fill="#C3977A"/>
<path d="M179.76 52.3L163.62 59.43L162.54 65.05L179.76 52.3Z" fill="#B8C645"/>
<path d="M184.58 51.44L203.24 44.66L204.82 47.69L184.58 51.44Z" fill="#B8C645"/>
<path d="M179.76 52.2999L190.559 82.6299L195.53 81.1099L191.845 71.1249L184.579 51.4399L179.76 52.2999Z" fill="#E8C9B6"/>
<path d="M212.03 89.54L197.4 99.7L178.389 100.2L198.92 105.32L212.03 89.54Z" fill="#99C26C"/>
<path d="M212.03 89.54L206.05 91.7L197.759 93.07L192.429 94.87L186.17 98.47L178.389 100.2L197.4 99.7L212.03 89.54Z" fill="#5A753C"/>
<path d="M100.88 208.321L90.4403 252.701L82.7102 240.661L83.5202 230.52L78.4872 214.279L100.88 208.321Z" fill="#99C26C"/>
<path d="M101.49 166.63L78.4881 214.278L116.257 204.135L101.49 166.63Z" fill="#738D56"/>
<path d="M90.4402 252.701L81.4002 253.631L70.6602 250.551L83.5302 230.511L90.4402 252.701Z" fill="#DFBCA4"/>
<path d="M81.4002 253.631L62.5102 237.991L59.3402 250.371L67.6902 255.121L81.4002 253.631Z" fill="#C3977A"/>
<path d="M135.31 351.38L132.441 353.513L120.19 362.62L135.1 391.87L144.68 359.95L135.31 351.38Z" fill="#DFBCA4"/>
<path d="M135.1 391.87L152.09 391.5L138.05 381.92L135.1 391.87Z" fill="#C3977A"/>
<path d="M144.68 359.95L131.64 354.19L134.66 350.88L140.801 356.439L144.68 359.95Z" fill="#8A6651"/>
<path d="M74.3701 295.92L61.1901 291.16L54.0601 330.42L83.8801 304.56L74.3701 295.92Z" fill="#DFBCA4"/>
<path d="M62.5601 323.07L65.4401 339.71L54.0601 330.42L62.5601 323.07Z" fill="#C3977A"/>
<path d="M74.3701 295.92L77.4701 310.18L83.8801 304.56L77.8711 299.101L74.3701 295.92Z" fill="#8A6651"/>
<path d="M200 56.62C197.791 56.62 196 58.411 196 60.62C196 62.829 197.791 64.62 200 64.62C202.229 64.626 204.05 62.848 204.099 60.62C204.1 58.411 202.31 56.621 200.101 56.62C200.066 56.62 200.034 56.619 200 56.62Z" fill="#2B2B2B"/>
<path d="M173.49 66.2C171.231 66.227 169.407 68.052 169.38 70.311C169.428 72.542 171.258 74.322 173.49 74.311C175.699 74.311 177.49 72.52 177.49 70.311C177.502 68.079 175.721 66.249 173.49 66.2Z" fill="#2B2B2B"/>
<path d="M100.615 167.879L122.755 225.539L136.085 229.64C150.122 228.992 174.822 230.196 174.822 230.196L171.643 162.57L162.236 144.69L122.192 142.015L100.615 167.879Z" fill="#5A753C"/>
<path d="M174.62 228.519L122.63 225.041L125.88 233.679L145.04 247.44L177.09 248.879L176.84 246.664L174.62 228.519Z" fill="#99C26C"/>
<path d="M125.88 233.68L99.9401 266.96L133.94 272.651L177.09 248.88L125.88 233.68Z" fill="#53AF8A"/>
<path d="M99.9401 266.96L115.57 290.15L107.36 314.36L150.01 341.15L177.09 248.88L99.9401 266.96Z" fill="#3E8F6E"/>
<path d="M115.57 290.15L74.3701 295.92C97.8071 317.263 121.243 338.606 144.68 359.95L150.01 341.15L115.57 290.15Z" fill="#35785D"/>
<path d="M207.49 22.12L197.98 17.51L193.3 27.02L202.95 31.7L207.49 22.12Z" fill="#35785D"/>
<path d="M193.51 26.95L183.93 22.34L179.321 31.84L188.981 36.53L193.51 26.95Z" fill="#53AF8A"/>
<path d="M179.679 31.7L170.03 27.02L165.49 36.6L174.999 41.21L179.679 31.7Z" fill="#35785D"/>
<path d="M165.71 36.6L156.2 31.99L151.52 41.57L161.1 46.18L165.71 36.6Z" fill="#53AF8A"/>
<path d="M151.81 41.35L142.23 36.67L137.69 46.25L147.27 50.86L151.81 41.35Z" fill="#35785D"/>
<path d="M138.05 46.18L128.54 41.5L123.86 51.15L133.51 55.69L138.05 46.18Z" fill="#53AF8A"/>
<path d="M124.22 50.86L114.57 46.25L110.03 55.76L119.61 60.44L124.22 50.86Z" fill="#35785D"/>
<path d="M110.32 55.69L100.74 51.08L96.1301 60.59L105.63 65.27L110.32 55.69Z" fill="#53AF8A"/>
<path d="M175.429 212.5L218.869 200.04L222.98 203.79L224.49 208.61L177.089 248.88L175.429 212.5Z" fill="#99C26C"/>
<path d="M174.015 183.965L177.09 248.88L133.8 183.19L151.661 183.95L174.015 183.965Z" fill="#738D56"/>
<path d="M218.87 200.04L225.71 192.98L234.43 199.47L243.94 184.05H246.53L242.059 204.65L224.49 208.61L218.87 200.04Z" fill="#DFBCA4"/>
<path d="M222.25 196.44L242.06 204.65L245.88 195.36L246.53 184.05H243.94L237.67 191.9L234.43 199.47L230.32 194.57L225.71 192.98L222.25 196.44Z" fill="#8A6651"/>
<path d="M250.06 204.94L250.35 223.52H246.6L246.89 204.94H250.06Z" fill="#738D56"/>
<path d="M248.04 168.85L249.56 150.7L228.38 156.39L240.34 168.85H248.04Z" fill="#B8C645"/>
<path d="M240.34 172.16L220.38 163.01L213.25 181.02L240.34 177.85V172.16Z" fill="#B8C645"/>
<path d="M240.34 181.02L217.069 186.35L234.429 199.47L243.94 184.05H240.34V181.02Z" fill="#B8C645"/>
<path d="M246.531 184.05L242.06 204.651L260.361 204.941L251.93 184.05H246.531Z" fill="#B8C645"/>
<path d="M255.611 184.05L269.65 202.63L281.389 191.25L255.611 179.73V184.05Z" fill="#B8C645"/>
<path d="M255.61 177.28L282.83 183.76L285.57 168.42L255.61 173.75V177.28Z" fill="#B8C645"/>
<path d="M255.61 171.23L278.799 159.05L263.03 149.47L250.42 168.85H255.61V171.23Z" fill="#B8C645"/>
<path d="M255.609 184.05H240.339V168.85H255.609V184.05Z" fill="#5A753C"/>
<path d="M248.04 168.85L240.34 176.49L248.04 184.05L255.61 176.49L248.04 168.85Z" fill="#D9E253"/>
<path d="M150.5 113.5L147 175.5L151.5 184.75L159.008 176L155.826 124.96L150.5 113.5Z" fill="#D9E354"/>
<path d="M152.24 116.27L173.34 154.23L189.48 184.05L151.66 184.7L152.24 116.27Z" fill="#D9E253"/>
<path d="M144.819 74.27L100.74 168.63L73.8701 154.591L92.0899 128.371L147.269 50.8599L144.819 74.27Z" fill="#D9E253"/>
<path d="M144.819 74.27L130.254 105.451L100.74 168.63L128.374 180.8L133.8 183.19L137.54 145.94L143.96 117.56L144.819 74.27Z" fill="#B8C645"/>
<path d="M147.27 50.8599L133.801 183.19L151.662 184.7L152.241 116.27L151.741 41.2099L147.27 50.8599Z" fill="#E8EF78"/>
<path d="M151.88 69.4399L144.82 74.2699L143.16 91.1299L152.02 85.1499L151.88 69.4399Z" fill="#5A753C"/>
<path d="M152.019 85.1499L143.16 91.1299L141.939 103.37L152.089 97.7499L152.019 85.1499Z" fill="#99C26C"/>
<path d="M152.09 97.75L141.94 103.37L140.5 116.99L152.17 110.5L152.09 97.75Z" fill="#5A753C"/>
<path d="M152.17 110.5L140.5 116.99L138.99 132.04L152.17 124.48L152.17 110.5Z" fill="#99C26C"/>
<path d="M152.17 124.48L138.99 132.04L137.54 145.94L152.09 137.88L152.17 124.48Z" fill="#5A753C"/>
<path d="M36.3403 183.874L28.8821 150.732L19.1963 172.073L36.3403 183.874Z" fill="#3E8F6E"/>
<path d="M19.1963 172.073L1.224 155.991L7.70055 188.778L19.1963 172.073Z" fill="#53AF8A"/>
<path d="M33.5884 189.721L19.1963 172.073L19.6998 180.873L21.9702 187.472L33.5884 189.721Z" fill="#738D56"/>
<path d="M19.1963 172.073L12.4011 193.62L21.9702 187.472L19.1963 172.073Z" fill="#99C26C"/>
<path d="M278.64 31.8655L263.007 4.57637L259.493 28.3512L278.64 31.8655Z" fill="#3E8F6E"/>
<path d="M259.494 28.3513L238.518 18.7504L252.828 47.1327L259.494 28.3513Z" fill="#53AF8A"/>
<path d="M278.237 38.7422L259.493 28.3512L262.365 36.3792L267.432 41.8281L278.237 38.7422Z" fill="#738D56"/>
<path d="M259.494 28.3512L258.888 50.3843L267.432 41.8281L259.494 28.3512Z" fill="#99C26C"/>
<path d="M43.8755 33.8152L60.2646 5.63025L65.12 29.75L43.8755 33.8152Z" fill="#3E8F6E"/>
<path d="M65.12 29.7501L88.8334 22.8345L72.4949 50.2279L65.12 29.7501Z" fill="#53AF8A"/>
<path d="M44.2793 42.1475L65.1201 29.75L61.0101 39.05L56.9801 43.15L44.2793 42.1475Z" fill="#738D56"/>
<path d="M65.12 29.75L64.8331 54.0468L56.98 43.15L65.12 29.75Z" fill="#99C26C"/>
</svg>
