<svg width="400" height="400" viewBox="0 0 400 400" fill="none" xmlns="http://www.w3.org/2000/svg">
<g opacity="0.1">
<path d="M89.5979 392.995L207.684 379.49L304.405 390.746L205.361 400L89.5979 392.995Z" fill="black"/>
</g>
<path d="M186.228 328.212L213.068 317.4L229.714 281.776L176.326 295.256L186.228 328.212Z" fill="#856300"/>
<path d="M222.343 160.745L267.401 208.098L263.085 217.068L237.263 207.149L223.014 194.979L224.607 174.217L222.343 160.745Z" fill="#DFBCA4"/>
<path d="M237.263 207.15L287.626 194.98L291.698 198.706L292.617 209.461L261.001 224.663L237.263 207.15Z" fill="#C3977A"/>
<path d="M292.59 196.93L305.159 185.492L310.402 194.352L306.297 208.2L292.615 209.459L290.4 203.03L292.59 196.93Z" fill="#8A6651"/>
<path d="M319.778 220.194L312.238 223.182L304.061 202.561L302.523 197.616L297.604 186.272L293.268 175.338L300.806 172.347L305.057 183.069L310.117 197.375L312.901 202.85L319.778 220.194Z" fill="#9E7700"/>
<path d="M315.215 208.685L306.298 208.201L293.269 175.336L300.807 172.347L315.215 208.685Z" fill="#755700"/>
<path d="M304.529 181.733L313.357 180.161L321.133 199.19L309.813 206.249L304.703 196L304.529 181.733Z" fill="#C3977A"/>
<path d="M287.626 194.98L290.4 203.03L297.939 198.791L299.822 192.461L305.752 198.103L310.278 196.625L304.528 181.734L297.123 185.056L287.626 194.98Z" fill="#DFBCA4"/>
<path d="M308.689 172.449L297.374 174.786L287.598 180.811L276.473 171.739L292.055 163.409L310.575 158.217L308.689 172.449Z" fill="#CCAC13"/>
<path d="M310.575 158.217L276.472 171.739L274.139 165.856L290.652 157.158L308.243 152.333L310.575 158.217Z" fill="#9E7700"/>
<path d="M308.244 152.333L274.14 165.855L271.806 159.971L287.852 151.457L305.91 146.449L308.244 152.333Z" fill="#E4C728"/>
<path d="M305.91 146.448L271.806 159.97L269.472 154.086L285.984 145.388L303.578 140.564L305.91 146.448Z" fill="#9E7700"/>
<path d="M292.45 131.493L282.376 137.639L271.36 139.855L269.472 154.086L303.578 140.564L292.45 131.493Z" fill="#CCAC13"/>
<path d="M287.599 180.811L293.524 164.978L308.689 172.449L287.599 180.811Z" fill="#9E7700"/>
<path d="M271.361 139.855L286.524 147.325L292.449 131.493L271.361 139.855Z" fill="#9E7700"/>
<path d="M187.658 392.996L153.415 392.276L151.946 382.052H168.211L187.658 392.996Z" fill="#755700"/>
<path d="M168.477 354.742L166.842 368.635L188.963 388.716L183.885 390.442L163.446 385.552L155.211 379.69L153.433 370.75L168.477 354.742Z" fill="#DFBCA4"/>
<path d="M153.434 370.75L163.446 385.552L193.506 387.731L187.659 392.996L151.946 382.052L153.434 370.75Z" fill="#C3977A"/>
<path d="M178.326 379.059L172.726 388.419L177.323 389.829L181.99 382.385L178.326 379.059Z" fill="#9E7700"/>
<path d="M177.323 346.781L166.843 368.635L153.433 370.751L157.507 339.781L162.711 330.674L177.323 346.781Z" fill="#C3977A"/>
<path d="M157.728 339.691L177.323 346.78L186.228 328.212L169.14 323.147L157.728 339.691Z" fill="#8A6651"/>
<path d="M165.389 170.327L136.982 209.995L146.963 216.515L166.327 209.995L168.478 181.095L165.389 170.327Z" fill="#DFBCA4"/>
<path d="M166.327 209.994L113.406 194.272L109.139 197.771L107.637 208.46L142.375 225.577L166.327 209.994Z" fill="#C3977A"/>
<path d="M235.791 368.164L205.189 350.731L209.577 341.248L224.791 354.47L235.791 368.164Z" fill="#755700"/>
<path d="M229.368 332.967L238.675 364.742L234.459 363.734L229.612 361.233L216.307 348.157L213.957 340.247L217.212 333.739L223.014 323.148L229.368 332.967Z" fill="#DFBCA4"/>
<path d="M217.212 333.74L216.308 348.159L243.239 365.625L235.791 368.164L209.578 341.249L217.212 333.74Z" fill="#C3977A"/>
<path d="M234.323 349.888L224.487 356.556L227.447 359.596L235.735 354.706L234.323 349.888Z" fill="#9E7700"/>
<path d="M235.864 282.826L229.368 332.967L217.212 333.739L213.068 317.399L224.011 280.704L235.864 282.826Z" fill="#C3977A"/>
<path d="M210.162 305.945L213.068 317.401L235.864 282.828L217.848 275.953L210.162 305.945Z" fill="#8A6651"/>
<path d="M165.219 169.788L222.343 160.746L204.495 189.614L165.219 169.788Z" fill="#DFBCA4"/>
<path d="M165.219 169.787L166.326 209.995L193.743 196.703L204.261 185.405L165.219 169.787Z" fill="#9E7700"/>
<path d="M204.261 185.405L222.343 160.746L237.263 207.15L213.266 200.015L204.261 185.405Z" fill="#9E7700"/>
<path d="M166.327 209.995L167.149 235.847L204.368 271.725L237.263 207.15L204.261 185.405L166.327 209.995Z" fill="#755700"/>
<path d="M169.803 248.988L235.865 282.829L184.741 328.81L172.742 326.795L143.375 264.336L169.803 248.988Z" fill="#E4C728"/>
<path d="M143.375 264.334L186.229 328.212L157.507 339.78L143.375 264.334Z" fill="#CCAC13"/>
<path d="M235.865 282.828L143.375 264.335L167.149 235.847L235.865 282.828Z" fill="#F4D65D"/>
<path d="M108.345 195.951L96.415 183.847L90.699 192.408L94.043 206.459L107.637 208.461L110.199 202.161L108.345 195.951Z" fill="#8A6651"/>
<path d="M79.9319 217.701L87.2979 221.096L96.5829 200.949L98.3889 196.095L103.916 185.036L108.84 174.352L101.476 170.957L96.6489 181.431L90.8189 195.441L87.7419 200.758L79.9319 217.701Z" fill="#9E7700"/>
<path d="M85.114 206.459H94.043L108.84 174.353L101.476 170.957L85.114 206.459Z" fill="#755700"/>
<path d="M97.25 180.127L88.519 178.078L79.72 196.655L90.641 204.318L96.3 194.362L97.25 180.127Z" fill="#C3977A"/>
<path d="M113.406 194.273L110.199 202.161L102.901 197.516L101.365 191.096L95.137 196.407L90.698 194.683L97.25 180.127L104.464 183.847L113.406 194.273Z" fill="#DFBCA4"/>
<path d="M93.6 170.631L104.771 173.579L114.204 180.128L125.808 171.673L110.7 162.509L92.49 156.318L93.6 170.631Z" fill="#CCAC13"/>
<path d="M92.49 156.317L125.807 171.672L128.456 165.925L112.441 156.342L95.137 150.57L92.49 156.317Z" fill="#9E7700"/>
<path d="M95.1379 150.569L128.456 165.925L131.106 160.176L115.546 150.801L97.7879 144.82L95.1379 150.569Z" fill="#E4C728"/>
<path d="M97.7891 144.819L131.106 160.175L133.757 154.426L117.742 144.844L100.437 139.071L97.7891 144.819Z" fill="#9E7700"/>
<path d="M112.042 130.618L121.766 137.303L132.645 140.114L133.757 154.427L100.437 139.071L112.042 130.618Z" fill="#CCAC13"/>
<path d="M114.205 180.127L109.148 163.995L93.6011 170.631L114.205 180.127Z" fill="#9E7700"/>
<path d="M132.644 140.114L117.096 146.749L112.042 130.619L132.644 140.114Z" fill="#9E7700"/>
<path d="M142.964 141.466L179.44 143.292V112.17L142.964 141.466Z" fill="#2B2B2B"/>
<path d="M132.384 58.697L108.355 95.169L143.945 86.35L132.384 58.697Z" fill="#6E7073"/>
<path d="M295.107 90.101L294.159 107.496L269.825 106.396L275.206 78.416L295.107 90.101Z" fill="#2B2B2B"/>
<path d="M287.298 52.7639L305.584 83.3479L285.369 89.1179L277.258 83.5809L274.004 59.9369L287.298 52.7639Z" fill="#4F5252"/>
<path d="M305.584 83.3479L277.258 83.5809L262.884 92.1129L269.825 106.396L305.584 83.3479Z" fill="#464646"/>
<path d="M108.355 95.1689L153.961 116.523L176.553 118.93L177.327 92.1299L165.219 71.4399L108.355 95.1689Z" fill="#464646"/>
<path d="M269.939 90L277.631 117.6L258.889 123.918L262.079 114.132L267.037 112.401L265.058 104.984L263.683 99.271L269.939 90Z" fill="#856300"/>
<path d="M173.804 95.7179L179.481 128.399L189.975 158.498L208.995 159.745L220.161 146.443L253.395 156.828L287.298 52.7649L206.918 72.1839L173.804 95.7179Z" fill="#DFBCA4"/>
<path d="M208.477 95.292L197.825 141.195L220.162 146.443L207.045 161.951L205.798 173.214L181.94 167.142L176.554 118.93L178.492 110.832L173.804 95.719L200.167 74L208.477 95.292Z" fill="#C3977A"/>
<path d="M260.666 77.116L257.289 79.714L250.347 101.118L265.811 87.672L271.829 82.569L260.666 77.116Z" fill="#C3977A"/>
<path d="M250.214 77.376L245.087 71.664L228.5 71.228L238.596 90.1L239.893 105.938L250.214 77.376Z" fill="#C3977A"/>
<path d="M192.896 110.351L176.553 118.929L173.803 95.7179L189.271 79.9629L203.595 92.6009L192.896 110.351Z" fill="#8A6651"/>
<path d="M250.214 77.377L257.289 79.714L247.943 108.535L239.893 105.939L250.214 77.377Z" fill="#E8C9B6"/>
<path d="M239.893 105.938L242.491 112.17L247.943 108.536L239.893 105.938Z" fill="#8A6651"/>
<path d="M285.113 59.4739L207.698 99.1879L193.898 98.3229L199.018 85.9919L245.088 71.6639L287.298 52.7639L285.113 59.4739Z" fill="#8A6651"/>
<path d="M159.337 54.8708L154.878 44.1828L112.406 33.4958L145.381 108.068L166.71 89.1168L169.478 73.7868L159.337 54.8708Z" fill="#4F5252"/>
<path d="M145.382 60.4989L112.406 33.4949L173.804 27.2209L166.372 48.7859L145.382 60.4989Z" fill="#6E7073"/>
<path d="M145.381 60.5L208.207 42.862L248.631 18.86L197.05 0.00195312L145.381 60.5Z" fill="#4F5252"/>
<path d="M264.3 69.5859L271.83 82.5699L260.666 77.1169L264.3 69.5859Z" fill="#2B2B2B"/>
<path d="M213.266 109.694L241.763 114.193L257.75 125.664L231.96 142.67L213.266 109.694Z" fill="#856300"/>
<path d="M225.598 122.936L235.743 119.594L244.586 129.755L237.862 134.298L230.661 131.763L225.598 122.936Z" fill="#755700"/>
<path d="M225.598 122.936L244.586 129.755L251.311 125.212L220.536 114.109L225.598 122.936Z" fill="white"/>
<path d="M199.678 90.4409L192.896 110.351L165.46 101.666L167.003 97.0319L173.803 95.7169L187.963 99.9639L190.483 92.3159L199.678 90.4409Z" fill="#856300"/>
<path d="M220.162 146.443L190.56 136.836L205.799 173.214L220.162 146.443Z" fill="#8A6651"/>
<path d="M169.479 73.7869L145.382 108.069L199.678 90.4419L169.479 73.7869Z" fill="#2B2B2B"/>
<path d="M108.354 95.168L176.554 118.93L142.964 141.466L108.354 95.168Z" fill="#464646"/>
<path d="M267.301 92.1128C267.301 94.5518 265.323 96.5298 262.884 96.5298C260.445 96.5298 258.467 94.5518 258.467 92.1128C258.467 89.6738 260.445 87.6958 262.884 87.6958C265.323 87.6958 267.301 89.6738 267.301 92.1128Z" fill="#2B2B2B"/>
<path d="M241.073 83.3479C241.073 85.7869 239.093 87.7649 236.654 87.7649C234.215 87.7649 232.238 85.7869 232.238 83.3479C232.238 80.9089 234.215 78.9309 236.654 78.9309C239.093 78.9309 241.073 80.9089 241.073 83.3479Z" fill="#2B2B2B"/>
<path d="M300.391 45.699L208.476 95.293L145.381 60.5L218.723 50.711L300.391 45.699Z" fill="#464646"/>
<path d="M300.391 45.6999L271.569 9.60986L145.381 60.4999L300.391 45.6999Z" fill="#8F8F8F"/>
</svg>
