<svg width="287" height="400" viewBox="0 0 287 400" fill="none" xmlns="http://www.w3.org/2000/svg">
<g opacity="0.1">
<path d="M272.501 387.022L148.269 376.155L26.4961 391.247L147.63 400.002L272.501 387.022Z" fill="black"/>
</g>
<path d="M23.2452 269.143L32.9571 250.416L37.7331 241.677L49.8311 245.163L44.8731 253.146L32.8202 274.346L23.2452 269.143Z" fill="#4F5252"/>
<path d="M65.718 188.299L98.257 244.301L73.181 252.823L48.858 221.25L65.718 188.299Z" fill="#856300"/>
<path d="M185.247 161.827L214.673 205.849L210.341 226.898L198.266 239.584L182.901 226.465L179.231 189.259L185.247 161.827Z" fill="#856300"/>
<path d="M214.674 205.848L240.564 203.604L244.571 216.802L240.832 232.642L198.267 239.583L214.674 205.848Z" fill="#BE8F00"/>
<path d="M181.702 284.067L186.999 325.139L173.845 346.405L149.999 342.425L126.746 304.305L181.702 284.067Z" fill="#856300"/>
<path d="M149.999 342.426L186.999 325.139L190.984 356.051L178.783 367.671L164.509 366.212L149.999 342.426Z" fill="#755700"/>
<path d="M191.684 359.057L201.272 365.007L217.677 379.29L187.828 381.508L165.644 379.29L164.509 366.213L185.247 354.028L191.684 359.057Z" fill="#B58A00"/>
<path d="M184.244 358.637L194.28 367.671L201.27 365.007L190.984 356.051L186.999 354.027L184.244 358.637Z" fill="#E4C728"/>
<path d="M146.822 312.404L140.162 335.487L119.21 346.405L98.258 340.772L86.296 285.671L130.486 298.623L146.822 312.404Z" fill="#BE8F00"/>
<path d="M98.2571 340.772L140.161 335.488L131.486 365.555L117.573 372.568L104.19 370.596L98.2571 340.772Z" fill="#856300"/>
<path d="M131.487 365.556L140.162 385.811L118.857 388.803L101.596 385.811L104.19 370.597L113.384 364.691L117.945 363.505H122.417L131.487 365.556Z" fill="#B58A00"/>
<path d="M140.162 391.793H101.596V385.81H140.162V391.793Z" fill="#E4C728"/>
<path d="M113.385 368.78L114.738 378.393H125.823L122.176 367.215L117.945 366.213L113.385 368.78Z" fill="#E4C728"/>
<path d="M217.724 385.173H165.645V379.19H217.724V385.173Z" fill="#E4C728"/>
<path d="M181.702 284.067L146.821 312.404L86.295 285.67L128.267 279.852L148.267 267.5L160.534 276.718L181.702 284.067Z" fill="#9E7700"/>
<path d="M100.59 352.502L135.298 352.345L131.486 365.556L104.19 370.597L100.59 352.502Z" fill="#9E7700"/>
<path d="M113.404 368.895V359.057L122.746 358.116L122.186 367.274L113.404 368.895Z" fill="#CCAC13"/>
<path d="M157.624 354.924L188.936 340.16L190.984 356.051L164.509 366.212L157.624 354.924Z" fill="#9E7700"/>
<path d="M184.245 358.638L182.392 348.641L189.74 346.406L190.984 356.051L184.245 358.638Z" fill="#CCAC13"/>
<path d="M175.415 168.172L160.534 161.559L150.315 175.572L142.109 195.221L115.017 186.003L88.2041 180.112L75.6781 194.012L83.9841 244.298L88.2041 257.235L86.2951 285.67L137.125 294.353L148.268 268.933L161.91 291.463L181.702 284.068L182.9 226.465L175.415 168.172Z" fill="#E4C728"/>
<path d="M80.1371 157.793L90.2581 147.219L91.8071 156.896L97.9291 167.127L80.1371 157.793Z" fill="#755700"/>
<path d="M149.777 135.419L169.836 145.964L160.535 161.559L142.11 195.221L143.102 160.987L149.777 135.419Z" fill="#755700"/>
<path d="M83.986 244.301L88.205 180.113L65.717 188.299L83.986 244.301Z" fill="#BE8F00"/>
<path d="M185.246 161.827L182.9 226.465L160.534 161.558L185.246 161.827Z" fill="#BE8F00"/>
<path d="M133.567 215.531L95.063 221.66L95.909 226.971L134.411 220.843L133.567 215.531Z" fill="#BE8F00"/>
<path d="M80.9691 51.7679L139.172 45.6409L157.081 36.9219L176.639 127.171L149.777 135.419L146.103 147.077L142.34 154.723L117.73 168.172L97.4641 155.385L66.6861 120.259L54.3421 101.016L50.8871 81.2559L80.9691 51.7679Z" fill="#DFBCA4"/>
<path d="M87.6271 51.0669L115.174 145.511L149.776 135.42L146.598 147.519L146.889 159.455L142.109 195.221L111.062 177.334L92.2801 160.161L74.4181 132.314L73.7821 124.416L66.6881 120.261L81.9151 108.834L68.9521 90.4119L54.3431 101.016L45.1521 86.8779L73.1201 59.4639L80.9701 51.7679L87.6271 51.0669Z" fill="#C3977A"/>
<path d="M143.05 96.881L126.179 72.845L104.771 65.906L129.276 58.365L135.569 65.992L144.489 82.063L143.05 96.881Z" fill="#C3977A"/>
<path d="M144.735 63.7969L145.721 56.0089L160.249 51.5369L148.856 87.3489L144.735 63.7969Z" fill="#C3977A"/>
<path d="M81.915 108.832L66.687 120.262L74.416 132.31L81.915 108.832Z" fill="#8A6651"/>
<path d="M138.773 79.2239L110.896 102.548L99.416 91.4829L94.508 91.3059L92.259 87.9589L104.769 81.9739L138.773 79.2239Z" fill="#8A6651"/>
<path d="M148.046 77.472L167.222 83.718L166.406 79.958L162.669 73.248L148.046 77.472Z" fill="#8A6651"/>
<path d="M74.7651 61.9109L103.09 104.083L88.3051 117.913L68.9521 90.4129L54.3421 101.016L45.1521 86.8789L59.9101 68.9949L74.7651 61.9109Z" fill="#856300"/>
<path d="M144.735 63.7969L135.567 65.9909L143.049 96.8809L152.211 94.6619L144.735 63.7969Z" fill="#E8C9B6"/>
<path d="M74.03 107.345L68.09 97.0769L59.312 103.142L74.03 107.345Z" fill="#8A6651"/>
<path d="M104.77 65.9059L121.735 54.3599L129.276 58.3659L104.77 65.9059Z" fill="#856300"/>
<path d="M145.721 56.0079L152.985 48.4119L160.248 51.5369L145.721 56.0079Z" fill="#856300"/>
<path d="M166.741 99.6011L115.137 112.089L134.695 121.987L157.081 116.803L166.741 99.6011Z" fill="#C3977A"/>
<path d="M160.806 104.396L124.554 113.128L135.396 119.168L154.78 114.629L160.806 104.396Z" fill="white"/>
<path d="M152.211 94.6619L148.271 101.188L143.049 96.8809L152.211 94.6619Z" fill="#8A6651"/>
<path d="M94.51 91.305L70.575 92.719L68.952 90.411L81.732 86.877L92.316 88.041L94.51 91.305Z" fill="#755700"/>
<path d="M149.777 135.418L104.533 148.614L146.889 159.454L149.777 135.418Z" fill="#8A6651"/>
<path d="M139.172 9.823L54.3431 31.031L38.8621 56.951L92.2801 36.922L139.172 9.823Z" fill="#BE8F00"/>
<path d="M87.6281 51.0669L45.1531 86.8779L38.8621 56.9509L76.8821 38.3359L87.6281 51.0669Z" fill="#9E7700"/>
<path d="M87.6271 51.067L76.8821 46.936V38.336L139.173 9.823L141.154 28.138L139.173 45.64L87.6271 51.067Z" fill="#856300"/>
<path d="M139.172 9.82295V45.64L157.081 36.922L179.938 0.00195312L139.172 9.82295Z" fill="#BE8F00"/>
<path d="M101.471 74.1519L55.521 85.2279L54.342 101.016L68.951 90.4129L104.77 86.6419L104.352 79.6829L101.471 74.1519Z" fill="#464646"/>
<path d="M144.734 63.7969L135.567 65.9909L135.088 69.8949L137.506 73.9989L146.648 71.6989L147.639 68.3599L144.734 63.7969Z" fill="#464646"/>
<path d="M173.339 56.9519L179.231 81.6929L148.046 77.4729L144.735 63.7969L173.339 56.9519ZM138.773 79.2229L108.069 99.1299L101.471 74.1519L135.568 65.9919L138.773 79.2229Z" fill="#4F5252"/>
<path d="M118.857 168.863L80.137 157.794L88.204 180.112L142.109 195.22L118.857 168.863Z" fill="#BE8F00"/>
<path d="M88.204 257.235L142.34 233.342H148.267L182.392 250.878L148.267 267.5L88.204 257.235Z" fill="#CCAC13"/>
<path d="M142.11 195.221L142.34 233.342L148.268 268.933V233.342L142.11 195.221Z" fill="#BE8F00"/>
<path d="M48.857 221.251L97.464 253.147L95.063 267.5L86.895 276.741L32.958 250.417L48.857 221.251Z" fill="#BE8F00"/>
<path d="M97.465 253.146L109.537 260.879L86.895 276.741L97.465 253.146Z" fill="#DFBCA4"/>
<path d="M240.563 203.603L255.825 202.483L262.794 215.316L258.248 232.687L240.832 232.642L240.563 203.603Z" fill="#C3977A"/>
<path d="M255.825 202.483L286.791 200.707L286.791 207.002L260.412 213.218L255.825 202.483Z" fill="#C3977A"/>
<path d="M240.562 203.604L252.42 183.756L259.021 185.76L253.964 212.208L240.687 217.085L240.562 203.604Z" fill="#DFBCA4"/>
<path d="M271.56 210.591L272.5 228.063L258.248 232.687L253.964 212.208L271.56 210.591Z" fill="#DFBCA4"/>
<path d="M18.4282 276.719L89.8182 304.457L103.09 316.038L98.2573 340.773L12.4652 323.24L0.452171 289.952L18.4282 276.719Z" fill="#858585"/>
<path d="M89.8172 304.457L0.45316 289.952L23.2461 269.145L116.303 280.676L109.017 297.358L89.8172 304.457Z" fill="#9DA0A1"/>
<path d="M114.007 284.232L106.834 289.178L89.8183 304.457L98.2573 340.772L126.02 316.038L119.221 291.291L114.007 284.232Z" fill="#6E7073"/>
<path d="M88.205 180.112L119.21 291.292L106.835 289.178L79.556 183.26L88.205 180.112Z" fill="#4F5252"/>
<path d="M35.4522 304.548L27.2812 305.106L26.7232 309.19L30.9942 312.16L25.9812 314.018L26.1672 316.804L33.0362 315.874L34.8942 311.234L29.5092 307.89L36.0092 307.333L35.4522 304.548Z" fill="#DDDDDC"/>
<path d="M45.4772 307.705L38.6062 306.405L36.1933 317.546L39.9073 318.661L39.5342 313.46L44.9213 314.205L45.4772 307.705ZM41.7642 311.976L39.5342 311.047L39.9072 308.633L42.1342 309.934L41.7642 311.976Z" fill="#DDDDDC"/>
<path d="M55.3182 309.934L47.8902 309.004L46.9622 319.403L54.7602 319.96L55.3182 309.934ZM51.9752 317.175L49.1892 316.431L49.7462 312.347L53.0902 313.276L51.9752 317.175Z" fill="#DDDDDC"/>
<path d="M66.5042 322.466L64.6002 317.917L66.2712 311.419L59.4022 310.119L56.9882 321.26L60.7022 322.373L60.3302 317.175L63.9972 322.745L66.5042 322.466ZM60.7022 312.347L62.9302 313.647L62.5582 315.69L60.3302 314.761L60.7022 312.347Z" fill="#DDDDDC"/>
<path d="M68.5932 312.44L78.6192 312.997L78.2012 315.642L73.7452 315.364L73.0492 323.58L69.4282 322.883L71.5172 315.503L67.8972 314.946L68.5932 312.44Z" fill="#DDDDDC"/>
</svg>
