<svg width="288" height="400" viewBox="0 0 288 400" fill="none" xmlns="http://www.w3.org/2000/svg">
<g opacity="0.1">
<path d="M258.861 391.33L147.971 383.315L42.4189 389.666L142.778 399.751L258.861 391.33Z" fill="black"/>
</g>
<path d="M177.682 379.569L178.744 390.203H194.449L199.64 387.659L204.074 383.363L190.187 369.399L183.412 369.168L177.682 379.569Z" fill="#DFBCA4"/>
<path d="M178.744 390.203L177.914 381.893L187.103 390.203L209.646 378.805L219.778 390.203H178.744Z" fill="#C3977A"/>
<path d="M120.541 369.167L127.499 377.985L129.857 391.976H117.445L111.673 386.96L105.541 379.568L110.281 371.358L120.541 369.167Z" fill="#DFBCA4"/>
<path d="M106.151 378.926L93.636 391.976H129.858L128.259 382.496L121.707 391.976L106.151 378.926Z" fill="#C3977A"/>
<path d="M186.697 365.889L181.157 366.428L176.621 368.937L177.682 379.57L190.187 369.4L186.697 365.889Z" fill="#8A6651"/>
<path d="M125.73 367.487L121.273 364.733L114.025 364.873L110.281 371.359L127.499 377.985L125.73 367.487Z" fill="#8A6651"/>
<path d="M190.777 283.944L167.497 293.349L144.676 306.234L158.987 344.609L181.08 339.949L202.555 331.69L190.777 283.944Z" fill="#BE8F00"/>
<path d="M158.987 344.609L164.053 359.047L183.782 346.982L202.555 331.691L158.987 344.609Z" fill="#E4C728"/>
<path d="M164.053 359.047L202.554 331.691L210.154 358.793L187.169 361.047L164.053 359.047Z" fill="#CCAC13"/>
<path d="M164.053 359.048L169.119 371.206L210.154 358.794L164.053 359.048Z" fill="#E4C728"/>
<path d="M144.676 306.234L141.509 343.342L118.639 340.812L91.6079 334.73L95.5349 285.97L124.484 295.92L144.676 306.234Z" fill="#BE8F00"/>
<path d="M91.6089 334.731L117.012 349.439L140.243 359.047L141.509 343.343L91.6089 334.731Z" fill="#E4C728"/>
<path d="M91.6089 334.731L89.0759 359.3L117.003 360.581L140.242 359.047L91.6089 334.731Z" fill="#CCAC13"/>
<path d="M140.243 359.047L89.075 359.3L138.977 370.445L140.243 359.047Z" fill="#E4C728"/>
<path d="M166.978 171.282L177.361 174.757L183.114 180.239L190.65 179.205L204.834 193.642L200.76 206.884L190.396 222.265L100.221 224.545L89.432 215.445L81.224 204.281L101.488 178.951L109.207 177.954L113.103 173.981L124.719 169.011L142.649 181.907L166.978 171.282Z" fill="#464646"/>
<path d="M190.776 283.943L144.675 306.233L95.536 285.969L100.221 224.544L107.868 215.85L115.546 211.499L175.578 208.206L182.672 211.962L190.396 222.264L190.776 283.943Z" fill="#856300"/>
<path d="M190.65 179.205L190.397 222.266L175.578 208.207L177.356 174.756L190.65 179.205Z" fill="#BE8F00"/>
<path d="M113.103 173.981L115.546 211.501L100.22 224.544L101.487 178.951L113.103 173.981Z" fill="#BE8F00"/>
<path d="M165.692 264.186H125.172L125.172 222.889H165.692L165.692 264.186Z" fill="#9E7700"/>
<path d="M190.534 244.685L185.963 241.39L181.404 249.748L187.483 248.737L190.604 256.085L190.534 244.685Z" fill="#9E7700"/>
<path d="M163.926 269.252L157.341 274.57L158.354 279.89L166.966 286.224L170.259 272.798L163.926 269.252Z" fill="#CCAC13"/>
<path d="M125.173 259.879L135.811 256.335L134.798 247.723L139.864 245.696L136.824 237.337L134.038 238.35L134.292 242.403L127.706 241.897L125.173 248.23L124.227 253.422L125.173 259.879Z" fill="#CCAC13"/>
<path d="M145.942 272.039L139.356 270.266L140.876 277.358L145.689 276.599L145.942 272.039Z" fill="#9E7700"/>
<path d="M125.172 248.229L116.56 249.495L120.612 259.879H125.172L125.172 248.229Z" fill="#B58A00"/>
<path d="M224.592 210.486L204.833 193.642L190.396 222.264L204.961 227.204L218.278 222.556L224.592 210.486Z" fill="#DFBCA4"/>
<path d="M100.221 224.544L75.904 244.555L69.187 218.471L81.223 204.281L100.221 224.544Z" fill="#DFBCA4"/>
<path d="M65.012 202.255L15.872 209.6L0.166992 251.649L22.458 286.857L67.292 302.562L111.747 292.655L107.566 250.636L75.904 244.556L65.012 202.255Z" fill="#E4C728"/>
<path d="M53.614 223.785L48.223 229.058L40.443 233.918L51.335 251.141L63.493 241.01L57.068 231.34L53.614 223.785Z" fill="#C3977A"/>
<path d="M59.657 244.207L55.642 232.144L40.443 233.918L53.615 223.785L63.493 241.01L59.657 244.207Z" fill="#8A6651"/>
<path d="M55.6419 232.144L40.4419 233.917L36.1379 250.184L40.8779 252.792L55.6419 232.144Z" fill="#DFBCA4"/>
<path d="M31.747 224.828L22.235 221.336L18.743 230.847L28.255 234.34L31.747 224.828Z" fill="#464646"/>
<path d="M25.6679 241.546L16.1559 238.054L12.6639 247.565L22.1749 251.058L25.6679 241.546Z" fill="#802C00"/>
<path d="M31.747 260.291L22.235 256.798L18.743 266.309L28.255 269.802L31.747 260.291Z" fill="#A84000"/>
<path d="M47.198 272.956L37.686 269.463L34.194 278.975L43.706 282.467L47.198 272.956Z" fill="#CC4E00"/>
<path d="M64.422 279.288L54.91 275.795L51.418 285.306L60.93 288.799L64.422 279.288Z" fill="#EC8500"/>
<path d="M83.927 279.794L74.415 276.301L70.923 285.812L80.433 289.305L83.927 279.794Z" fill="#FF9B01"/>
<path d="M101.151 269.916L91.639 266.424L88.147 275.934L97.659 279.426L101.151 269.916Z" fill="#F4D65D"/>
<path d="M55.641 232.144L51.334 251.142L46.949 244.207L55.641 232.144Z" fill="#8A6651"/>
<path d="M46.9489 244.207L40.8779 252.793L51.3339 251.142L46.9489 244.207Z" fill="#CCAC13"/>
<path d="M204.962 227.204L240.218 196.771L251.924 196.105L249.942 209.888L230.147 235.335L204.962 227.204Z" fill="#C3977A"/>
<path d="M240.219 196.772L249.943 209.887L258.861 206.768L251.766 188.407L240.219 196.772Z" fill="#8A6651"/>
<path d="M209.063 152.951L255.334 202.957L260.448 198.939L263.315 193.537L209.063 152.951Z" fill="#464646"/>
<path d="M273.52 215.859L274.92 223.369L287.585 225.142L284.799 218.556L279.154 217.177L275.782 214.61L273.52 215.859Z" fill="#BE8F00"/>
<path d="M275.427 202.597L279.154 217.177L265.548 213.995L270.015 207.352L275.427 202.597Z" fill="#856300"/>
<path d="M249.359 196.499L265.548 213.995L275.427 202.597L263.315 193.536L249.359 196.499Z" fill="#8F8F8F"/>
<path d="M245.785 204.281L249.358 196.5L260.562 197.825L263.314 193.537L247.768 181.907L240.218 196.772L245.785 204.281Z" fill="#DFBCA4"/>
<path d="M266.804 183.192L277.898 199.147L275.427 202.597L247.768 181.907L255.993 182.462L266.804 183.192Z" fill="#C3977A"/>
<path d="M79.158 91.8969L133.62 78.6939L190.338 62.0479L189.559 53.8759L184.93 41.9309L130.983 66.3839L79.158 91.8969Z" fill="#CCAC13"/>
<path d="M184.931 41.9299L127.36 56.1969L69.207 74.8099L71.688 82.2809L79.158 91.8979L184.931 41.9299Z" fill="#E4C728"/>
<path d="M120.999 44.1299L115.743 61.5879L138.773 55.0449L120.999 44.1299Z" fill="#755700"/>
<path d="M184.932 41.9299L194.142 45.0079L204.182 52.3139L192.476 70.8119L189.895 65.5419L190.34 62.0469L184.932 41.9299Z" fill="#755700"/>
<path d="M184.932 41.9301L183.748 32.5271L186.013 20.2991L197.776 37.8061L204.182 52.3131L184.932 41.9301Z" fill="#CCAC13"/>
<path d="M186.012 20.2991L216.944 39.5511L204.182 52.3131L186.012 20.2991Z" fill="#BE8F00"/>
<path d="M184.932 41.9301L186.013 20.2991L186.662 8.40308L182.456 12.8221L164.263 31.9401L164.809 47.6471L184.932 41.9301Z" fill="#856300"/>
<path d="M149.821 11.223L148.159 20.3L157.152 28.097L165.68 32.413L179.606 16.478L154.216 -0.249023L149.821 11.223Z" fill="#BE8F00"/>
<path d="M165.68 32.412L148.159 20.3L142.688 33.957L138.774 55.044L164.809 47.646L165.68 32.412Z" fill="#CCAC13"/>
<path d="M118.741 18.568L138.135 20.681L148.159 20.3L154.215 -0.249023L118.741 18.568Z" fill="#CCAC13"/>
<path d="M148.16 20.2991L118.742 18.5691L124.974 32.6251L138.774 55.0451L148.16 20.2991Z" fill="#BE8F00"/>
<path d="M63.998 99.094L86.327 104.035L82.834 96.193L79.158 91.897L71.747 93.685L63.998 99.094Z" fill="#755700"/>
<path d="M138.774 55.044L121.944 45.783L111.44 41.29L105.114 36.523L107.767 26.243L112.005 18.044L114.632 10.998L118.742 18.568L138.774 55.044Z" fill="#CCAC13"/>
<path d="M105.115 36.523L95.4251 33.446L85.7551 25.816L83.7061 15.759L112.006 18.045L105.115 36.523Z" fill="#BE8F00"/>
<path d="M105.115 36.5229L85.755 25.8149L76.021 38.7939L82.548 51.4749L93.502 67.9069L102.498 48.3019L105.115 36.5229Z" fill="#856300"/>
<path d="M60.3621 77.4411L55.9661 102.908L79.1581 91.8971L69.2081 74.8091L64.9801 74.5801L60.3621 77.4411Z" fill="#856300"/>
<path d="M76.021 38.793L67.245 48.81L64.124 56.315L74.581 60.914L93.502 67.907L76.021 38.793Z" fill="#BE8F00"/>
<path d="M76.022 38.793L45.088 49.177L64.125 56.315L76.022 38.793Z" fill="#CCAC13"/>
<path d="M64.124 56.314L47.035 81.406L69.207 74.809L93.501 67.907L64.124 56.314Z" fill="#CCAC13"/>
<path d="M105.115 36.5229L93.502 67.9069L106.662 84.513L115.744 61.587L121.944 45.7839L105.115 36.5229Z" fill="#BE8F00"/>
<path d="M190.339 62.0479L209.374 140.133L174.765 152.463L170.186 160.676L166.978 171.282L152.093 181.609L139.723 194.426L118.171 154.65L103.495 133.064L91.763 113.237L89.283 103.476L79.158 91.8979L190.339 62.0479Z" fill="#DFBCA4"/>
<path d="M113.326 121.449L107.432 111.533L97.856 116.491L106.166 120.408L113.326 121.449Z" fill="#8A6651"/>
<path d="M123.189 80.075L153.324 159.928L165.68 159.87L166.979 171.282L139.723 194.426L120.867 162.487L118.742 155.7L115.262 152.994L103.495 133.063L121.688 122.256L115.714 110.932L125.663 105.092L112.908 82.8359L123.189 80.075Z" fill="#C3977A"/>
<path d="M141.252 91.75L151.836 91.681L163.95 108.121L161.631 88.744L154.916 78.915L141.252 91.75Z" fill="#C3977A"/>
<path d="M168.809 74.876L173.622 100.526L178.658 82.597L187.405 77.249L168.809 74.876Z" fill="#C3977A"/>
<path d="M154.916 78.9141L138.354 85.1261L141.252 91.7501L154.916 78.9141Z" fill="#856300"/>
<path d="M168.809 74.8749L185.863 70.1829L187.405 77.2489L168.809 74.8749Z" fill="#856300"/>
<path d="M160.746 126.349L174.159 117.258L188.538 118.227L177.036 126.836L160.746 126.349Z" fill="#755700"/>
<path d="M192.502 115.691L176.564 125.893L155.297 126.506L178.01 132.131L192.502 115.691Z" fill="#B58A00"/>
<path d="M112.909 82.835L125.664 105.092L115.714 110.933L110.522 102.496L91.763 113.237L79.158 91.898L112.909 82.835Z" fill="#856300"/>
<path d="M174.765 152.462L145.564 162.63L166.978 171.282L174.765 152.462Z" fill="#8A6651"/>
<path d="M121.581 128.358L117.127 145.848L107.883 135.657L121.581 128.358Z" fill="#8A6651"/>
<path d="M135.215 141.141L120.865 162.487L115.315 152.963L121.943 145.849L135.215 141.141Z" fill="#8A6651"/>
<path d="M168.809 74.875L154.915 78.914L163.95 108.121L177.577 104.01L168.809 74.875Z" fill="#E8C9B6"/>
<path d="M177.578 104.01L172.819 112.878L163.95 108.12L177.578 104.01Z" fill="#8A6651"/>
<path d="M123.394 121.243L135.215 141.142L115.315 152.963L103.495 133.064L123.394 121.243ZM110.61 134.876L117.127 145.849L128.1 139.33L121.582 128.358L110.61 134.876Z" fill="#755700"/>
<path d="M111.001 117.535L106.166 120.408L115.224 135.657L120.06 132.784L111.001 117.535Z" fill="#B58A00"/>
<path d="M156.898 99.824C156.898 102.177 154.991 104.084 152.639 104.084C150.286 104.084 148.378 102.177 148.378 99.824C148.378 97.471 150.286 95.564 152.639 95.564C154.991 95.564 156.898 97.471 156.898 99.824Z" fill="#2B2B2B"/>
<path d="M185.664 90.301C185.664 92.653 183.756 94.56 181.403 94.56C179.051 94.56 177.144 92.653 177.144 90.301C177.144 87.948 179.051 86.042 181.403 86.042C183.756 86.042 185.664 87.948 185.664 90.301Z" fill="#2B2B2B"/>
</svg>
