<svg width="298" height="400" viewBox="0 0 298 400" fill="none" xmlns="http://www.w3.org/2000/svg">
<path d="M53.654 120.653L64.173 115.551L78.046 144.157L67.801 149.331L53.654 120.653Z" fill="#4F5252"/>
<path d="M83.654 111.518L38.424 133.454L40.302 158.31L93.091 133.696L83.654 111.518Z" fill="#858585"/>
<path d="M40.303 158.31L53.655 160.264L102.117 138.813L96.2 132.223L90.77 132.378L40.303 158.31Z" fill="#6E7073"/>
<path d="M98.82 186.989L78.046 144.157L67.8 149.33L88.3 192.091L98.82 186.989Z" fill="#4F5252"/>
<path d="M83.654 111.517L89.025 111.328H96.704L102.116 138.812L90.769 132.379L83.654 111.517Z" fill="#6E7073"/>
<g opacity="0.1">
<path d="M39.894 390.888L130.091 376.559L266.872 385.006L149.082 400.002L39.894 390.888Z" fill="black"/>
</g>
<path d="M199.824 276.293L189.298 303.389L178.987 316.003L177.061 334.89L170.282 352.342L157.876 358.321L142.524 362.499L148.907 309.753L199.824 276.293Z" fill="#856300"/>
<path d="M145.405 350.501L174.954 340.311L170.282 352.342L156.838 362.499H142.524V357.425L145.405 350.501Z" fill="#9E7700"/>
<path d="M170.282 352.341L193.314 378.671L165.837 381.839L135.402 378.671V365.104L170.282 352.341Z" fill="#755700"/>
<path d="M135.357 385.006H193.315V378.671H135.357V385.006Z" fill="#BB8F2C"/>
<path d="M181.769 310.715L168.676 309.17L161.755 336.065L177.061 334.89L181.651 323.072L181.769 310.715Z" fill="#9E7700"/>
<path d="M168.676 309.169L181.581 323.044L189.298 303.388L168.676 309.169Z" fill="#B58A00"/>
<path d="M154.087 314.354L142.524 362.499L134.287 365.436L104.002 371.124L97.989 296.589L154.087 314.354Z" fill="#9E7700"/>
<path d="M199.824 276.293L154.087 314.355L97.99 296.59L129.27 288.528L199.824 276.293Z" fill="#BE8F00"/>
<path d="M142.523 362.499L149.082 385.001H103.374L104.002 371.124L142.523 362.499Z" fill="#856300"/>
<path d="M103.374 391.336H149.082V385.001H103.374V391.336Z" fill="#CCAC13"/>
<path d="M145.405 350.501L102.815 356.403L104.003 371.123L142.524 362.498L145.405 350.501Z" fill="#BE8F00"/>
<path d="M110.347 156.09L157.988 167.252L186.576 246.319L193.483 260.6L115.356 264.939L96.992 269.946L95.991 255.256L110.347 156.09Z" fill="#E4C728"/>
<path d="M90.314 168.777L110.348 156.09L123.518 213.708L112.018 214.52L97.677 187.945L90.314 168.777Z" fill="#BE8F00"/>
<path d="M95.99 255.256L152.057 216.804L182.115 228.885L194.268 261.421L115.713 266.903L96.991 269.946L95.99 255.256Z" fill="#BE8F00"/>
<g opacity="0.2">
<path d="M148.097 243.031L166.44 254.254L192.33 256.231L188.608 246.266L155.37 225.43L125.304 238.659L95.99 255.256L148.097 243.031Z" fill="#2B2B2B"/>
</g>
<path d="M194.269 261.42L170.895 262.513L164.358 268.752L156.837 263.17L126.374 264.594L126.433 276.979L128.378 290.314L159.346 284.235L164.358 279.002L173.165 281.524L199.824 276.292L194.269 261.42Z" fill="#856300"/>
<path d="M156.838 263.171L159.344 284.236L173.164 281.525L170.896 262.514L156.838 263.171Z" fill="#CCAC13"/>
<path d="M193.411 61.5359L196.462 99.0249L193.819 134.914L164.5 143.667L150.486 158.753L128.445 159.345L110.347 156.091L98.555 128.477L89.026 111.327L79.446 91.2179L75.28 59.1839L105.699 70.1239L148.438 66.1829L158.308 51.8069L170.249 62.5679L193.411 61.5359Z" fill="#DFBCA4"/>
<path d="M115.352 70.3879L120.085 107.772L112.017 113.67L103.374 109.685L99.663 94.6559L107.342 93.9879L105.699 71.3739L115.352 70.3879Z" fill="#C3977A"/>
<path d="M153.726 103.918L140.144 83.5699L115.352 70.3879L151.556 63.3879L153.726 103.918Z" fill="#C3977A"/>
<path d="M172.696 96.398L178.677 76.668L190.547 61.831L165.429 60.384L172.696 96.398Z" fill="#C3977A"/>
<path d="M196.462 99.0249L89.025 111.327L110.347 156.09L125.172 159.535L137.989 161.674L157.987 167.252L161.899 152.714L166.107 144.738L199.829 140.397L196.462 99.0249Z" fill="#C3977A"/>
<path d="M120.086 107.772L125.456 149.487L135.872 152.796L139.663 163.753L136.391 175.791L110.346 156.091L95.191 124.275L94.467 118.111L89.025 111.328L103.374 109.685L120.086 107.772Z" fill="#C3977A"/>
<g opacity="0.15">
<path d="M120.086 107.771L125.456 149.486L135.872 152.795L139.663 163.752L136.391 175.79L110.347 156.09L95.192 124.274L94.468 118.11L89.026 111.327L103.375 109.684L120.086 107.771Z" fill="#2B2B2B"/>
</g>
<path d="M166.107 144.738L120.153 150.141L136.39 175.79L157.987 167.252L166.107 144.738Z" fill="#8A6651"/>
<path d="M103.375 109.684L95.191 124.274L89.025 111.327L103.375 109.684Z" fill="#8A6651"/>
<path d="M130.385 118.774L173.165 124.372L172.727 127.712L129.947 122.114L130.385 118.774Z" fill="#8A6651"/>
<path d="M153.726 103.919L164.562 109.708L173.212 101.688L163.408 101.76L153.726 103.919Z" fill="#8A6651"/>
<path d="M115.353 70.388L150.485 76.447L149.509 66.897L135.902 67.075L115.353 70.388Z" fill="#464646"/>
<path d="M170.653 74.9021L169.534 63.9961L178.733 61.6201L190.546 61.8311L170.653 74.9021Z" fill="#464646"/>
<path d="M105.699 71.373L107.343 93.986L99.663 94.654L96.789 83.8L79.445 91.215L64.799 60.468L88.026 61.36L105.699 71.373Z" fill="#464646"/>
<path d="M85.639 94.3209L92.318 91.6499L96.705 104.436L85.639 94.3209Z" fill="#8A6651"/>
<path d="M74.583 34.324L56.297 17.322L33.521 38.012L52.838 37.868L74.583 34.324Z" fill="#9E7700"/>
<path d="M33.522 38.012L0 69.128L49.474 47.112L74.583 34.324L33.522 38.012Z" fill="#BE8F00"/>
<path d="M0 69.128L64.8 60.468L74.584 34.324L0 69.128Z" fill="#755700"/>
<path d="M102.331 30.7959L87.542 31.2699L74.583 34.3239L64.799 60.4679L89.001 43.3639L102.331 30.7959Z" fill="#9E7700"/>
<path d="M145.637 0L112.153 13.865L74.583 34.324L89.999 32.364L102.331 30.795L141.051 29.254L187.599 22.489L145.637 0Z" fill="#856300"/>
<path d="M85.971 4.811L74.583 34.324L145.637 0L85.971 4.811Z" fill="#BE8F00"/>
<path d="M102.331 30.796L207.708 20.53L211.559 59.666L169.536 63.996L158.309 51.807L149.51 66.898L105.699 71.374L102.117 48.125L102.331 30.796Z" fill="#E4C728"/>
<path d="M114.36 39.1349L153.014 35.2859L141.626 56.7779L116.123 59.1839L114.36 39.1349Z" fill="#464646"/>
<path d="M199.376 30.7419L160.704 34.4049L176.016 53.3039L201.504 50.7559L199.376 30.7419Z" fill="#464646"/>
<path d="M105.699 71.3739L64.799 60.4679L102.33 30.7959L105.699 71.3739Z" fill="#CCAC13"/>
<path d="M158.308 51.8059L169.534 63.9949L173.213 101.687L153.726 103.918L149.646 66.8819L158.308 51.8059Z" fill="#E8C9B6"/>
<path d="M183.456 82.04C183.456 84.679 181.317 86.819 178.678 86.819C176.039 86.819 173.898 84.679 173.898 82.04C173.898 79.4 176.039 77.261 178.678 77.261C181.317 77.261 183.456 79.4 183.456 82.04Z" fill="#2B2B2B"/>
<path d="M127.753 82.208L143.856 83.979L143.47 87.486L127.368 85.716L127.753 82.208Z" fill="#2B2B2B"/>
<path d="M78.963 219.195L61.601 183.469L90.314 168.777L112.017 214.521L100.413 224.705L78.963 219.195Z" fill="#CCAC13"/>
<path d="M124.371 241.232L95.99 255.255L78.961 219.196L112.017 214.521L123.37 226.853L124.371 241.232Z" fill="#E4C728"/>
<path d="M148.745 208.178L112.016 214.522L124.37 241.233L155.37 225.431L156.837 216.804L148.745 208.178Z" fill="#DFBCA4"/>
<path d="M126.374 264.594L115.356 264.938L118.097 309.116L123.37 357.424L134.898 351.956L126.374 264.594Z" fill="#CCAC13"/>
<path d="M84.526 292.261L94.654 304.632L115.356 264.938L86.108 273.171L70.548 277.704L84.526 292.261Z" fill="#CCAC13"/>
<path d="M80.109 240.163L86.64 243.375L82.874 256.231L75.28 261.421V250.67L80.109 240.163Z" fill="#4F5252"/>
<path d="M48.855 245.01L56.663 245.334L67.801 261.42L56.827 262.513L48.855 245.01Z" fill="#4F5252"/>
<path d="M82.875 256.231L107.342 295.323L105.466 302.107L85.64 279.168L76.349 258.31L82.875 256.231Z" fill="#858585"/>
<path d="M58.862 260.248L65.415 255.945L71.969 251.641L61.961 236.401L80.108 240.162L76.349 258.311L105.465 302.105L98.912 306.41L92.358 310.714L63.241 266.917L45.092 263.157L48.853 245.01L58.862 260.248Z" fill="#6E7073"/>
<path d="M123.369 357.424L76.29 355.087L70.281 277.625L94.654 302.667L115.356 264.938L123.369 357.424Z" fill="#E4C728"/>
<path d="M189.36 192.181L197.875 196.301L193.008 208.186L182.116 228.885L181.769 204.133L183.071 194.66L189.36 192.181Z" fill="#CCAC13"/>
<path d="M182.116 228.884L202.341 187.069L218.781 184.972L221.868 199.826L212.846 235.22L182.116 228.884Z" fill="#C3977A"/>
<path d="M148.744 208.177L166.44 254.253L188.608 246.266L170.895 199.453L148.744 208.177Z" fill="#4F5252"/>
<path d="M155.371 225.43L182.116 228.884L176.073 208.754L170.894 199.454L161.595 200.002L148.744 208.177L155.371 225.43Z" fill="#C3977A"/>
<path d="M182.116 228.885L189.79 213.019L189.36 192.182L180.041 193.253L170.895 199.454L182.116 228.885Z" fill="#8A6651"/>
<path d="M136.391 175.789L222.534 141.732L229.585 157.275L235.221 174.12L148.745 208.177L136.391 175.789Z" fill="#6E7073"/>
<path d="M222.533 141.733L236.557 149.079L239.906 155.039L241.231 160.764L235.221 174.121L222.533 141.733Z" fill="#4F5252"/>
<path d="M236.558 149.079L248.861 144.157L249.068 151.081L246.69 158.568L241.232 160.765L236.558 149.079Z" fill="#464646"/>
<path d="M248.861 144.157L259.019 140.094L259.512 146.3L256.852 154.477L246.69 158.568L248.861 144.157Z" fill="#6E7073"/>
<path d="M259.019 140.093L269.036 136.087L268.519 142.891L266.872 150.445L256.852 154.477L259.019 140.093Z" fill="#464646"/>
<path d="M269.036 136.087L278.697 132.224L278.555 138.736L276.537 146.554L266.872 150.444L269.036 136.087Z" fill="#6E7073"/>
<path d="M278.697 132.224L288.304 128.38L288.023 134.808L286.149 142.685L276.676 146.511L278.697 132.224Z" fill="#464646"/>
<path d="M288.304 128.38L297.325 124.705L294.987 139.063L286.149 142.685L288.304 128.38Z" fill="#6E7073"/>
<path d="M170.489 176.696L149.61 184.65L148.423 181.536L169.301 173.582L170.489 176.696Z" fill="#4F5252"/>
<path d="M172.627 182.307L151.747 190.261L150.561 187.147L171.439 179.193L172.627 182.307Z" fill="#4F5252"/>
<path d="M174.765 187.919L153.885 195.873L152.699 192.759L173.577 184.805L174.765 187.919Z" fill="#4F5252"/>
<path d="M221.868 199.827L235.222 189.476V174.121L223.869 185.306L221.868 199.827Z" fill="#C3977A"/>
<path d="M202.34 187.069L218.137 179.673L235.221 174.121L221.867 199.827L202.34 187.069Z" fill="#8A6651"/>
<path d="M202.34 187.069L207.166 166.5L228.157 156.09L235.221 174.121L202.34 187.069Z" fill="#DFBCA4"/>
</svg>
